<?xml version="1.0" encoding="UTF-8" standalone="no"?>
<svg
   xmlns:dc="http://purl.org/dc/elements/1.1/"
   xmlns:cc="http://creativecommons.org/ns#"
   xmlns:rdf="http://www.w3.org/1999/02/22-rdf-syntax-ns#"
   xmlns:svg="http://www.w3.org/2000/svg"
   xmlns="http://www.w3.org/2000/svg"
   xmlns:xlink="http://www.w3.org/1999/xlink"
   xmlns:sodipodi="http://sodipodi.sourceforge.net/DTD/sodipodi-0.dtd"
   xmlns:inkscape="http://www.inkscape.org/namespaces/inkscape"
   version="1.1"
   viewBox="2560 0 2 200"
   id="svg4933"
   sodipodi:docname="events-banner.svg"
   inkscape:version="0.92.3 (2405546, 2018-03-11)"
   style="background-color:#181818">
  <style
     type="text/css"
     id="style6891">/* jura-700 - latin */
    @font-face {
      font-family: 'Jura';
      font-style: normal;
      font-weight: 700;
      src: local('Jura Bold'), local('Jura-Bold'),
           url('/static/website/jura-v9-latin-700.woff2') format('woff2'), /* Chrome 26+, Opera 23+, Firefox 39+ */
           url('/static/website/jura-v9-latin-700.woff') format('woff'); /* Chrome 6+, Firefox 3.6+, IE 9+, Safari 5.1+ */
    }
    a.btn:hover .btn-rect
    {
      fill: #303030;
      fill-opacity: 1;
    }
    a.btn:hover
    {
      cursor: pointer;
    }</style>
  <metadata
     id="metadata4939">
    <rdf:RDF>
      <cc:Work
         rdf:about="">
        <dc:format>image/svg+xml</dc:format>
        <dc:type
           rdf:resource="http://purl.org/dc/dcmitype/StillImage" />
        <dc:title></dc:title>
      </cc:Work>
    </rdf:RDF>
  </metadata>
  <defs
     id="defs4937" />
  <sodipodi:namedview
     pagecolor="#181818"
     bordercolor="#666666"
     borderopacity="1"
     objecttolerance="10"
     gridtolerance="10"
     guidetolerance="10"
     inkscape:pageopacity="0"
     inkscape:pageshadow="2"
     inkscape:window-width="2560"
     inkscape:window-height="1385"
     id="namedview4935"
     showgrid="false"
     inkscape:zoom="1"
     inkscape:cx="-709.42753"
     inkscape:cy="31.114109"
     inkscape:window-x="0"
     inkscape:window-y="27"
     inkscape:window-maximized="1"
     inkscape:current-layer="svg4933" />
  <text
     x="2202.8774"
     y="80"
     font-size="86.767px"
     font-weight="bold"
     letter-spacing="0px"
     text-align="center"
     word-spacing="0px"
     style="font-weight:bold;font-size:66.37168121px;line-height:0;font-family:Jura;font-variant-ligatures:normal;font-variant-caps:normal;font-variant-numeric:normal;font-feature-settings:normal;text-align:center;letter-spacing:0px;word-spacing:0px;text-anchor:middle;fill:#ffffff;stroke-width:2.74552822"
     xml:space="preserve"
     id="text4566"><tspan
       x="2202.8774"
       y="80"
       font-size="86.767px"
       font-weight="bold"
       text-align="center"
       style="font-weight:bold;font-size:66.37168121px;font-family:Jura;font-variant-ligatures:normal;font-variant-caps:normal;font-variant-numeric:normal;font-feature-settings:normal;text-align:center;text-anchor:middle;stroke-width:2.74552822"
       id="tspan4564">Events</tspan></text>
  <line
     x1="2097"
     x2="2517"
     y1="100"
     y2="100"
     stroke-miterlimit="10"
     id="line4568"
     style="clip-rule:evenodd;fill:#95c5cd;fill-rule:evenodd;stroke:#95c5cd;stroke-width:5;stroke-miterlimit:10;stroke-dasharray:none" />
  <path
     style="fill:#213d44;stroke-width:0.071429"
     inkscape:connector-curvature="0"
     id="path4629"
     d="m 2810.841,31.02145 -9.4286,6.0214 9.4286,6.0214 -9.4286,6.0214 -9.4571,-6.0786 9.45,-6.0214 -9.45,-5.9643 9.45,-6.0214 z m -9.4857,19.957 9.4286,-6.0214 9.4285,6.0214 -9.4285,6.0214 z m 9.4857,-7.9714 9.4286,-6.0214 -9.4286,-5.9714 9.3786,-6.0143 9.45,6.0214 -9.45,6.0214 9.45,6.0143 -9.45,6.0214 z" />
  <path
     style="fill:#213d44"
     inkscape:connector-curvature="0"
     id="path4633"
     d="m 1332.4145,24.99961 h -24.829 c -1.9643,0 -3.5857,1.6214 -3.5857,3.5857 V 53.4143 c 0,1.9643 1.6214,3.5857 3.5857,3.5857 h 24.829 c 1.9643,0 3.5857,-1.6215 3.5857,-3.5857 V 28.58531 c 0,-1.9643 -1.6214,-3.5857 -3.5857,-3.5857 z m -3.2429,20.30699 c 0,0.29997 -0.2572,0.42859 -0.5571,0.55717 -1.1929,0.51427 -2.4714,0.97857 -3.8429,0.97857 -1.9214,0 -2.8143,-1.1929 -5.1214,-1.1929 -1.6643,0 -3.4143,0.59999 -4.8214,1.2357 -0.086,0.0427 -0.1717,0.0427 -0.2573,0.0856 v 3.2429 c 0,0.12865 0,0.25731 -0.043,0.34297 v 0.0856 c -0.1715,0.60002 -0.7285,1.0214 -1.3643,1.0214 -0.8071,0 -1.45,-0.64285 -1.45,-1.45 V 34.59962 c -0.5571,-0.42857 -0.9357,-1.1072 -0.9357,-1.8786 0,-1.3214 1.0643,-2.3929 2.3929,-2.3929 1.3214,0 2.3929,1.0643 2.3929,2.3929 0,0.77143 -0.3428,1.45 -0.9357,1.8786 v 1.3215 c 0.1284,-0.043 0.2573,-0.0857 0.3857,-0.17131 1.3214,-0.55716 2.9,-1.0215 4.3929,-1.0215 1.6214,0 2.9,0.42858 4.35,0.97864 0.3001,0.12865 0.6,0.1713 0.9357,0.1713 1.6214,0 3.4144,-1.15 3.8429,-1.15 0.3429,0 0.6429,0.25731 0.6429,0.55716 V 45.3064 Z" />
  <path
     style="fill:#213d44;stroke-width:0.071429"
     d="m 3283.866,41.4139 c 0,10.107 -6.9214,17.3 -17.143,17.3 -9.8,0 -17.714,-7.9143 -17.714,-17.714 0,-9.8 7.9142,-17.714 17.714,-17.714 4.7715,0 8.7858,1.75 11.879,4.6357 l -4.8214,4.6357 c -6.3072,-6.0857 -18.036,-1.5143 -18.036,8.4429 0,6.1786 4.9357,11.186 10.978,11.186 7.0143,0 9.6429,-5.0286 10.057,-7.6357 h -10.057 v -6.0929 h 16.864 c 0.1643,0.90714 0.2786,1.7786 0.2786,2.9571 z"
     id="path4637"
     inkscape:connector-curvature="0" />
  <path
     style="fill:#213d44;stroke-width:0.071429"
     class="st1"
     d="m 2848.3123,90.541214 c -0.014,-0.1 0.1357,-0.16429 0.2285,-0.20715 0.1215,-0.05 0.2786,-0.0714 0.3929,-0.007 0.029,0.0143 0.057,0.05 0.043,0.0786 -0.029,0.0857 -0.1715,0.0714 -0.25,0.11429 -0.072,0.0357 -0.1286,0.12143 -0.2143,0.12143 -0.072,0.007 -0.1929,-0.0286 -0.2,-0.1 z m 1.7643,-0.0214 c 0.071,0.0357 0.1285,0.12143 0.2142,0.12143 0.079,0 0.2,-0.0286 0.2072,-0.10715 0.014,-0.1 -0.1357,-0.16428 -0.2286,-0.20714 -0.1214,-0.05 -0.2786,-0.0714 -0.3928,-0.007 -0.029,0.0143 -0.057,0.05 -0.043,0.0786 0.021,0.0929 0.1643,0.0786 0.2429,0.12143 z m 15.336,22.156996 c -0.036,0.58572 -0.4643,0.98572 -0.9929,1.3071 -1.0643,0.64286 -2.6643,1.1286 -3.6357,2.3 l -0.1857,-0.15714 0.1857,0.15714 c -1.0143,1.2072 -2.2643,1.9 -3.45,1.9929 -1.1786,0.0929 -2.2857,-0.45 -2.8786,-1.6429 v -0.007 c -0.079,-0.15 -0.1357,-0.31428 -0.1785,-0.47857 -1.5358,0.0857 -2.8715,-0.37857 -3.9358,-0.29286 -1.5714,0.0857 -2.5571,0.46429 -3.45,0.47143 -0.3428,0.75714 -1.0214,1.2571 -1.85,1.4429 -1.1428,0.26428 -2.5785,0 -3.9928,-0.74286 l 0.1143,-0.21428 -0.1143,0.21428 c -1.3214,-0.7 -3,-0.63571 -4.2357,-0.89286 -0.6215,-0.12857 -1.1643,-0.35714 -1.4357,-0.87857 -0.2643,-0.52143 -0.2143,-1.2357 0.1571,-2.2643 0.1214,-0.36429 0.029,-0.90715 -0.057,-1.4857 -0.043,-0.27857 -0.086,-0.56428 -0.086,-0.84285 0,-0.30715 0.05,-0.60715 0.2,-0.88572 0.3215,-0.60714 0.8429,-0.86428 1.3215,-1.0357 0.4785,-0.17143 0.9143,-0.28572 1.2143,-0.59286 0.3714,-0.39286 0.7214,-1.0286 1.1857,-1.4429 -0.1857,-1.2286 0.014,-2.5286 0.4428,-3.8071 0.9,-2.7071 2.8,-5.299996 4.15,-6.907096 1.15,-1.6357 1.4857,-2.95 1.6072,-4.6214 0.079,-2.2714 -1.75,-9.6714 5.5643,-9.6571 5.7785,0.007 5.45,6.1 5.4142,9.3786 -0.021,2.15 1.1643,3.6071 2.3858,5.1428 1.0857,1.2857 2.5071,3.1643 3.3214,5.314296 0.6643,1.7571 0.9214,3.7 0.2643,5.65 0.1,0.0357 0.2,0.0857 0.2928,0.14286 0.1,0.0571 0.1929,0.12857 0.2857,0.20714 0.4715,0.4 0.6215,1.0214 0.75,1.6 0.1358,0.57857 0.2572,1.1214 0.5143,1.4071 0.7929,0.88572 1.1357,1.5357 1.1072,2.1214 z m -15.336,-23.170996 c 0.2571,0.0643 0.6357,0.17143 0.9285,0.31429 -0.15,-0.87143 0.3215,-1.6786 0.8429,-1.6429 0.6357,0.0214 0.9928,1.1071 0.65,1.95 -0.057,0.13572 -0.2,0.24286 -0.2786,0.32857 0.4786,0.16429 0.7857,0.29286 0.9,0.35 0.5643,-0.67857 0.7714,-1.8714 0.3072,-2.8857 -0.7,-1.5286 -2.4429,-1.5571 -3.1429,0.0286 -0.2286,0.51429 -0.2786,1.0643 -0.2071,1.5571 z m -3.3,1.3429 c 0.5571,-0.40714 0.4928,-0.33571 0.4214,-0.39286 -0.5714,-0.49285 -0.4714,-1.9571 0.1286,-2.0071 0.45,-0.0357 0.7714,0.76429 0.6857,1.4 0.2214,-0.15 0.4785,-0.25714 0.7285,-0.32857 0.1215,-1.3786 -0.6428,-2.3929 -1.3642,-2.3929 -1.35,0 -1.7143,2.6786 -0.6,3.7214 z m -0.6715,1.4929 c 0.1072,0.35 0.4357,0.75 1.05,1.0928 0.5572,0.32858 0.8572,0.82143 1.4286,1.0714 0.1857,0.0786 0.4071,0.13572 0.6857,0.15 1.3143,0.0786 1.9357,-0.80714 2.7286,-1.0643 0.8357,-0.26429 1.4357,-0.78572 1.6214,-1.2929 0.2286,-0.60714 -0.15,-1.05 -0.75,-1.3 -0.8071,-0.35 -1.1643,-0.37143 -1.6143,-0.66429 -0.7357,-0.47142 -1.3428,-0.63571 -1.85,-0.63571 -1.0285,0 -1.6571,0.7 -1.9928,1.0143 -0.036,0.0357 -0.5643,0.42142 -1.0072,0.75 -0.3,0.23571 -0.4,0.52857 -0.3,0.87857 z m -2.3928,18.056996 -1.4,-2.5429 c -0.4857,-0.65714 -0.9857,-1.0571 -1.5643,-1.1428 -0.55,-0.0857 -0.9,0.1 -1.2643,0.49285 -0.3429,0.36429 -0.6286,0.87857 -1.0214,1.2857 -0.5572,0.46428 -0.6643,0.44285 -1.4,0.70714 -0.45,0.15714 -0.8072,0.32857 -1.0572,0.80714 -0.1928,0.35715 -0.15,0.87143 -0.064,1.4286 0.086,0.56429 0.2143,1.1643 0.043,1.7072 v 0.0143 c -0.3571,0.97857 -0.3571,1.55 -0.1857,1.8857 0.5643,1.1 3.3286,0.43571 5.4643,1.5643 2.2428,1.1714 5.1857,1.2214 5.3785,-1.2857 0.15,-1.4643 -2.25,-3.5 -2.9285,-4.9214 z m 10.993,2.5571 c 0.2286,-0.78571 0.45,-1.5214 0.4857,-2.0714 0.057,-1.0857 0.1143,-2.05 0.3143,-2.85 0.2215,-0.9 0.6643,-1.65 1.5286,-1.95 0.1643,-1.5071 1.3357,-1.5071 2.7357,-0.89285 1.35,0.60714 1.8572,1.1428 1.6286,1.8643 0.071,0 0.1428,-0.007 0.3,0 0.3714,-1.2071 -1.0214,-2 -2.1929,-2.4857 0.2072,-0.85714 0.1715,-1.7214 -0.028,-2.55 -0.4286,-1.8071 -1.6143,-3.414296 -2.5143,-4.214296 -0.1643,-0.007 -0.15,0.13572 0.1857,0.46429 0.8286,0.76428 2.65,3.514296 1.6643,6.064296 -0.2786,-0.0714 -0.5429,-0.10714 -0.7786,-0.1 -0.3786,-2.0786 -1.25,-3.8 -1.6857,-4.614296 -0.8214,-1.5286 -2.1072,-4.6643 -2.6572,-6.8357 -0.3214,0.45715 -0.8857,0.85 -1.5928,1.0714 -0.3357,0.10715 -0.6929,0.39286 -1.1357,0.64286 -0.9929,0.57143 -2.1429,0.62857 -3.0286,-0.0857 -0.3214,-0.25715 -0.5714,-0.54286 -0.9,-0.73572 -0.1143,-0.0643 -0.3643,-0.23571 -0.4429,-0.29286 -0.1428,2.7 -1.95,6.0929 -2.8071,8.049996 -0.5929,1.4072 -0.9429,2.9143 -0.9857,4.3929 -1.5572,-2.0786 -0.4214,-4.7357 0.1857,-5.885696 0.6786,-1.2572 0.7857,-1.6072 0.6214,-1.4857 -0.6143,1 -1.5714,2.592896 -1.9428,4.228596 -0.1929,0.85 -0.2286,1.7143 0.021,2.5143 0.25,0.8 0.7929,1.5357 1.7571,2.1357 0,0 1.7715,1.0214 2.7358,2.3214 0.5285,0.71429 0.6928,1.3357 0.5285,1.7786 -0.1785,0.47858 -0.6857,0.63572 -1.1928,0.63572 0.3428,0.42857 0.7357,0.92857 1.0285,1.4 2.6858,1.8357 5.8715,1.1214 8.1643,-0.51429 z m 9.2429,-2.0643 c -0.7143,-0.80715 -0.5143,-2.3643 -1.2214,-2.9714 -0.4929,-0.42857 -0.9715,-0.38572 -1.6143,-0.36429 -0.55,0.62857 -1.8429,1.4 -2.7429,1.1643 -0.8214,-0.20714 -1.2857,-1.1643 -1.3428,-2.1071 -0.022,0.0143 -0.05,0.0214 -0.072,0.0357 -0.5071,0.27857 -0.7928,0.77143 -0.9785,1.5071 -0.1786,0.72857 -0.2429,1.6786 -0.3,2.7643 -0.05,0.84286 -0.4429,1.8857 -0.7072,2.9 -0.25,0.94286 -0.4143,1.8 -0.079,2.5929 0.5143,1.0357 1.3929,1.4571 2.4072,1.3786 1.0143,-0.0786 2.1714,-0.7 3.1143,-1.8214 1.5714,-1.9 4.45,-2.1214 4.5143,-3.3214 0.021,-0.36429 -0.2215,-0.92857 -0.9786,-1.7571 z m -17.264,-18.556996 c 0.1429,0.13572 0.3357,0.32143 0.5714,0.50715 0.4715,0.37143 1.1286,0.75714 1.95,0.75714 0.8286,0 1.6072,-0.42143 2.2715,-0.77143 0.35,-0.18571 0.7785,-0.5 1.0571,-0.74286 0.2786,-0.24285 0.4214,-0.45 0.2214,-0.47142 -0.2,-0.0214 -0.1857,0.18571 -0.4285,0.36428 -0.3143,0.22857 -0.6929,0.52857 -0.9929,0.7 -0.5286,0.3 -1.3929,0.72857 -2.1357,0.72857 -0.7429,0 -1.3357,-0.34285 -1.7786,-0.69285 -0.2214,-0.17858 -0.4071,-0.35715 -0.55,-0.49286 -0.1071,-0.1 -0.1357,-0.32857 -0.3071,-0.35 -0.1,-0.007 -0.1286,0.26428 0.1214,0.46428 z"
     id="path4647"
     inkscape:connector-curvature="0" />
  <path
     style="fill:#213d44;stroke-width:0.071429"
     d="m 3302.0445,103.53558 c -0.9857,0 -1.7786,-0.79286 -1.7786,-1.7572 0,-0.98571 0.7929,-1.778599 1.7786,-1.778599 0.9714,0 1.7571,0.792859 1.7571,1.778599 0,0.97143 -0.7928,1.7572 -1.7571,1.7572 z m 21.607,-3.535699 c 0,9.785699 -7.9286,17.713999 -17.714,17.713999 -9.7854,0 -17.714,-7.9286 -17.714,-17.713999 0,-9.7857 7.9286,-17.714 17.714,-17.714 9.7854,0 17.714,7.9286 17.714,17.714 z m -9.45,-2.9428 c -0.6714,0 -1.2643,0.27857 -1.7,0.71428 -1.6,-1.1071 -3.7571,-1.8214 -6.15,-1.9 l 1.2429,-5.5929 3.9571,0.89286 c 0,0.97143 0.7929,1.7571 1.7572,1.7571 0.9857,0 1.7785,-0.80714 1.7785,-1.7786 0,-0.97146 -0.7928,-1.7786 -1.7785,-1.7786 -0.6929,0 -1.2858,0.41429 -1.5786,0.98572 l -4.3714,-0.97143 c -0.2143,-0.0571 -0.4358,0.1 -0.4929,0.31428 l -1.3643,6.1714 c -2.3714,0.1 -4.5071,0.80714 -6.1071,1.9143 -0.4357,-0.45715 -1.05,-0.72857 -1.7215,-0.72857 -2.4928,0 -3.3071,3.349999 -1.0285,4.485699 -0.079,0.35714 -0.1215,0.72857 -0.1215,1.1071 0,3.7572 4.2286,6.8 9.4286,6.8 5.2214,0 9.45,-3.0428 9.45,-6.8 0,-0.37857 -0.043,-0.77143 -0.1357,-1.1286 2.2357,-1.1429 1.4143,-4.464299 -1.0643,-4.464299 z m -4.9214,8.299999 c -1.3,1.3 -5.4357,1.2786 -6.6857,0 -0.1572,-0.15715 -0.4357,-0.15715 -0.5929,0 -0.1786,0.17857 -0.1786,0.45714 0,0.61428 1.6286,1.6286 6.2357,1.6286 7.8714,0 0.1786,-0.15714 0.1786,-0.43571 0,-0.61428 -0.1571,-0.15715 -0.4357,-0.15715 -0.5928,0 z m 0.55,-5.357199 c -0.9714,0 -1.7572,0.792859 -1.7572,1.778599 0,0.97143 0.7929,1.7572 1.7572,1.7572 0.9857,0 1.7786,-0.79286 1.7786,-1.7572 0,-0.98571 -0.7858,-1.778599 -1.7786,-1.778599 z"
     id="path4653"
     inkscape:connector-curvature="0" />
  <path
     style="fill:#213d44"
     inkscape:connector-curvature="0"
     id="path4659"
     d="m 2749.4033,33.55099 c 0.021,0.32429 0.021,0.64929 0.021,0.97429 0,9.9086 -7.5414,21.326 -21.325,21.326 -4.2464,0 -8.1914,-1.23 -11.51,-3.365 0.6036,0.0714 1.1836,0.0928 1.81,0.0928 3.5043,0 6.7293,-1.1836 9.305,-3.2021 -3.295,-0.0714 -6.0564,-2.2279 -7.0079,-5.1979 0.4643,0.0714 0.9286,0.11571 1.4157,0.11571 0.6729,0 1.3457,-0.0929 1.9721,-0.255 -3.4343,-0.69643 -6.01,-3.7129 -6.01,-7.3564 v -0.0929 c 0.9979,0.55714 2.1586,0.905 3.3879,0.95143 -2.0186,-1.3457 -3.3414,-3.6429 -3.3414,-6.2421 0,-1.3921 0.3714,-2.6686 1.0207,-3.7821 3.69,4.5479 9.2364,7.5186 15.455,7.8436 -0.1157,-0.55714 -0.1857,-1.1371 -0.1857,-1.7171 0,-4.1307 3.3414,-7.4957 7.4957,-7.4957 2.1579,0 4.1071,0.905 5.4757,2.3671 1.6943,-0.325 3.3186,-0.95143 4.7572,-1.81 -0.5564,1.74 -1.74,3.2021 -3.295,4.1307 1.5086,-0.16286 2.9707,-0.58071 4.3164,-1.1607 -1.0207,1.485 -2.2971,2.8079 -3.7593,3.8757 z" />
  <path
     style="fill:#213d44;stroke-width:0.071429"
     inkscape:connector-curvature="0"
     id="path4663"
     d="m 2812.4696,150.53917 c -0.4429,0.13572 -1.0929,0.25 -1.9929,0.32858 0.079,-4.05 2.1357,-6.9 6.2857,-7.8643 0.6643,2.9714 -1.8643,6.7214 -4.2928,7.5357 z m 8.6643,5.1929 c 0.4571,-0.67142 1.1857,-1.4214 2.1857,-2.26429 -1.5929,-1.9714 -3.4357,-3.1643 -6.0786,-3.1643 -2.5286,0 -4.6571,1.3 -6.2143,1.3 -1.3214,0 -3.7071,-1.15 -6.0357,-1.15 -4.9714,0 -7.6071,4.8643 -7.6071,9.9286 0,5.6286 4.2642,14.614 8.5857,14.614 1.7,0 3.2285,-1.2857 5.25,-1.2857 2.0928,0 3.7714,1.2286 5.7357,1.2286 3.2857,0 6.3286,-5.5357 7.2857,-8.55 -3.3429,-1.0214 -6.0286,-6.44281 -3.1071,-10.65701 z" />
  <path
     style="fill:#213d44"
     inkscape:connector-curvature="0"
     id="path4665"
     d="m 2740.5671,147.58365 c 0.7929,-0.79286 8.25,-5.5 9.9428,-3.8 1.6929,1.6928 -3.0071,9.15 -3.8,9.9428 -0.7928,0.79286 -2.8143,0.0643 -4.5071,-1.6357 -1.7,-1.6929 -2.4357,-3.7143 -1.6357,-4.5071 z m -13.843,-2.0072 c -2.5929,-1.4714 -6.2786,-3.1071 -7.45,-1.9286 -1.1857,1.1857 0.5071,4.9571 1.9929,7.55 1.3214,-2.3 3.2,-4.2357 5.4571,-5.6214 z m 21.2,7.5643 c 0.2357,0.80714 0.1929,1.4786 -0.1929,1.8643 -1.45,1.45 -6.25,-1.9286 -7.8071,-5.0071 -1.2857,-2.3071 -0.7928,-3.8143 1.0643,-3.4786 0.4072,-0.25714 0.8786,-0.54286 1.4,-0.82857 -2.1286,-1.1071 -4.5429,-1.7357 -7.1072,-1.7357 -8.5071,0 -15.4,6.8929 -15.4,15.4 0,8.5 6.8929,15.4 15.4,15.4 8.5072,0 15.4,-6.8928 15.4,-15.4 0,-2.7428 -0.7214,-5.3214 -1.9785,-7.5571 -0.2785,0.5 -0.5428,0.95 -0.7785,1.3429 z" />
  <path
     style="fill:#213d44"
     inkscape:connector-curvature="0"
     id="path4667"
     d="m 2758.375,88.406831 13.114,-1.8072 v 12.671 h -13.114 z m 0,23.185999 13.114,1.8071 v -12.514 h -13.114 z m 14.557,2 17.443,2.4071 v -15.114 h -17.443 z m 0,-27.185999 v 12.864 h 17.443 v -15.271 z" />
  <path
     style="fill:#213d44"
     inkscape:connector-curvature="0"
     id="path4671"
     d="m 2663.8363,34.9358 -3.0643,3.0643 -0.021,-6.1429 3.0857,3.0786 m -3.0857,15.7 3.0786,-3.0786 -3.0643,-3.0643 z m 11.9,-9.3929 c 0,14.686 -5.1357,18.043 -13.221,18.043 -8.0857,0 -14.207,-3.3571 -14.207,-18.043 0,-14.686 5.9571,-18.529 14.043,-18.529 8.0857,0 13.386,3.85 13.386,18.529 z m -11.321,0 5.6714,-6.3286 -8.9357,-9.5929 v 12.636 l -5.2714,-5.2714 -1.9286,1.9214 6.6214,6.6429 -6.6214,6.6429 1.9214,1.9214 5.2714,-5.2714 0.1643,12.143 9.1,-9.1071 z" />
  <path
     style="fill:#213d44;stroke-width:0.071429"
     d="m 3360.6598,161.34974 c -0.036,1.245 -1.0864,2.2214 -2.3321,2.2214 h -3.9529 v 1.1429 c 0,1.5621 -0.3485,3.0421 -0.9714,4.3679 l 4.3022,4.3021 c 0.8928,0.89214 0.8928,2.3393 0,3.2321 -0.8929,0.89286 -2.34,0.89286 -3.2322,0 l -3.91,-3.9093 c -1.7678,1.4336 -4.02,2.2928 -6.4743,2.2928 v -17.429 c 0,-0.47286 -0.3835,-0.85714 -0.8571,-0.85714 h -1.7143 c -0.4729,0 -0.8571,0.38428 -0.8571,0.85714 v 17.429 c -2.4536,0 -4.7058,-0.85928 -6.4736,-2.2928 l -3.91,3.9093 c -0.8929,0.89286 -2.34,0.89286 -3.2322,0 -0.8928,-0.89286 -0.8928,-2.34 0,-3.2321 l 4.3015,-4.3021 c -0.6222,-1.3257 -0.9715,-2.8057 -0.9715,-4.3679 v -1.1429 h -3.9521 c -1.245,0 -2.2979,-0.97643 -2.3321,-2.2214 -0.036,-1.2914 1.0007,-2.35 2.285,-2.35 h 3.9992 v -4.1957 l -3.33,-3.3307 c -0.8928,-0.89285 -0.8928,-2.34 0,-3.2321 0.8929,-0.89286 2.3393,-0.89286 3.2322,0 l 3.9021,3.9014 h 16.392 l 3.9021,-3.9014 c 0.8922,-0.89286 2.3393,-0.89286 3.2322,0 0.8928,0.89214 0.8928,2.3393 0,3.2321 l -3.3308,3.3307 v 4.1957 h 4 c 1.2843,0 2.3208,1.0586 2.285,2.35 z m -18.214,-20.636 c -4.4179,0 -8,3.5821 -8,8 h 16 c 0,-4.4179 -3.5815,-8 -8,-8 z"
     id="path4707"
     inkscape:connector-curvature="0" />
  <path
     style="fill:#213d44;stroke-width:0.071429"
     d="m 2944.5355,92.000081 v 20.570999 c 0,1.8929 -1.5357,3.4286 -3.4286,3.4286 h -29.714 c -1.8929,0 -3.4286,-1.5357 -3.4286,-3.4286 V 92.000081 c 0,-1.8928 1.5357,-3.4286 3.4286,-3.4286 h 6.2857 l 0.8785,-2.35 c 0.5,-1.3357 1.7786,-2.2214 3.2072,-2.2214 h 8.9643 c 1.4285,0 2.7071,0.88572 3.2071,2.2214 l 0.8857,2.35 h 6.2857 c 1.8929,0 3.4286,1.5357 3.4286,3.4286 z m -9.7143,10.285999 c 0,-4.728599 -3.8428,-8.571399 -8.5714,-8.571399 -4.7286,0 -8.5714,3.8429 -8.5714,8.571399 0,4.7285 3.8428,8.5714 8.5714,8.5714 4.7286,0 8.5714,-3.8429 8.5714,-8.5714 z m -2.2857,0 c 0,3.4643 -2.8214,6.2857 -6.2857,6.2857 -3.4643,0 -6.2857,-2.8214 -6.2857,-6.2857 0,-3.464299 2.8214,-6.285699 6.2857,-6.285699 3.4643,0 6.2857,2.8214 6.2857,6.285699 z"
     id="path4709"
     inkscape:connector-curvature="0" />
  <path
     style="fill:#213d44;stroke-width:0.071429"
     d="m 3435.741,50.14265 c 0.4714,0 0.8571,0.38572 0.8571,0.85715 v 2.8571 c 0,0.47143 -0.3857,0.85714 -0.8571,0.85714 h -34.857 c -0.4714,0 -0.8571,-0.38571 -0.8571,-0.85714 v -25.714 c 0,-0.47143 0.3857,-0.85714 0.8571,-0.85714 h 2.8572 c 0.4714,0 0.8571,0.38571 0.8571,0.85714 v 22 z m -9.0929,-16.036 -6.05,4.0357 -6.0928,-8.1214 c -0.3643,-0.48571 -1.1072,-0.45 -1.4215,0.07143 l -6.2,10.336 v 7.4286 h 27.429 l -6.4214,-13.414 c -0.2286,-0.46428 -0.8143,-0.62143 -1.2429,-0.33571 z"
     id="path4719"
     inkscape:connector-curvature="0" />
  <path
     style="fill:#213d44;stroke-width:0.071429"
     d="m 3207.9285,50.142655 c 0.4715,0 0.8572,0.38571 0.8572,0.85714 v 2.8571 c 0,0.47143 -0.3857,0.85715 -0.8572,0.85715 h -34.857 c -0.4714,0 -0.8571,-0.38572 -0.8571,-0.85715 v -25.714 c 0,-0.47143 0.3857,-0.85714 0.8571,-0.85714 h 2.8571 c 0.4715,0 0.8572,0.38571 0.8572,0.85714 v 22 z m -3.1428,-20.571 h -8 c -1.5286,0 -2.2929,1.85 -1.2143,2.9286 l 2.35,2.35 -5.1429,5.2071 -3.9714,-3.9714 c -0.3357,-0.33571 -0.8714,-0.33571 -1.2071,0 l -8.5,8.4143 c -0.3357,0.32857 -0.3429,0.87143 -0.014,1.2071 l 2.0357,2.1 c 0.3357,0.34286 0.8857,0.35 1.2214,0.0071 l 5.8643,-5.8643 3.9643,3.9643 c 0.3357,0.33572 0.8786,0.33572 1.2143,0 l 7.8,-7.8 2.3857,2.3857 c 1.0786,1.0786 2.9286,0.31428 2.9286,-1.2143 v -8 c 0,-0.95 -0.7643,-1.7143 -1.7143,-1.7143 z"
     id="path4721"
     inkscape:connector-curvature="0" />
  <path
     style="fill:#213d44;stroke-width:0.071429"
     inkscape:connector-curvature="0"
     id="path4745"
     d="m 2970.8735,28.653487 6.4429,6.4429 c 0.2714,0.27143 0.2714,0.71429 0,0.98571 l -15.6,15.6 -6.6286,0.73571 c -0.8857,0.1 -1.6357,-0.65 -1.5357,-1.5357 l 0.7357,-6.6286 15.6,-15.6 c 0.2714,-0.27143 0.7143,-0.27143 0.9857,0 z m 11.571,-1.6357 -3.4857,-3.4857 c -1.0857,-1.0857 -2.85,-1.0857 -3.9428,0 l -2.5286,2.5286 c -0.2714,0.27143 -0.2714,0.71428 0,0.98571 l 6.4429,6.4429 c 0.2714,0.27143 0.7142,0.27143 0.9857,0 l 2.5285,-2.5286 c 1.0858,-1.0929 1.0858,-2.8571 0,-3.9429 z m -12.9,20.421 v 7.2714 h -22.857 v -22.857 h 16.414 c 0.2286,0 0.4428,-0.09286 0.6071,-0.25 l 2.8572,-2.8571 c 0.5428,-0.54286 0.1571,-1.4643 -0.6072,-1.4643 h -20.414 c -1.8928,0 -3.4285,1.5357 -3.4285,3.4286 v 25.143 c 0,1.8929 1.5357,3.4286 3.4285,3.4286 h 25.143 c 1.8929,0 3.4286,-1.5357 3.4286,-3.4286 v -11.271 c 0,-0.76429 -0.9215,-1.1429 -1.4643,-0.60714 l -2.8572,2.8571 c -0.1571,0.16429 -0.25,0.37857 -0.25,0.60714 z" />
  <path
     style="fill:#213d44"
     inkscape:connector-curvature="0"
     id="path4747"
     d="m 2670.9868,168.14244 v 4.5714 c 0,1.2628 -1.0229,2.2857 -2.2857,2.2857 h -27.429 c -1.2621,0 -2.2857,-1.0229 -2.2857,-2.2857 v -4.5714 c 0,-1.2622 1.0236,-2.2857 2.2857,-2.2857 h 27.429 c 1.2629,0 2.2857,1.0236 2.2857,2.2857 z m -28.567,-4.5714 h 25.134 c 2.975,0 4.5414,-3.5479 2.5279,-5.745 l -12.567,-13.715 c -1.3586,-1.4814 -3.6964,-1.4814 -5.055,0 l -12.568,13.715 c -2.01,2.1929 -0.4529,5.745 2.5278,5.745 z" />
  <path
     style="fill:#213d44"
     inkscape:connector-curvature="0"
     id="path4749"
     d="m 2711.7668,101.28167 c 1.3389,-1.338599 1.3389,-3.510004 0,-4.848604 l -11.429,-11.429 c -1.3389,-1.3393 -3.5097,-1.3393 -4.849,0 l -18.286,18.286004 c -1.3386,1.3386 -1.3386,3.51 0,4.8486 l 6.8571,6.8572 a 3.4289,3.4289 0 0 0 2.4243,1.0043 h 25.429 c 0.4733,0 0.8571,-0.38357 0.8571,-0.85714 v -2.8571 c 0,-0.47357 -0.3838,-0.85715 -0.8571,-0.85715 h -10.294 z m -21.616,-4.473604 9.8123,9.812904 -4.808,4.8078 h -8.1964 l -5.7143,-5.7143 z" />
  <path
     style="fill:#213d44;stroke-width:0.071429"
     inkscape:connector-curvature="0"
     id="path4751"
     d="m 3128.2769,31.4241 v 0.43286 h -9.1428 v -9.1428 h 0.4328 c 0.455,0 0.8908,0.18071 1.2122,0.50214 l 6.9964,6.9957 a 1.7146,1.7146 0 0 1 0.5014,1.2121 z m -9.7142,2.7186 c -0.9429,0 -1.7143,-0.77143 -1.7143,-1.7143 v -9.7143 h -14.286 c -0.9465,0 -1.7143,0.76786 -1.7143,1.7143 v 33.143 c 0,0.94714 0.7678,1.7143 1.7143,1.7143 h 24 c 0.9471,0 1.7142,-0.76714 1.7142,-1.7143 v -23.429 z m -8.9136,17.179 a 0.38571,0.38571 0 0 1 -0.545,0.0143 l -4.6336,-4.3436 a 0.38571,0.38571 0 0 1 0,-0.56286 l 4.6336,-4.3436 a 0.38571,0.38571 0 0 1 0.545,0.01429 l 1.3986,1.4921 a 0.38571,0.38571 0 0 1 -0.029,0.55357 l -2.9122,2.5621 2.9122,2.5621 a 0.38571,0.38571 0 0 1 0.029,0.55356 z m 3.6643,3.6057 -1.9615,-0.56928 a 0.38586,0.38586 0 0 1 -0.2628,-0.47786 l 4.3886,-15.116 a 0.38586,0.38586 0 0 1 0.4778,-0.26286 l 1.9614,0.56929 a 0.38571,0.38571 0 0 1 0.2629,0.47786 l -4.3886,15.116 a 0.3855,0.3855 0 0 1 -0.4778,0.26285 z m 11.485,-7.9321 -4.6336,4.3436 a 0.38571,0.38571 0 0 1 -0.545,-0.0143 l -1.3986,-1.4914 a 0.38571,0.38571 0 0 1 0.029,-0.55357 l 2.9114,-2.5621 -2.9114,-2.5629 a 0.38571,0.38571 0 0 1 -0.029,-0.55357 l 1.3986,-1.4914 a 0.38571,0.38571 0 0 1 0.545,-0.01429 l 4.6336,4.3436 a 0.38571,0.38571 0 0 1 0,0.56286 z" />
  <path
     style="fill:#213d44;stroke-width:0.071429"
     d="m 2900.465,145.28559 v 18.286 h -27.429 v -18.286 h 27.429 m 1.1428,-4.5714 h -29.714 c -1.8929,0 -3.4286,1.5357 -3.4286,3.4286 v 20.571 c 0,1.8929 1.5357,3.4286 3.4286,3.4286 h 29.714 c 1.8929,0 3.4286,-1.5357 3.4286,-3.4286 v -20.571 c 0,-1.8929 -1.5357,-3.4286 -3.4286,-3.4286 z m 7.1429,29.714 h -17.036 c -0.2143,0 -0.3929,0.15 -0.4214,0.36429 -0.1715,1.0857 -1.1143,1.9214 -2.2572,1.9214 h -4.5714 c -1.1429,0 -2.0857,-0.83571 -2.2572,-1.9214 -0.036,-0.20715 -0.2142,-0.36429 -0.4214,-0.36429 h -17.036 c -0.4714,0 -0.8571,0.38571 -0.8571,0.85714 v 2.5714 c 0,1.8929 1.5357,3.4286 3.4285,3.4286 h 38.857 c 1.8928,0 3.4285,-1.5357 3.4285,-3.4286 v -2.5714 c 0,-0.47143 -0.3857,-0.85714 -0.8571,-0.85714 z"
     id="path4765"
     inkscape:connector-curvature="0" />
  <path
     style="fill:#213d44;stroke-width:0.071429"
     d="m 3223.4321,92.289231 h -10.864 c -0.4714,0 -0.8571,-0.38571 -0.8571,-0.85714 v -5.7143 c 0,-1.4214 1.15,-2.5714 2.5714,-2.5714 h 7.4286 c 1.4214,0 2.5714,1.15 2.5714,2.5714 v 5.7143 c 0.01,0.47143 -0.3786,0.85714 -0.85,0.85714 z m 24.857,-0.85714 v -5.7214 c 0,-1.4214 -1.15,-2.5714 -2.5715,-2.5714 h -7.4285 c -1.4215,0 -2.5715,1.15 -2.5715,2.5714 v 5.7143 c 0,0.47143 0.3857,0.85714 0.8572,0.85714 h 10.857 c 0.4714,0.007 0.8572,-0.37857 0.8572,-0.85 z m -11.714,3.1429 c -0.4715,0 -0.8572,0.38571 -0.8572,0.85714 v 3.7143 c 0,9.149999 -11.428,9.135699 -11.428,0 v -3.7143 c 0,-0.47143 -0.3858,-0.85714 -0.8572,-0.85714 h -10.857 c -0.4786,0 -0.8572,0.38571 -0.8572,0.86428 0.01,1.5286 0.043,2.8786 0,3.8072 0,10.756999 9.7286,17.613999 18.343,17.613999 8.6144,0 18.221,-6.8571 18.221,-17.620999 -0.043,-0.91428 -0.014,-2.3571 0,-3.8 0,-0.47857 -0.3786,-0.86428 -0.8571,-0.86428 z"
     id="path4767"
     inkscape:connector-curvature="0" />
  <path
     style="fill:#213d44;stroke-width:0.071429"
     d="m 3353.8039,26.1429 v 29.714 c 0,1.8936 -1.535,3.4286 -3.4286,3.4286 h -16 c -1.8936,0 -3.4286,-1.535 -3.4286,-3.4286 v -29.714 c 0,-1.8936 1.535,-3.4286 3.4286,-3.4286 h 16 c 1.8936,0 3.4286,1.535 3.4286,3.4286 z m 6.8571,4.1429 v 0.85714 a 0.42857,0.42857 0 0 1 -0.4286,0.42857 h -1.2857 v 0.42857 a 0.42857,0.42857 0 0 1 -0.4285,0.42857 h -3 v -3.4286 h 3 a 0.42857,0.42857 0 0 1 0.4285,0.42857 v 0.42857 h 1.2857 a 0.42857,0.42857 0 0 1 0.4286,0.42857 z m 0,6.8571 v 0.85714 a 0.42857,0.42857 0 0 1 -0.4286,0.42857 h -1.2857 v 0.42857 a 0.42857,0.42857 0 0 1 -0.4285,0.42857 h -3 v -3.4286 h 3 a 0.42857,0.42857 0 0 1 0.4285,0.42857 v 0.42857 h 1.2857 a 0.42857,0.42857 0 0 1 0.4286,0.42857 z m 0,6.8571 v 0.85714 a 0.42857,0.42857 0 0 1 -0.4286,0.42857 h -1.2857 v 0.42857 a 0.42857,0.42857 0 0 1 -0.4285,0.42857 h -3 v -3.4286 h 3 a 0.42857,0.42857 0 0 1 0.4285,0.42857 v 0.42857 h 1.2857 a 0.42857,0.42857 0 0 1 0.4286,0.42857 z m 0,6.8571 v 0.85714 a 0.42857,0.42857 0 0 1 -0.4286,0.42857 h -1.2857 v 0.42857 a 0.42857,0.42857 0 0 1 -0.4285,0.42857 h -3 v -3.4286 h 3 a 0.42857,0.42857 0 0 1 0.4285,0.42857 v 0.42858 h 1.2857 a 0.42857,0.42857 0 0 1 0.4286,0.42857 z m -34.429,-1.2857 h 3 V 53 h -3 a 0.42857,0.42857 0 0 1 -0.4285,-0.42857 v -0.42857 h -1.2857 a 0.42857,0.42857 0 0 1 -0.4286,-0.42857 v -0.85714 a 0.42857,0.42857 0 0 1 0.4286,-0.42857 h 1.2857 V 50 a 0.42857,0.42857 0 0 1 0.4285,-0.42857 z m 0,-6.8571 h 3 v 3.4286 h -3 a 0.42857,0.42857 0 0 1 -0.4285,-0.42857 v -0.42857 h -1.2857 a 0.42857,0.42857 0 0 1 -0.4286,-0.42857 v -0.85714 a 0.42857,0.42857 0 0 1 0.4286,-0.42857 h 1.2857 v -0.42857 a 0.42857,0.42857 0 0 1 0.4285,-0.42857 z m 0,-6.8571 h 3 v 3.4286 h -3 a 0.42857,0.42857 0 0 1 -0.4285,-0.42857 v -0.42857 h -1.2857 a 0.42857,0.42857 0 0 1 -0.4286,-0.42857 v -0.85714 a 0.42857,0.42857 0 0 1 0.4286,-0.42857 h 1.2857 v -0.42857 a 0.42857,0.42857 0 0 1 0.4285,-0.42857 z m 0,-6.8571 h 3 v 3.4286 h -3 a 0.42857,0.42857 0 0 1 -0.4285,-0.42857 v -0.42857 h -1.2857 a 0.42857,0.42857 0 0 1 -0.4286,-0.42857 v -0.85714 a 0.42857,0.42857 0 0 1 0.4286,-0.42857 h 1.2857 v -0.42857 a 0.42857,0.42857 0 0 1 0.4285,-0.42857 z"
     id="path4769"
     inkscape:connector-curvature="0" />
  <path
     style="fill:#213d44;stroke-width:0.071429"
     inkscape:connector-curvature="0"
     id="path4775"
     d="m 3285.2949,145.28525 h -33.143 c -0.9471,0 -1.7143,0.76786 -1.7143,1.7143 v 0.57143 h -2.8571 c -0.9472,0 -1.7143,0.76785 -1.7143,1.7143 v 19.429 c 0,2.2093 1.7907,4 4,4 h 33.714 c 1.8936,0 3.4286,-1.535 3.4286,-3.4286 v -22.286 c 0,-0.94643 -0.7679,-1.7143 -1.7143,-1.7143 z m -35.429,24 a 0.57143,0.57143 0 0 1 -0.5714,-0.57143 v -17.714 h 1.1428 v 17.714 a 0.57143,0.57143 0 0 1 -0.5714,0.57143 z m 16.857,-1.1429 h -10.857 c -0.4736,0 -0.8571,-0.38357 -0.8571,-0.85714 v -0.57143 c 0,-0.47357 0.3835,-0.85714 0.8571,-0.85714 h 10.857 c 0.4729,0 0.8572,0.38357 0.8572,0.85714 v 0.57143 c 0,0.47357 -0.3843,0.85714 -0.8572,0.85714 z m 14.857,0 h -10.857 c -0.4735,0 -0.8571,-0.38357 -0.8571,-0.85714 v -0.57143 c 0,-0.47357 0.3836,-0.85714 0.8571,-0.85714 h 10.857 c 0.4728,0 0.8571,0.38357 0.8571,0.85714 v 0.57143 c 0,0.47357 -0.3843,0.85714 -0.8571,0.85714 z m -14.857,-6.8571 h -10.857 c -0.4736,0 -0.8571,-0.38357 -0.8571,-0.85715 v -0.57146 c 0,-0.47357 0.3835,-0.85714 0.8571,-0.85714 h 10.857 c 0.4729,0 0.8572,0.38357 0.8572,0.85714 v 0.57146 c 0,0.47358 -0.3843,0.85715 -0.8572,0.85715 z m 14.857,0 h -10.857 c -0.4735,0 -0.8571,-0.38357 -0.8571,-0.85715 v -0.57146 c 0,-0.47357 0.3836,-0.85714 0.8571,-0.85714 h 10.857 c 0.4728,0 0.8571,0.38357 0.8571,0.85714 v 0.57146 c 0,0.47358 -0.3843,0.85715 -0.8571,0.85715 z m 0,-6.8572 h -25.714 c -0.4736,0 -0.8571,-0.38357 -0.8571,-0.85714 v -2.8572 c 0,-0.47357 0.3835,-0.85714 0.8571,-0.85714 h 25.714 c 0.4728,0 0.8571,0.38357 0.8571,0.85714 v 2.8572 c 0,0.47357 -0.3843,0.85714 -0.8571,0.85714 z" />
  <path
     style="fill:#213d44;stroke-width:0.071429"
     d="m 2891.3216,33 v -8 c 0,-1.2629 1.0236,-2.2857 2.2857,-2.2857 1.2629,0 2.2858,1.0229 2.2858,2.2857 v 8 z m 8,1.1429 h -25.143 c -0.6307,0 -1.1429,0.51143 -1.1429,1.1429 v 2.2857 c 0,0.63071 0.5122,1.1429 1.1429,1.1429 h 1.1428 v 2.2857 c 0,5.5286 3.9265,10.141 9.1429,11.199 v 7.0864 h 4.5714 v -7.0864 c 5.2172,-1.0586 9.1429,-5.6707 9.1429,-11.199 v -2.2857 h 1.1428 c 0.6315,0 1.1429,-0.51214 1.1429,-1.1429 v -2.2857 c 0,-0.63143 -0.5114,-1.1429 -1.1429,-1.1429 z M 2882.1786,33 v -8 c 0,-1.2629 -1.0229,-2.2857 -2.2857,-2.2857 -1.2622,0 -2.2858,1.0229 -2.2858,2.2857 v 8 z"
     id="path4781"
     inkscape:connector-curvature="0" />
  <path
     style="fill:#213d44;stroke-width:0.071429"
     d="m 3392.161,85.86451 c 4.5,3.2143 7.4286,8.4714 7.4286,14.421 0,9.7714 -7.9143,17.693 -17.679,17.714 -9.75,0.0214 -17.736,-7.9286 -17.75,-17.686 -0.01,-5.95 2.9214,-11.221 7.4143,-14.443 0.8357,-0.59285 2,-0.34285 2.5,0.55 l 1.1286,2.0072 c 0.4214,0.75 0.2214,1.7 -0.4715,2.2143 -2.9642,2.2 -4.8571,5.6857 -4.8571,9.6357 -0.01,6.5928 5.3214,12.007 12,12.007 6.5429,0 12.043,-5.3 12,-12.079 -0.021,-3.7 -1.7643,-7.2714 -4.8643,-9.5714 -0.6928,-0.51429 -0.8857,-1.4643 -0.4643,-2.2071 l 1.1286,-2.0072 c 0.5,-0.88571 1.6571,-1.15 2.4857,-0.55714 z m -7.4286,14.993 v -17.143 c 0,-0.95 -0.7642,-1.7143 -1.7142,-1.7143 h -2.2858 c -0.95,0 -1.7142,0.76428 -1.7142,1.7143 v 17.143 c 0,0.95 0.7642,1.7143 1.7142,1.7143 h 2.2858 c 0.95,0 1.7142,-0.76428 1.7142,-1.7143 z"
     id="path4783"
     inkscape:connector-curvature="0" />
  <path
     style="fill:#213d44;stroke-width:0.071429"
     d="m 3472.6692,95.428361 h -1.1428 v -7.8614 a 1.7143,1.7143 0 0 0 -0.5021,-1.2121 l -4.1387,-4.1386 a 1.7143,1.7143 0 0 0 -1.2121,-0.50215 h -19.861 c -0.9468,0 -1.7143,0.76786 -1.7143,1.7143 v 12 h -1.1428 c -1.8936,0 -3.4286,1.535 -3.4286,3.4286 v 9.428599 c 0,0.47357 0.3838,0.85714 0.8571,0.85714 h 3.7143 v 7.4286 c 0,0.94714 0.7675,1.7143 1.7143,1.7143 h 24 c 0.9468,0 1.7143,-0.76714 1.7143,-1.7143 v -7.4286 h 3.7143 c 0.4733,0 0.8571,-0.38357 0.8571,-0.85714 v -9.428599 c 0,-1.8936 -1.535,-3.4286 -3.4286,-3.4286 z m -5.7142,18.285999 h -18.286 v -6.8571 h 18.286 z m -18.286,-15.999999 v -11.429 h 13.714 v 2.8571 c 0,0.94286 0.7715,1.7143 1.7143,1.7143 h 2.8572 v 6.8571 z m 21.714,5.142899 c -0.9467,0 -1.7143,-0.76714 -1.7143,-1.7143 0,-0.94642 0.7676,-1.714299 1.7143,-1.714299 0.9467,0 1.7143,0.767859 1.7143,1.714299 0,0.94715 -0.7676,1.7143 -1.7143,1.7143 z"
     id="path4785"
     inkscape:connector-curvature="0" />
  <path
     style="fill:#213d44;stroke-width:1"
     inkscape:connector-curvature="0"
     id="path4789"
     d="m 2046.2385,143.00006 h -3.0081 c -0.4348,0 -0.7813,0.36376 -0.7605,0.79834 l 0.2516,5.2546 c -2.8861,-3.3926 -7.1843,-5.545 -11.9858,-5.545 -8.6709,0 -15.7417,7.081 -15.7357,15.758 0.01,8.6908 7.0489,15.734 15.7357,15.734 4.056,0 7.7537,-1.5357 10.5438,-4.0576 0.3244,-0.29324 0.3397,-0.79752 0.031,-1.1069 l -2.1555,-2.1569 c -0.2833,-0.28354 -0.7384,-0.29947 -1.0392,-0.0345 -1.967,1.7335 -4.5496,2.7844 -7.3797,2.7844 -6.1715,0 -11.1668,-4.9978 -11.1668,-11.175 0,-6.1757 4.9944,-11.175 11.1668,-11.175 3.8635,0 7.2653,1.9592 9.2698,4.9396 l -6.4417,-0.30891 c -0.4342,-0.021 -0.7977,0.32594 -0.7977,0.76109 v 3.0102 c 0,0.42079 0.3409,0.76195 0.7613,0.76195 h 12.7108 c 0.4205,0 0.7614,-0.34116 0.7614,-0.76195 v -12.719 c 0,-0.42075 -0.3409,-0.76195 -0.7614,-0.76195 z" />
  <path
     style="fill:#213d44;stroke-width:0.071429"
     inkscape:connector-curvature="0"
     id="path4791"
     d="m 3136.6805,165.25717 -7.1918,7.1914 c -0.6695,0.67 -1.7549,0.67 -2.4244,0 l -7.1919,-7.1914 c -0.6695,-0.66928 -0.6695,-1.755 0,-2.4243 l 0.773,-0.77358 c 0.683,-0.68285 1.7953,-0.66714 2.4585,0.0357 l 2.8868,3.0564 v -13.009 h -13.396 a 1.7146,1.7146 0 0 1 -1.2122,-0.50215 l -1.1429,-1.1428 c -1.0799,-1.08 -0.3151,-2.9264 1.2122,-2.9264 h 17.396 c 0.9468,0 1.7143,0.76785 1.7143,1.7143 v 15.866 l 2.8868,-3.0564 c 0.6632,-0.70214 1.7754,-0.71857 2.4585,-0.0357 l 0.7731,0.77358 c 0.6694,0.66928 0.6694,1.755 0,2.4243 z m -18.938,1.1021 a 1.7142,1.7142 0 0 0 -1.2122,-0.50214 h -13.396 v -13.009 l 2.8868,3.0564 c 0.6633,0.70214 1.7755,0.71857 2.4585,0.0357 l 0.773,-0.77357 c 0.6695,-0.66928 0.6695,-1.755 0,-2.4243 l -7.1918,-7.1914 c -0.6695,-0.67 -1.7549,-0.67 -2.4244,0 l -7.1919,7.1914 c -0.6695,0.67 -0.6695,1.755 0,2.4243 l 0.773,0.77357 c 0.683,0.68286 1.7952,0.66715 2.4585,-0.0357 l 2.8869,-3.0564 v 15.866 c 0,0.94643 0.7675,1.7143 1.7142,1.7143 h 17.396 c 1.5273,0 2.2921,-1.8464 1.2122,-2.9264 z" />
  <path
     style="fill:#213d44;stroke-width:0.071429"
     inkscape:connector-curvature="0"
     id="path4793"
     d="m 3056.4196,24.07754 c -0.093,-0.43571 -0.4357,-0.77857 -0.8714,-0.87143 -2.3,-0.49286 -4.1,-0.49286 -5.8929,-0.49286 -7.3714,0 -11.793,3.9429 -15.093,9.1429 h -7.4429 c -1.3,0 -2.4857,0.73571 -3.0643,1.8929 l -3.5285,7.0571 c -0.5715,1.1429 0.2571,2.4786 1.5357,2.4786 h 6.7928 c -0.4214,0.91429 -0.85,1.8214 -1.2857,2.6929 -0.2214,0.44286 -0.1357,0.97143 0.2143,1.3214 l 4.5429,4.5429 c 0.35,0.35 0.8785,0.43571 1.3214,0.21429 0.8714,-0.43572 1.7786,-0.85715 2.6929,-1.2786 v 6.7929 c 0,1.2714 1.3428,2.1 2.4785,1.5357 l 7.05,-3.5286 c 1.1643,-0.57857 1.8929,-1.7714 1.8929,-3.0643 v -7.4571 c 5.1857,-3.3071 9.1428,-7.7429 9.1428,-15.079 0.01,-1.8 0.01,-3.6 -0.4857,-5.9 z m -7.5071,10.064 c -1.8929,0 -3.4286,-1.5357 -3.4286,-3.4286 0,-1.8929 1.5357,-3.4286 3.4286,-3.4286 1.8928,0 3.4285,1.5357 3.4285,3.4286 0,1.8929 -1.5357,3.4286 -3.4285,3.4286 z" />
  <path
     style="fill:#213d44;stroke-width:0.071428"
     inkscape:connector-curvature="0"
     id="path4795"
     d="m 2024.1485,52.4251 c 0,2.5264 -2.048,4.5744 -4.5743,4.5744 -2.5263,0 -4.5742,-2.048 -4.5742,-4.5744 0,-2.5264 2.0479,-4.5743 4.5743,-4.5743 2.5262,0 4.5742,2.048 4.5742,4.5743 z m 12.5466,3.375 c -0.5967,-11.043 -9.4415,-19.899 -20.4954,-20.496 -0.6525,-0.0352 -1.1994,0.489 -1.1994,1.1424 V 39.88 c 0,0.60106 0.4636,1.1051 1.0634,1.1442 7.9878,0.52028 14.3906,6.9073 14.9116,14.912 0.039,0.59978 0.5431,1.0633 1.144,1.0633 h 3.4335 c 0.6534,7e-5 1.1777,-0.54679 1.1424,-1.1993 z m 10.3038,0.0206 c -0.5996,-16.701 -14.0377,-30.218 -30.8192,-30.82 -0.645,-0.0231 -1.1788,0.49792 -1.1788,1.1433 v 3.4334 c 0,0.61606 0.4882,1.1175 1.1038,1.1428 13.6556,0.5599 24.6153,11.523 25.1753,25.176 0.025,0.61556 0.5266,1.1038 1.1428,1.1038 h 3.4332 c 0.6454,-7e-5 1.1665,-0.53386 1.1433,-1.1788 z" />
  <path
     style="fill:#213d44;stroke-width:0.071429"
     inkscape:connector-curvature="0"
     id="path4797"
     d="m 3812.9955,31.9956 -5.9916,-5.9916 a 3.4286,3.4286 0 0 0 -2.4243,-1.0042 h -19.151 c -1.8936,0 -3.4286,1.535 -3.4286,3.4286 v 25.143 c 0,1.8936 1.535,3.4286 3.4286,3.4286 h 25.143 c 1.8936,0 3.4286,-1.535 3.4286,-3.4286 v -19.151 a 3.4286,3.4286 0 0 0 -1.0042,-2.4244 z m -14.996,20.433 c -2.5247,0 -4.5714,-2.0467 -4.5714,-4.5714 0,-2.5247 2.0467,-4.5714 4.5714,-4.5714 2.5247,0 4.5714,2.0467 4.5714,4.5714 0,2.5247 -2.0467,4.5714 -4.5714,4.5714 z m 6.8571,-21.751 v 7.18 c 0,0.47335 -0.3837,0.85714 -0.8571,0.85714 h -16.571 c -0.4734,0 -0.8572,-0.38379 -0.8572,-0.85714 V 30.429 c 0,-0.47335 0.3838,-0.85714 0.8572,-0.85714 h 16.323 c 0.2274,0 0.4454,0.0903 0.6061,0.25107 l 0.2486,0.24857 a 0.85686,0.85686 0 0 1 0.251,0.60608 z" />
  <path
     style="fill:#213d44;stroke-width:0.071429"
     d="m 3019.3301,90.857031 c 0,15.805999 -9.7096,24.616999 -15.824,27.164999 a 3.4286,3.4286 0 0 1 -2.6373,0 c -7.6459,-3.1857 -15.824,-12.987 -15.824,-27.164999 a 3.4286,3.4286 0 0 1 2.11,-3.165 l 13.714,-5.7143 a 3.4286,3.4286 0 0 1 2.6373,0 l 13.714,5.7143 a 3.4286,3.4286 0 0 1 2.1099,3.165 z m -17.143,22.735999 h 0.01 c 6.6954,-3.335 12.321,-11.165 12.558,-21.980999 l -12.563,-5.2343 z"
     id="path4801"
     inkscape:connector-curvature="0" />
  <path
     style="fill:#213d44;stroke-width:0.071429"
     d="m 3133.7768,109.14286 h 4 c 0.4715,0 0.8572,0.38571 0.8572,0.85714 v 7.4286 c 0,0.47143 -0.3857,0.85715 -0.8572,0.85715 h -4 c -0.4714,0 -0.8571,-0.38572 -0.8571,-0.85715 V 110 c 0,-0.47143 0.3857,-0.85714 0.8571,-0.85714 z m 8.2858,-2.5714 v 10.857 c 0,0.47143 0.3857,0.85715 0.8571,0.85715 h 4 c 0.4714,0 0.8571,-0.38572 0.8571,-0.85715 v -10.857 c 0,-0.47143 -0.3857,-0.85714 -0.8571,-0.85714 h -4 c -0.4714,0 -0.8571,0.38571 -0.8571,0.85714 z m 9.1428,-5.7143 v 16.571 c 0,0.47143 0.3857,0.85715 0.8572,0.85715 h 4 c 0.4714,0 0.8571,-0.38572 0.8571,-0.85715 v -16.571 c 0,-0.47143 -0.3857,-0.85715 -0.8571,-0.85715 h -4 c -0.4715,0 -0.8572,0.38572 -0.8572,0.85715 z m 9.1429,-8.000004 v 24.571004 c 0,0.47143 0.3857,0.85715 0.8571,0.85715 h 4 c 0.4714,0 0.8572,-0.38572 0.8572,-0.85715 V 92.857156 c 0,-0.47143 -0.3858,-0.85715 -0.8572,-0.85715 h -4 c -0.4714,0 -0.8571,0.38572 -0.8571,0.85715 z m 9.1428,-10.286 v 34.857004 c 0,0.47143 0.3857,0.85715 0.8572,0.85715 h 4 c 0.4714,0 0.8571,-0.38572 0.8571,-0.85715 V 82.571156 c 0,-0.47143 -0.3857,-0.85714 -0.8571,-0.85714 h -4 c -0.4715,0 -0.8572,0.38571 -0.8572,0.85714 z"
     id="path4803"
     inkscape:connector-curvature="0" />
  <path
     style="fill:#213d44;stroke-width:0.071429"
     d="m 3439.4555,163.57121 h -3.4286 v -3.4286 c 0,-1.57499 -1.2817,-2.8571 -2.8572,-2.8571 h -13.143 v -2.8572 h 3.4285 c 0.9468,0 1.7143,-0.76714 1.7143,-1.7143 v -10.286 c 0,-0.94643 -0.7675,-1.7143 -1.7143,-1.7143 h -10.286 c -0.9467,0 -1.7142,0.76785 -1.7142,1.7143 v 10.286 c 0,0.94714 0.7675,1.7143 1.7142,1.7143 h 3.4287 v 2.8572 h -13.143 c -1.5754,0 -2.8572,1.28211 -2.8572,2.8571 v 3.4286 h -3.4285 c -0.9468,0 -1.7143,0.76786 -1.7143,1.7143 v 10.286 c 0,0.94714 0.7675,1.71431 1.7143,1.71431 h 10.286 c 0.9467,0 1.7142,-0.76715 1.7142,-1.71431 v -10.286 c 0,-0.94643 -0.7675,-1.7143 -1.7142,-1.7143 h -3.4286 v -2.8571 h 12.572 v 2.8571 h -3.4287 c -0.9467,0 -1.7142,0.76786 -1.7142,1.7143 v 10.286 c 0,0.94714 0.7675,1.71431 1.7142,1.71431 h 10.286 c 0.9468,0 1.7143,-0.76715 1.7143,-1.71431 v -10.286 c 0,-0.94643 -0.7675,-1.7143 -1.7143,-1.7143 h -3.4285 v -2.8571 h 12.571 v 2.8571 h -3.4285 c -0.9468,0 -1.7143,0.76786 -1.7143,1.7143 v 10.286 c 0,0.94714 0.7675,1.71431 1.7143,1.71431 h 10.286 c 0.9467,0 1.7142,-0.76715 1.7142,-1.71431 v -10.286 c 0,-0.94643 -0.7675,-1.7143 -1.7142,-1.7143 z"
     id="path4805"
     inkscape:connector-curvature="0" />
  <path
     style="fill:#213d44"
     inkscape:connector-curvature="0"
     id="path4811"
     d="m 1997.7855,104.57123 h 9.7143 V 85.714228 c 0,-0.95 -0.7643,-1.7143 -1.7143,-1.7143 h -28.571 c -0.95,0 -1.7143,0.76428 -1.7143,1.7143 v 28.571002 c 0,0.95 0.7643,1.7143 1.7143,1.7143 h 18.857 v -9.7143 c 0,-0.94286 0.7714,-1.7143 1.7143,-1.7143 z m 9.2143,3.9286 -7,7 c -0.3214,0.32143 -0.7571,0.5 -1.2143,0.5 h -0.4286 v -9.1429 h 9.1429 v 0.43572 c 0,0.45 -0.1786,0.88571 -0.5,1.2071 z" />
  <path
     style="fill:#213d44;stroke-width:0.071429"
     d="m 3172.2145,158.72283 v -14.58 c 0,-1.8936 1.535,-3.4286 3.4286,-3.4286 h 14.58 a 3.4286,3.4286 0 0 1 2.4243,1.0043 l 15.134,15.134 c 1.339,1.3393 1.339,3.51 0,4.8493 l -14.58,14.579 c -1.3388,1.3393 -3.5098,1.3393 -4.8486,0 l -15.134,-15.134 a 3.4286,3.4286 0 0 1 -1.0042,-2.4243 z m 8,-13.437 c -1.8935,0 -3.4285,1.535 -3.4285,3.4286 0,1.8936 1.535,3.4286 3.4285,3.4286 1.8935,0 3.4285,-1.535 3.4285,-3.4286 0,-1.8936 -1.535,-3.4286 -3.4285,-3.4286 z"
     id="path4813"
     inkscape:connector-curvature="0" />
  <path
     style="fill:#213d44;stroke-width:0.071429"
     d="m 2958.2576,160.00979 -13.882,13.882 c -0.6695,0.66928 -1.7549,0.66928 -2.4244,0 l -1.6191,-1.6193 c -0.6684,-0.66857 -0.6697,-1.7514 0,-2.4214 l 11.002,-11.054 -11.002,-11.053 c -0.6668,-0.67 -0.6655,-1.7536 0.01,-2.4214 l 1.6191,-1.6193 c 0.6695,-0.66928 1.7549,-0.66928 2.4243,0 l 13.882,13.881 c 0.6695,0.66929 0.6695,1.755 0,2.4243 z m 27.287,13.074 v -2.28569 c 0,-0.94643 -0.7675,-1.71431 -1.7143,-1.71431 h -21.714 c -0.9468,0 -1.7143,0.76786 -1.7143,1.71431 v 2.28569 c 0,0.94714 0.7675,1.71431 1.7143,1.71431 h 21.714 c 0.9468,0 1.7143,-0.76715 1.7143,-1.71431 z"
     id="path4815"
     inkscape:connector-curvature="0" />
  <path
     style="fill:#213d44;stroke-width:0.071429"
     d="m 3080.9828,109.13984 h -5.7143 c -0.95,0 -1.7143,-0.76429 -1.7143,-1.7143 V 95.425537 h -6.2643 c -1.2714,0 -1.9071,-1.5357 -1.0071,-2.4357 l 10.864,-10.871 c 0.5357,-0.53571 1.4143,-0.53571 1.95,0 l 10.871,10.871 c 0.9,0.9 0.2643,2.4357 -1.0072,2.4357 h -6.2642 v 12.000003 c 0,0.95 -0.7643,1.7143 -1.7143,1.7143 z m 15.428,-0.57143 v 8 c 0,0.95 -0.7642,1.7143 -1.7142,1.7143 h -33.143 c -0.95,0 -1.7143,-0.76429 -1.7143,-1.7143 v -8 c 0,-0.95 0.7643,-1.7143 1.7143,-1.7143 h 9.7143 v 0.57143 c 0,2.2072 1.7929,4 4,4 h 5.7143 c 2.2072,0 4,-1.7928 4,-4 v -0.57143 h 9.7143 c 0.95,0 1.7142,0.76429 1.7142,1.7143 z m -8.8571,6.2857 c 0,-0.78571 -0.6429,-1.4286 -1.4286,-1.4286 -0.7857,0 -1.4285,0.64286 -1.4285,1.4286 0,0.78572 0.6428,1.4286 1.4285,1.4286 0.7857,0 1.4286,-0.64286 1.4286,-1.4286 z m 4.5714,0 c 0,-0.78571 -0.6428,-1.4286 -1.4285,-1.4286 -0.7858,0 -1.4286,0.64286 -1.4286,1.4286 0,0.78572 0.6428,1.4286 1.4286,1.4286 0.7857,0 1.4285,-0.64286 1.4285,-1.4286 z"
     id="path4819"
     inkscape:connector-curvature="0" />
  <path
     style="fill:#213d44;stroke-width:0.071429"
     d="m 2567,40.99998 c 0,-8.83694 7.1635,-16 16,-16 8.8367,0 16,7.16333 16,16 0,8.83667 -7.1635,16 -16,16 -8.8367,0 -16,-7.16333 -16,-16 z m 4.6745,8.12076 c 2.5293,3.52138 6.6593,5.81497 11.3258,5.81497 4.6664,0 8.7964,-2.29359 11.3257,-5.81497 -0.2027,-1.74126 -1.4624,-3.20325 -3.1961,-3.6368 l -2.0887,-0.52194 c -1.6818,1.44392 -3.8007,2.23163 -6.0409,2.23163 -2.2402,0 -4.3591,-0.78775 -6.041,-2.23163 l -2.0887,0.52194 c -1.7335,0.43355 -2.9933,1.89554 -3.196,3.6368 z m 4.0997,-11.21734 c 0,3.99106 3.2353,7.22592 7.226,7.22592 3.9908,0 7.2259,-3.23486 7.2259,-7.22592 0,-3.99106 -3.2351,-7.22592 -7.2259,-7.22592 -3.9907,0 -7.226,3.23486 -7.226,7.22592 z"
     id="path4821"
     inkscape:connector-curvature="0" />
  <path
     style="fill:#213d44;stroke-width:0.06248"
     inkscape:connector-curvature="0"
     id="path4835"
     d="m 2594.5411,143.78567 0.2476,5.1729 c -2.8409,-3.3398 -7.072,-5.4588 -11.799,-5.4588 -7.5693,0 -13.87,5.4328 -15.222,12.614 -0.087,0.46057 0.269,0.886 0.7374,0.886 h 3.0658 c 0.3479,0 0.6481,-0.24007 0.7293,-0.57864 1.1582,-4.8334 5.5007,-8.4214 10.689,-8.4214 3.8033,0 7.1524,1.9285 9.1256,4.8626 l -6.3416,-0.30407 c -0.4275,-0.0207 -0.7853,0.32086 -0.7853,0.74914 v 2.9632 c 0,0.41414 0.3355,0.75 0.7495,0.75 h 12.513 c 0.4139,0 0.7495,-0.33586 0.7495,-0.75 v -12.521 c 0,-0.41414 -0.3356,-0.75 -0.7495,-0.75 h -2.9612 c -0.4281,0 -0.7692,0.35807 -0.7487,0.78593 z m -11.551,26.214 c -3.8035,0 -7.1526,-1.9286 -9.1258,-4.8628 l 6.3625,0.30442 c 0.4275,0.0207 0.7853,-0.32085 0.7853,-0.74907 v -2.9633 c 0,-0.41422 -0.3355,-0.75 -0.7495,-0.75 h -12.513 c -0.4139,0 -0.7495,0.33578 -0.7495,0.75 v 12.52101 c 0,0.41415 0.3356,0.75 0.7495,0.75 h 2.9596 c 0.4287,0 0.77,-0.35907 0.7486,-0.7875 l -0.2579,-5.1609 c 2.8409,3.3338 7.0682,5.4484 11.79,5.4484 7.5693,0 13.87,-5.4328 15.222,-12.614 0.087,-0.4605 -0.269,-0.886 -0.7374,-0.886 h -3.0658 c -0.3479,0 -0.6481,0.24014 -0.7293,0.57872 -1.1583,4.8334 -5.5007,8.4214 -10.689,8.4214 z" />
  <path
     style="fill:#213d44;stroke-width:0.0625"
     d="m 3028.625,152.99977 h 20 v 12 h -20 z m 25,6 c 0,1.6569 1.343,3 3,3 v 6 c 0,1.6569 -1.3432,3 -3,3 h -30 c -1.6569,0 -3,-1.3431 -3,-3 v -6 c 1.6569,0 3,-1.3431 3,-3 0,-1.6568 -1.3431,-3 -3,-3 v -6 c 0,-1.6568 1.3431,-3 3,-3 h 30 c 1.6568,0 3,1.3432 3,3 v 6 c -1.657,0 -3,1.3432 -3,3 z m -3,-6.5 c 0,-0.82844 -0.6715,-1.5 -1.5,-1.5 h -21 c -0.8285,0 -1.5,0.67156 -1.5,1.5 v 13 c 0,0.82843 0.6715,1.5 1.5,1.5 h 21 c 0.8285,0 1.5,-0.67157 1.5,-1.5 z"
     id="path4841"
     inkscape:connector-curvature="0" />
  <path
     style="fill:#213d44;stroke-width:0.06250001"
     d="m 3795.4726,157.24382 h -12.7112 c -0.4206,0 -0.7614,-0.3412 -0.7614,-0.76192 v -12.71999 c 0,-0.42072 0.3408,-0.76192 0.7614,-0.76192 h 3.0456 c 0.4205,0 0.7614,0.3412 0.7614,0.76192 v 4.95959 c 2.9041,-3.22759 7.1228,-5.24718 11.8128,-5.21315 8.6866,0.0632 15.637,7.08727 15.6187,15.77985 -0.018,8.6807 -7.0563,15.7118 -15.7355,15.7118 -4.0663,0 -7.7723,-1.54375 -10.5651,-4.07719 -0.3237,-0.29345 -0.3385,-0.79712 -0.03,-1.106 l 2.1552,-2.15664 c 0.2839,-0.28408 0.74,-0.29953 1.0407,-0.0334 1.9693,1.74368 4.5592,2.80173 7.3988,2.80173 6.1716,0 11.1672,-4.99789 11.1672,-11.17482 0,-6.17571 -4.9946,-11.17481 -11.1672,-11.17481 -3.7115,0 -6.9972,1.80808 -9.0273,4.59275 h 6.2355 c 0.4205,0 0.7614,0.34112 0.7614,0.76191 v 3.04768 c 0,0.42072 -0.3409,0.76192 -0.7614,0.76192 z"
     id="path4847"
     inkscape:connector-curvature="0" />
  <path
     style="fill:#213d44;stroke-width:0.0625"
     d="m 3581.1874,172.99976 h -22 c -1.657,0 -3,-1.3431 -3,-3 v -22 c 0,-1.6569 1.343,-3 3,-3 h 22 c 1.6568,0 3,1.3431 3,3 v 22 c 0,1.6569 -1.3432,3 -3,3 z m -12.793,-6.1286 11.5,-11.5 c 0.3905,-0.3905 0.3905,-1.0237 0,-1.4142 l -1.4141,-1.4141 c -0.3905,-0.3905 -1.0237,-0.39057 -1.4143,0 l -9.3786,9.3786 -4.3787,-4.3786 c -0.3905,-0.3905 -1.0238,-0.3905 -1.4143,0 l -1.4142,1.4141 c -0.3905,0.3905 -0.3905,1.0237 0,1.4142 l 6.5,6.5 c 0.3906,0.39065 1.0237,0.39065 1.4142,7e-5 z"
     id="path4859"
     inkscape:connector-curvature="0" />
  <path
     style="fill:#213d44;stroke-width:0.0625"
     d="m 2624.5644,85.573251 v 1.09019 c 0,0.70699 0.4698,1.31918 1.141,1.50942 5.0012,1.41708 8.6654,6.068805 8.6654,11.597115 0,6.654614 -5.3093,12.041054 -11.8709,12.041054 -6.5605,0 -11.8709,-5.38539 -11.8709,-12.041054 0,-5.52779 3.6637,-10.180245 8.6652,-11.597115 0.6715,-0.19018 1.1412,-0.80256 1.1412,-1.50963 v -1.08945 c 0,-1.02798 -0.957,-1.77695 -1.9384,-1.52042 -6.9259,1.80961 -12.036,8.20467 -11.9968,15.804145 0.046,8.968804 7.192,16.161184 16.034,16.142344 8.8206,-0.0187 15.9658,-7.27772 15.9658,-16.229244 0,-7.567125 -5.1057,-13.924695 -12.0134,-15.721435 -0.9748,-0.25353 -1.9218,0.50341 -1.9218,1.52429 z"
     id="path4861"
     inkscape:connector-curvature="0" />
  <path
     style="fill:#213d44;stroke-width:0.0625"
     d="m 3545.7499,92.999981 c 0,-2.7625 -2.2375,-5 -5,-5 -2.7625,0 -5,2.2375 -5,5 0,2.275 1.5187,4.1937 3.5937,4.8 -0.037,1.0062 -0.2625,1.7812 -0.6875,2.306199 -0.9625,1.2 -3.0812,1.4 -5.325,1.6063 -1.7625,0.1625 -3.5875,0.3375 -5.0812,1.0562 v -8.999899 c 2.0312,-0.6375 3.5,-2.5313 3.5,-4.7688 0,-2.7625 -2.2375,-5 -5,-5 -2.7625,0 -5,2.2375 -5,5 0,2.2375 1.4687,4.1313 3.5,4.7688 v 12.455999 c -2.0313,0.64372 -3.5,2.5375 -3.5,4.775 0,2.7625 2.2375,5 5,5 2.7625,0 5,-2.2375 5,-5 0,-2.125 -1.325,-3.9438 -3.2,-4.6625 0.1937,-0.325 0.4875,-0.6125 0.9312,-0.8375 1.0125,-0.5125 2.525,-0.65 4.1313,-0.8 2.6375,-0.24378 5.625,-0.525 7.3875,-2.7125 0.875,-1.0875 1.3187,-2.487499 1.35,-4.243799 1.975,-0.675 3.4,-2.5437 3.4,-4.7437 z m -19,-5 c 0.55,0 1,0.45 1,1 0,0.55 -0.45,1 -1,1 -0.55,0 -1,-0.45 -1,-1 0,-0.55 0.45,-1 1,-1 z m 0,23.999999 c -0.55,0 -1,-0.45 -1,-1 0,-0.55 0.45,-1 1,-1 0.55,0 1,0.45 1,1 0,0.55 -0.45,1 -1,1 z m 14,-19.999999 c 0.55,0 1,0.45 1,1 0,0.55 -0.45,1 -1,1 -0.55,0 -1,-0.45 -1,-1 0,-0.55 0.45,-1 1,-1 z"
     id="path4869"
     inkscape:connector-curvature="0" />
  <path
     style="fill:#213d44;stroke-width:0.0625"
     d="m 3657.9243,161.19345 2.6635,1.5374 c 0.3041,0.17556 0.4454,0.53863 0.3411,0.87406 -0.6918,2.2276 -1.8731,4.24011 -3.418,5.9116 a 0.751,0.751 0 0 1 -0.927,0.14086 l -2.6615,-1.5372 a 11.974,11.974 0 0 1 -3.7975,2.1956 v 3.0739 a 0.75062,0.75062 0 0 1 -0.586,0.73242 c -2.1847,0.49058 -4.5312,0.516 -6.8262,4.3e-4 -0.3431,-0.0771 -0.5877,-0.381 -0.5877,-0.73271 v -3.074 a 11.972,11.972 0 0 1 -3.7974,-2.1956 l -2.6615,1.5372 a 0.751,0.751 0 0 1 -0.927,-0.14086 c -1.5449,-1.6715 -2.7262,-3.684 -3.4181,-5.9116 -0.1041,-0.33536 0.037,-0.69843 0.3412,-0.87407 l 2.6636,-1.5374 a 12.092,12.092 0 0 1 0,-4.3874 l -2.6635,-1.5374 c -0.3042,-0.17557 -0.4454,-0.53863 -0.3412,-0.87406 0.6918,-2.2276 1.8731,-4.24011 3.4181,-5.9116 a 0.751,0.751 0 0 1 0.927,-0.14086 l 2.6615,1.5372 a 11.974,11.974 0 0 1 3.7974,-2.1956 v -3.07391 a 0.75062,0.75062 0 0 1 0.5861,-0.73241 c 2.1847,-0.49058 4.5311,-0.516 6.8261,-4.3e-4 0.3431,0.0771 0.5877,0.381 0.5877,0.73271 v 3.074 a 11.972,11.972 0 0 1 3.7974,2.1956 l 2.6615,-1.5372 a 0.751,0.751 0 0 1 0.927,0.14086 c 1.5449,1.6715 2.7263,3.684 3.4181,5.9116 0.1042,0.33536 -0.037,0.69843 -0.3412,0.87407 l -2.6635,1.53739 a 12.093,12.093 0 0 1 0,4.3875 z m -6.7993,-2.1938 c 0,-2.75701 -2.243,-5 -5,-5 -2.757,0 -5,2.24299 -5,5 0,2.757 2.243,5 5,5 2.757,0 5,-2.243 5,-5 z"
     id="path4871"
     inkscape:connector-curvature="0" />
  <path
     style="fill:#213d44;stroke-width:0.0625"
     d="m 3659.375,36.9999 h -7.75 c -0.8312,0 -1.5,-0.66871 -1.5,-1.5 v -7.75 c 0,-0.4125 0.3375,-0.75 0.75,-0.75 h 2.5 c 0.4125,0 0.75,0.3375 0.75,0.75 v 5.25 h 5.25 c 0.4125,0 0.75,0.3375 0.75,0.75 v 2.5 c 0,0.4125 -0.3375,0.75 -0.75,0.75 z m -17.25,-1.5 v -7.75 c 0,-0.4125 -0.3375,-0.75 -0.75,-0.75 h -2.5 c -0.4125,0 -0.75,0.3375 -0.75,0.75 v 5.25 h -5.25 c -0.4125,0 -0.75,0.3375 -0.75,0.75 v 2.5 c 0,0.4125 0.3375,0.75 0.75,0.75 h 7.75 c 0.8313,0 1.5,-0.66871 1.5,-1.5 z m 0,18.75 v -7.75 c 0,-0.83121 -0.6687,-1.5 -1.5,-1.5 h -7.75 c -0.4125,0 -0.75,0.3375 -0.75,0.75 v 2.5 c 0,0.4125 0.3375,0.75 0.75,0.75 h 5.25 v 5.25 c 0,0.4125 0.3375,0.75 0.75,0.75 h 2.5 c 0.4125,0 0.75,-0.3375 0.75,-0.75 z m 12,0 v -5.25 h 5.25 c 0.4125,0 0.75,-0.3375 0.75,-0.75 v -2.5 c 0,-0.4125 -0.3375,-0.75 -0.75,-0.75 h -7.75 c -0.8312,0 -1.5,0.66879 -1.5,1.5 v 7.75 c 0,0.4125 0.3375,0.75 0.75,0.75 h 2.5 c 0.4125,0 0.75,-0.3375 0.75,-0.75 z"
     id="path4875"
     inkscape:connector-curvature="0" />
  <path
     style="fill:#213d44;stroke-width:0.0625"
     d="m 3700.1234,106.00174 h -2.5 V 90.832744 l 3.5625,-3.5625 c 0.5875,-0.5875 0.5875,-1.5375 0,-2.1188 l -0.7062,-0.7125 c -0.5875,-0.5875 -1.5375,-0.5875 -2.1188,0 l -3.5625,3.5625 h -15.175 v -2.5 c 0,-0.83121 -0.6687,-1.5 -1.5,-1.5 h -3 c -0.8312,0 -1.5,0.66879 -1.5,1.5 v 2.5 h -2.5 c -0.8312,0 -1.5,0.66879 -1.5,1.5 v 3 c 0,0.83129 0.6688,1.5 1.5,1.5 h 2.5 v 16.499996 c 0,0.83128 0.6688,1.5 1.5,1.5 h 16.5 v 2.5 c 0,0.83128 0.6688,1.5 1.5,1.5 h 3 c 0.8313,0 1.5,-0.66872 1.5,-1.5 v -2.5 h 2.5 c 0.8313,0 1.5,-0.66872 1.5,-1.5 v -3 c 0,-0.83122 -0.6687,-1.5 -1.5,-1.5 z m -11.331,-11.999996 -9.1688,9.168796 v -9.168796 z m -6.3375,11.999996 9.1687,-9.168696 v 9.168696 z"
     id="path4879"
     inkscape:connector-curvature="0" />
  <path
     style="fill:#213d44;stroke-width:0.0625"
     d="m 3721.0093,25.467411 -13,4.875 c -1.1687,0.4375 -1.9437,1.5625 -1.9437,2.8125 v 14.069 c 0,1.1375 0.6437,2.175 1.6562,2.6813 l 13,6.5 c 0.8438,0.425 1.8375,0.425 2.6813,0 l 13,-6.5 c 1.0187,-0.50628 1.6562,-1.55 1.6562,-2.6813 v -14.069 c 0,-1.25 -0.775,-2.3688 -1.9437,-2.8063 l -13,-4.875 c -0.675,-0.2625 -1.425,-0.2625 -2.1063,-0.0071 z m 1.0563,3.8812 12,4.5 v 0.06857 l -12,4.875 -12,-4.875 v -0.06857 z m 2,22.25 v -9.3062 l 10,-4.0625 v 8.3687 z"
     id="path4881"
     inkscape:connector-curvature="0" />
  <path
     style="fill:#213d44;stroke-width:0.0625"
     d="m 3574.6874,40.9999 c 0,2.4875 -2.0125,4.5 -4.5,4.5 -2.4875,0 -4.5,-2.0125 -4.5,-4.5 0,-2.4875 2.0125,-4.5 4.5,-4.5 2.4875,0 4.5,2.0125 4.5,4.5 z m 6.5,-4.5 c -2.4875,0 -4.5,2.0125 -4.5,4.5 0,2.4875 2.0125,4.5 4.5,4.5 2.4875,0 4.5,-2.0125 4.5,-4.5 0,-2.4875 -2.0125,-4.5 -4.5,-4.5 z m -22,0 c -2.4875,0 -4.5,2.0125 -4.5,4.5 0,2.4875 2.0125,4.5 4.5,4.5 2.4875,0 4.5,-2.0125 4.5,-4.5 0,-2.4875 -2.0125,-4.5 -4.5,-4.5 z"
     id="path4887"
     inkscape:connector-curvature="0" />
  <path
     style="fill:#213d44;stroke-width:0.0625"
     d="m 3511.8448,52.50085 c 1.1536,1.9996 -0.2944,4.4992 -2.5985,4.4992 h -29.993 c -2.3086,0 -3.75,-2.5034 -2.5986,-4.4992 l 14.997,-26.002 c 1.1542,-2.0006 4.045,-1.997 5.1971,0 z m -17.595,-5.3758 c -1.5878,0 -2.875,1.2872 -2.875,2.875 0,1.5878 1.2872,2.875 2.875,2.875 1.5878,0 2.875,-1.2872 2.875,-2.875 0,-1.5878 -1.2872,-2.875 -2.875,-2.875 z m -2.7296,-10.334 0.4636,8.5 c 0.021,0.39779 0.3506,0.70914 0.7489,0.70914 h 3.0341 c 0.3984,0 0.7273,-0.31136 0.7489,-0.70914 l 0.4636,-8.5 c 0.024,-0.42957 -0.3186,-0.79086 -0.7488,-0.79086 h -3.9614 c -0.4303,0 -0.7723,0.36129 -0.7489,0.79086 z"
     id="path4889"
     inkscape:connector-curvature="0" />
  <path
     style="fill:#213d44;stroke-width:0.0625"
     d="m 3627.6876,85.499676 v 7.999 c 0,1.3414 -1.6225,1.9988 -2.5607,1.0607 l -2.2317,-2.2318 -15.22,15.220004 c -0.5858,0.58585 -1.5355,0.58585 -2.1213,0 l -1.4142,-1.4142 c -0.5858,-0.58586 -0.5858,-1.5355 0,-2.1213 l 15.22,-15.220004 -2.2314,-2.2316 c -0.942,-0.94193 -0.2748,-2.5607 1.0607,-2.5607 h 7.9985 c 0.8284,0 1.5,0.67157 1.5,1.5 z m -10.561,15.425004 -1,1 a 1.4999,1.4999 0 0 0 -0.4393,1.0607 v 9.0146 h -20 V 91.999976 h 16.5 a 1.5002,1.5002 0 0 0 1.0605,-0.43929 l 1,-1 c 0.9449,-0.945 0.2757,-2.5607 -1.0605,-2.5607 h -18.5 c -1.6569,0 -3,1.3431 -3,3 v 22.000004 c 0,1.6569 1.3431,3 3,3 h 22 c 1.6568,0 3,-1.3431 3,-3 v -11.015 c 0,-1.3364 -1.6158,-2.005604 -2.5607,-1.0606 z"
     id="path4893"
     inkscape:connector-curvature="0" />
  <path
     style="fill:#213d44;stroke-width:0.0625"
     d="m 3506.2499,150.62116 v 0.37864 h -8 v -8 h 0.3787 a 1.5,1.5 0 0 1 1.0606,0.43929 l 6.1214,6.1214 a 1.5001,1.5001 0 0 1 0.4393,1.0607 z m -8.5,2.3786 c -0.8251,0 -1.5,-0.675 -1.5,-1.5 v -8.5 h -12.5 c -0.8284,0 -1.5,0.67157 -1.5,1.5 v 29 c 0,0.82843 0.6716,1.5 1.5,1.5 h 21 c 0.8284,0 1.5,-0.67157 1.5,-1.5 v -20.5 z m -8.466,1 c 1.6569,0 3,1.3431 3,3 0,1.6569 -1.3431,3 -3,3 -1.6569,0 -2.9999,-1.3431 -2.9999,-3 0,-1.6569 1.3431,-3 2.9999,-3 z m 13,15 h -16 l 0.03,-3.0303 2.4697,-2.4697 c 0.2929,-0.29286 0.7375,-0.26257 1.0303,0.03 l 2.4697,2.4697 6.4697,-6.4697 c 0.2929,-0.29286 0.7678,-0.29286 1.0607,0 l 2.4696,2.4697 z"
     id="path4903"
     inkscape:connector-curvature="0" />
  <path
     style="fill:#213d44;stroke-width:0.0625"
     d="m 3774.5625,91.999881 h -12 l -4,-4 h -10 c -1.6568,0 -3,1.3431 -3,3 v 17.999999 c 0,1.6569 1.3432,3 3,3 h 26 c 1.6569,0 3,-1.3431 3,-3 V 94.999881 c 0,-1.6569 -1.3431,-3 -3,-3 z"
     id="path4907"
     inkscape:connector-curvature="0" />
  <path
     style="fill:#213d44;stroke-width:0.0625"
     d="m 3732.0656,148.99976 h -20 c -5.525,0 -10,4.475 -10,10 0,5.525 4.475,10 10,10 2.8,0 5.325,-1.15 7.1375,-3 h 5.7186 c 1.8126,1.85 4.3439,3 7.1376,3 5.525,0 10,-4.475 10,-10 0,-5.525 -4.4687,-10 -9.9937,-10 z m -14,11.25 c 0,0.4125 -0.3375,0.75 -0.75,0.75 h -3.25 v 3.25 c 0,0.4125 -0.3375,0.75 -0.7501,0.75 h -2.5 c -0.4124,0 -0.75,-0.3375 -0.75,-0.75 v -3.25 h -3.25 c -0.4125,0 -0.75,-0.3375 -0.75,-0.75 v -2.5 c 0,-0.4125 0.3375,-0.75 0.75,-0.75 h 3.25 v -3.25 c 0,-0.4125 0.3375,-0.75 0.75,-0.75 h 2.5 c 0.4125,0 0.7501,0.3375 0.7501,0.75 v 3.25 h 3.25 c 0.4125,0 0.75,0.3375 0.75,0.75 z m 11.5,4.25 c -1.6563,0 -3,-1.3438 -3,-3 0,-1.6563 1.3437,-3 3,-3 1.6562,0 3,1.3437 3,3 0,1.6562 -1.3438,3 -3,3 z m 5,-5 c -1.6563,0 -3,-1.3438 -3,-3 0,-1.6563 1.3437,-3 3,-3 1.6562,0 3,1.3437 3,3 0,1.6562 -1.3438,3 -3,3 z"
     id="path4909"
     inkscape:connector-curvature="0" />
  <path
     style="fill:#213d44"
     inkscape:connector-curvature="0"
     id="path4627"
     d="m 1875.1368,39.157303 h -4.7214 v -4.2429 h 4.7214 z m 0,-14.593 h -4.7214 v 4.3357 h 4.7214 z m 5.5857,10.343 h -4.7214 v 4.2429 h 4.7214 z m -11.164,-5.15 h -4.7207 v 4.2929 h 4.7207 z m 5.5786,0 h -4.7214 v 4.2929 h 4.7214 z m 19.771,7.1429 c -1.0286,-0.69286 -3.4,-0.94286 -5.2214,-0.6 -0.2357,-1.7143 -1.1921,-3.2071 -2.935,-4.55 l -1,-0.66428 -0.665,1 c -1.3143,1.9857 -1.6714,5.2571 -0.2643,7.4143 -0.6207,0.33572 -1.8429,0.79286 -3.4572,0.76429 h -31.049 c -0.6221,3.6286 0.4136,8.3429 3.1429,11.579 2.65,3.1357 6.6207,4.7286 11.814,4.7286 11.244,0 19.564,-5.1786 23.457,-14.586 1.5286,0.02857 4.8286,0.0071 6.5214,-3.2286 0.1072,-0.17857 0.4715,-0.94286 0.6072,-1.2214 z m -36.506,-1.9929 h -4.715 v 4.2429 h 4.7222 v -4.2429 z m 5.5779,0 h -4.7214 v 4.2429 h 4.7214 z m 5.5786,0 h -4.7207 v 4.2429 h 4.7207 z m -5.5786,-5.15 h -4.7214 v 4.2929 h 4.7214 z" />
  <path
     style="fill:#213d44"
     inkscape:connector-curvature="0"
     id="path4643"
     d="m 1794.0036,32.360303 c -4.5428,0 -8.2071,3.6643 -8.2071,8.2071 0,4.5428 3.6643,8.2071 8.2071,8.2071 4.5429,0 8.2072,-3.6643 8.2072,-8.2071 0,-4.5428 -3.6643,-8.2071 -8.2072,-8.2071 z m 0,13.543 c -2.9357,0 -5.3357,-2.3929 -5.3357,-5.3357 0,-2.9428 2.3929,-5.3357 5.3357,-5.3357 2.9429,0 5.3357,2.3929 5.3357,5.3357 0,2.9428 -2.4,5.3357 -5.3357,5.3357 z m 10.457,-13.879 c 0,1.0643 -0.8571,1.9143 -1.9143,1.9143 -1.0643,0 -1.9143,-0.85714 -1.9143,-1.9143 0,-1.0571 0.8571,-1.9143 1.9143,-1.9143 1.0572,0 1.9143,0.85714 1.9143,1.9143 z m 5.4357,1.9429 c -0.1214,-2.5643 -0.7071,-4.8357 -2.5857,-6.7071 -1.8714,-1.8714 -4.1429,-2.4571 -6.7072,-2.5857 -2.6428,-0.15 -10.564,-0.15 -13.207,0 -2.5571,0.12143 -4.8286,0.70714 -6.7071,2.5786 -1.8785,1.87146 -2.4571,4.1429 -2.5857,6.7071 -0.15,2.6429 -0.15,10.564 0,13.207 0.1214,2.5643 0.7072,4.8357 2.5857,6.7071 1.8786,1.8714 4.1429,2.4571 6.7071,2.5857 2.6429,0.15 10.564,0.15 13.207,0 2.5643,-0.12143 4.8357,-0.70715 6.7072,-2.5857 1.8714,-1.8714 2.4571,-4.1429 2.5857,-6.7071 0.15,-2.6429 0.15,-10.557 0,-13.2 z m -3.4143,16.036 c -0.5571,1.4 -1.6357,2.4786 -3.0428,3.0429 -2.1071,0.83571 -7.1071,0.64286 -9.4357,0.64286 -2.3286,0 -7.3357,0.18571 -9.4357,-0.64286 -1.4,-0.55714 -2.4786,-1.6357 -3.0429,-3.0429 -0.8357,-2.1071 -0.6429,-7.1071 -0.6429,-9.4357 0,-2.3286 -0.1857,-7.3357 0.6429,-9.4357 0.5572,-1.4 1.6357,-2.4786 3.0429,-3.0429 2.1071,-0.83571 7.1071,-0.64286 9.4357,-0.64286 2.3286,0 7.3357,-0.18571 9.4357,0.64286 1.4,0.55714 2.4786,1.6357 3.0428,3.0429 0.8357,2.1071 0.6429,7.1071 0.6429,9.4357 0,2.3286 0.1928,7.3357 -0.6429,9.4357 z" />
  <path
     style="fill:#213d44"
     inkscape:connector-curvature="0"
     id="path4661"
     d="m 1856.4108,99.996745 c 0,0.221435 -0.1214,0.435725 -0.3214,0.535725 l -6.3643,3.82139 c -0.1,0.0572 -0.2,0.1 -0.3214,0.1 -0.1,0 -0.2215,-0.0214 -0.3215,-0.0786 -0.2,-0.12143 -0.3214,-0.32143 -0.3214,-0.55714 v -2.54289 h -17.05 c 1.8071,2.82859 2.8929,7.63569 4.9714,7.63569 h 1.9071 v -1.9143 c 0,-0.35714 0.2786,-0.63571 0.6357,-0.63571 h 6.3643 c 0.3571,0 0.6357,0.27857 0.6357,0.63571 v 6.3643 c 0,0.35714 -0.2786,0.63571 -0.6357,0.63571 h -6.3643 c -0.3571,0 -0.6357,-0.27857 -0.6357,-0.63571 v -1.9072 h -1.9071 c -5.3857,0 -5.7929,-10.17899 -8.9072,-10.17899 h -7.1643 c -0.5786,2.18569 -2.5643,3.82139 -4.9286,3.82139 -2.8072,-0.007 -5.0929,-2.2929 -5.0929,-5.099994 0,-2.807101 2.2857,-5.0929 5.0929,-5.0929 2.3643,0 4.3571,1.6286 4.9286,3.8214 2.7929,0 3.1357,0.678569 5.3286,-4.314301 2.8643,-6.3643 4.15,-5.8643 7.7786,-5.8643 0.5357,-1.4929 1.9286,-2.5429 3.6,-2.5429 2.1071,0 3.8214,1.7072 3.8214,3.8214 0,2.1143 -1.7071,3.8214 -3.8214,3.8214 -1.6714,0 -3.0643,-1.0571 -3.6,-2.5429 h -2.1286 c -2.0786,0 -3.1643,4.8143 -4.9714,7.6357 h 22.15 v -2.5429 c 0,-0.23571 0.1214,-0.43571 0.3214,-0.55714 0.2,-0.12143 0.4572,-0.1 0.6357,0.0214 l 6.3643,3.8214 c 0.2,0.0786 0.3215,0.29285 0.3215,0.51428 z" />
  <path
     style="fill:#213d44"
     inkscape:connector-curvature="0"
     id="path4701"
     d="m 1733.857,42.853303 c 0.9471,0 1.7143,0.76786 1.7143,1.7143 v 9.7143 h -6.8571 v -4.5714 h -27.429 v 4.5714 h -6.8572 v -25.714 c 0,-0.94714 0.7679,-1.7143 1.7143,-1.7143 h 3.4286 c 0.9471,0 1.7143,0.76714 1.7143,1.7143 v 14.286 z m -25.714,-13.714 c -3.1557,0 -5.7143,2.5586 -5.7143,5.7143 0,3.1557 2.5586,5.7143 5.7143,5.7143 3.1564,0 5.7143,-2.5586 5.7143,-5.7143 0,-3.1557 -2.5579,-5.7143 -5.7143,-5.7143 z m 27.429,9.1429 c 0,-3.7871 -3.07,-6.8571 -6.8571,-6.8571 h -12 c -0.9464,0 -1.7143,0.76786 -1.7143,1.7143 v 7.4286 h 20.571 z" />
  <path
     style="fill:#213d44"
     inkscape:connector-curvature="0"
     id="path4703"
     d="m 1685.786,88.571481 h -3.4286 v -2.8571 c 0,-0.946431 -0.7671,-1.7143 -1.7143,-1.7143 h -19.429 c -0.9464,0 -1.7143,0.76786 -1.7143,1.7143 v 28.570999 c 0,0.94714 0.7679,1.7143 1.7143,1.7143 h 19.429 c 0.9471,0 1.7143,-0.76714 1.7143,-1.7143 v -3.0079 l 5.7578,-2.5693 c 2.0564,-0.91785 3.385,-2.9664 3.385,-5.2186 v -9.204299 c 0,-3.1507 -2.5628,-5.7143 -5.7143,-5.7143 z m 1.1428,14.918999 a 1.1441,1.1441 0 0 1 -0.6764,1.0436 l -3.895,1.7386 V 93.143681 h 3.4286 c 0.6307,0 1.1428,0.51286 1.1428,1.142899 z m -12.571,5.6529 c -0.6307,0 -1.1429,-0.51143 -1.1429,-1.1429 V 92.000481 c 0,-0.63071 0.5121,-1.1428 1.1429,-1.1428 0.6314,0 1.1428,0.51214 1.1428,1.1428 v 15.999999 c 0,0.63143 -0.5114,1.1429 -1.1428,1.1429 z m -6.8572,0 c -0.6307,0 -1.1428,-0.51143 -1.1428,-1.1429 V 92.000481 c 0,-0.63071 0.5121,-1.1428 1.1428,-1.1428 0.6314,0 1.1429,0.51214 1.1429,1.1428 v 15.999999 c 0,0.63143 -0.5114,1.1429 -1.1429,1.1429 z" />
  <path
     style="fill:#213d44"
     inkscape:connector-curvature="0"
     id="path4727"
     d="m 1974.8572,165.85723 c 0,5.05 -4.0934,9.1429 -9.1429,9.1429 h -26.286 c -5.6807,0 -10.286,-4.605 -10.286,-10.286 0,-4.4836 2.8694,-8.2964 6.8718,-9.7043 a 11.691,11.691 0 0 1 -0.014,-0.58143 c 0,-6.3114 5.1166,-11.429 11.429,-11.429 4.2348,0 7.9316,2.3036 9.9059,5.7257 1.0894,-0.72857 2.3991,-1.1543 3.8084,-1.1543 3.787,0 6.8571,3.07 6.8571,6.8571 0,0.87071 -0.1624,1.7029 -0.4581,2.4686 4.1736,0.84714 7.3153,4.5364 7.3153,8.96 z m -16.808,-6.5221 -7.5266,-7.5264 c -0.4463,-0.44643 -1.1699,-0.44643 -1.6162,0 l -7.5266,7.5264 c -0.72,0.72 -0.21,1.9507 0.8082,1.9507 h 4.6693 v 8 c 0,0.63143 0.5118,1.1429 1.1428,1.1429 h 3.4286 c 0.6312,0 1.1429,-0.51143 1.1429,-1.1429 v -8 h 4.6695 c 1.0182,0 1.5281,-1.2307 0.8081,-1.9507 z" />
  <path
     style="fill:#213d44"
     inkscape:connector-curvature="0"
     id="path4733"
     d="m 1863.8596,168.14221 h 13.714 c 3.7857,0 6.8572,-3.0714 6.8572,-6.8571 h 2.2857 c 5.0429,0 9.1429,-4.1 9.1429,-9.1429 0,-5.0429 -4.1,-9.1429 -9.1429,-9.1429 h -28 c -0.95,0 -1.7143,0.76429 -1.7143,1.7143 v 16.571 c 0,3.7857 3.0714,6.8571 6.8572,6.8571 z m 22.857,-20.571 c 2.5214,0 4.5714,2.05 4.5714,4.5714 0,2.5214 -2.05,4.57141 -4.5714,4.57141 h -2.2857 v -9.1429 z m 3.4071,27.429 h -36.529 c -3.4,0 -4.3571,-4.5714 -2.5714,-4.5714 h 41.664 c 1.7857,0 0.8429,4.5714 -2.5643,4.5714 z" />
  <path
     style="fill:#213d44"
     inkscape:connector-curvature="0"
     id="path4735"
     d="m 1749.9285,107.34857 c -2.6857,0 -5.2157,-0.48286 -7.4386,-1.3357 -2.2407,1.7536 -4.9907,2.8222 -7.9114,3.1286 a 0.61657,0.61657 0 0 1 -0.064,0 c -0.2671,0 -0.5079,-0.17858 -0.5729,-0.43286 -0.071,-0.28286 0.1493,-0.45714 0.3665,-0.665 1.0721,-1.0307 2.3729,-1.8421 2.8814,-5.3064 -2.0457,-1.9607 -3.2614,-4.408597 -3.2614,-7.064997 0,-6.4479 7.1643,-11.674 16,-11.674 8.8364,0 16,5.2257 16,11.674 0,6.452097 -7.1636,11.673997 -16,11.673997 z m 24.791,7.6557 c -0.9957,-0.93785 -2.2036,-1.675 -2.6757,-4.825 4.915,-4.6114 3.7264,-11.208997 -2.6907,-14.789997 v 0.28643 c 0,8.749297 -9.2557,15.455997 -20.304,15.086997 2.7229,2.2114 6.7136,3.6064 11.161,3.6064 2.4943,0 4.8436,-0.43928 6.9079,-1.2143 2.0807,1.5943 4.6336,2.5657 7.3464,2.8436 0.2707,0.0286 0.5257,-0.14072 0.5907,-0.39 0.064,-0.25714 -0.1386,-0.41572 -0.34,-0.60429 z" />
  <path
     style="fill:#213d44"
     inkscape:connector-curvature="0"
     id="path4737"
     d="m 1800.8571,172.71381 v 2.8572 c 0,0.94643 -0.7671,1.7143 -1.7143,1.7143 h -19.429 c -0.9464,0 -1.7143,-0.76785 -1.7143,-1.7143 v -26.286 c 0,-0.94714 0.7679,-1.7143 1.7143,-1.7143 h 5.1429 v 21.143 c 0,2.2057 1.795,4 4,4 z m 0,-24.571 v -7.4286 h -12 c -0.9464,0 -1.7143,0.76715 -1.7143,1.7143 v 26.286 c 0,0.94643 0.7679,1.71431 1.7143,1.71431 h 19.429 c 0.9471,0 1.7143,-0.76787 1.7143,-1.71431 v -18.857 h -7.4286 c -0.9429,0 -1.7143,-0.77143 -1.7143,-1.7143 z m 8.6414,-2.2164 -4.7107,-4.71 a 1.7143,1.7143 0 0 0 -1.2121,-0.50215 h -0.4329 v 6.8572 h 6.8571 v -0.43286 a 1.7143,1.7143 0 0 0 -0.5014,-1.2121 z" />
  <path
     style="fill:#213d44"
     inkscape:connector-curvature="0"
     id="path4757"
     d="m 1972.5716,43.996303 v 6.8571 c 0,1.8936 -1.535,3.4286 -3.4286,3.4286 h -34.286 c -1.8936,0 -3.4286,-1.535 -3.4286,-3.4286 v -6.8571 c 0,-1.8936 1.535,-3.4286 3.4286,-3.4286 h 34.286 c 1.8936,0 3.4286,1.535 3.4286,3.4286 z m -3.4286,-5.7143 a 5.6826,5.6826 0 0 1 2.1986,0.44071 l -6.895,-10.343 a 3.4288,3.4288 0 0 0 -2.8528,-1.5264 h -19.187 a 3.4286,3.4286 0 0 0 -2.8528,1.5264 l -6.895,10.343 a 5.6826,5.6826 0 0 1 2.1986,-0.44071 z m -3.4286,6.8571 c -1.2621,0 -2.2857,1.0236 -2.2857,2.2857 0,1.2621 1.0236,2.2857 2.2857,2.2857 1.2621,0 2.2857,-1.0236 2.2857,-2.2857 0,-1.2621 -1.0236,-2.2857 -2.2857,-2.2857 z m -6.8571,0 c -1.2621,0 -2.2857,1.0236 -2.2857,2.2857 0,1.2621 1.0236,2.2857 2.2857,2.2857 1.2621,0 2.2857,-1.0236 2.2857,-2.2857 0,-1.2621 -1.0236,-2.2857 -2.2857,-2.2857 z" />
  <path
     style="fill:#213d44"
     inkscape:connector-curvature="0"
     id="path4761"
     d="m 1732.714,158.96647 c 0.018,9.76 -7.9414,17.741 -17.701,17.748 -4.2154,0 -8.0874,-1.4664 -11.13,-3.9221 -0.7912,-0.63857 -0.8504,-1.8243 -0.1314,-2.5436 l 0.8048,-0.805 c 0.615,-0.615 1.5966,-0.68214 2.2779,-0.14143 2.2418,1.7786 5.0789,2.8407 8.1659,2.8407 7.2646,0 13.143,-5.8793 13.143,-13.143 0,-7.265 -5.8794,-13.143 -13.143,-13.143 -3.4867,0 -6.6535,1.355 -9.0049,3.56639 l 3.6253,3.6257 c 0.72,0.72 0.2101,1.95071 -0.808,1.95071 h -10.384 c -0.6313,0 -1.1429,-0.51143 -1.1429,-1.1429 v -10.38401 c 0,-1.01859 1.231,-1.5286 1.951,-0.80857 l 3.5266,3.5264 c 3.1802,-3.0386 7.4904,-4.9057 12.237,-4.9057 9.7721,0 17.6959,7.9129 17.714,17.68101 z m -12.922,5.6271 0.7016,-0.90214 c 0.5813,-0.74715 0.4467,-1.8243 -0.3007,-2.405 l -2.9072,-2.2614 v -7.4536 c 0,-0.94715 -0.7675,-1.7143 -1.7143,-1.7143 h -1.1429 c -0.9468,0 -1.7143,0.76714 -1.7143,1.7143 v 9.6893 l 4.6721,3.6336 c 0.7474,0.58143 1.8244,0.44715 2.4056,-0.30071 z" />
  <path
     style="fill:#213d44"
     inkscape:connector-curvature="0"
     id="path4799"
     d="m 1928.5,93.14298 h -32 c -1.2624,0 -2.2857,-1.0236 -2.2857,-2.2857 v -4.5714 c 0,-1.2621 1.0234,-2.2857 2.2857,-2.2857 h 32 c 1.2624,0 2.2857,1.0236 2.2857,2.2857 v 4.5714 c 0,1.2622 -1.0234,2.2857 -2.2857,2.2857 z m -3.4286,-6.2857 c -0.9467,0 -1.7142,0.76715 -1.7142,1.7143 0,0.94643 0.7675,1.7143 1.7142,1.7143 0.9469,0 1.7144,-0.76785 1.7144,-1.7143 0,-0.94714 -0.7675,-1.7143 -1.7144,-1.7143 z m -4.5714,0 c -0.9469,0 -1.7144,0.76715 -1.7144,1.7143 0,0.94643 0.7675,1.7143 1.7144,1.7143 0.9468,0 1.7143,-0.76785 1.7143,-1.7143 0,-0.94714 -0.7675,-1.7143 -1.7143,-1.7143 z m 8,17.714 h -32 c -1.2624,0 -2.2857,-1.0236 -2.2857,-2.2857 v -4.5714 c 0,-1.2622 1.0234,-2.2857 2.2857,-2.2857 h 32 c 1.2624,0 2.2857,1.0236 2.2857,2.2857 v 4.5714 c 0,1.2622 -1.0234,2.2857 -2.2857,2.2857 z m -3.4286,-6.2857 c -0.9467,0 -1.7142,0.76715 -1.7142,1.7143 0,0.94643 0.7675,1.7143 1.7142,1.7143 0.9469,0 1.7144,-0.76786 1.7144,-1.7143 0,-0.94714 -0.7675,-1.7143 -1.7144,-1.7143 z m -4.5714,0 c -0.9469,0 -1.7144,0.76715 -1.7144,1.7143 0,0.94643 0.7675,1.7143 1.7144,1.7143 0.9468,0 1.7143,-0.76786 1.7143,-1.7143 0,-0.94714 -0.7675,-1.7143 -1.7143,-1.7143 z m 8,17.714 h -32 c -1.2624,0 -2.2857,-1.0236 -2.2857,-2.2857 v -4.5714 c 0,-1.2622 1.0234,-2.2857 2.2857,-2.2857 h 32 c 1.2624,0 2.2857,1.0236 2.2857,2.2857 v 4.5714 c 0,1.2621 -1.0234,2.2857 -2.2857,2.2857 z m -3.4286,-6.2857 c -0.9467,0 -1.7142,0.76714 -1.7142,1.7143 0,0.94643 0.7675,1.7143 1.7142,1.7143 0.9469,0 1.7144,-0.76786 1.7144,-1.7143 0,-0.94714 -0.7675,-1.7143 -1.7144,-1.7143 z m -4.5714,0 c -0.9469,0 -1.7144,0.76714 -1.7144,1.7143 0,0.94643 0.7675,1.7143 1.7144,1.7143 0.9468,0 1.7143,-0.76786 1.7143,-1.7143 0,-0.94714 -0.7675,-1.7143 -1.7143,-1.7143 z" />
  <path
     style="fill:#213d44;stroke-width:0.0625"
     d="m 1352.0622,101.99988 h 14.875 c 1.3375,0 2.0063,1.6187 1.0625,2.5625 l -7.4375,7.4375 c -0.5875,0.5875 -1.5375,0.5875 -2.1187,0 l -7.4438,-7.4375 c -0.9437,-0.94378 -0.275,-2.5625 1.0625,-2.5625 z m 15.938,-6.5625 -7.4375,-7.4375 c -0.5875,-0.5875 -1.5375,-0.5875 -2.1187,0 l -7.4438,7.4375 c -0.9437,0.94372 -0.275,2.5625 1.0625,2.5625 h 14.875 c 1.3375,0 2.0063,-1.6188 1.0625,-2.5625 z"
     id="path4827"
     inkscape:connector-curvature="0" />
  <path
     style="fill:#213d44;stroke-width:0.0625"
     d="m 1476.2062,25.446303 -4.0813,8.275 -9.1312,1.3312 c -1.6375,0.2375 -2.2938,2.2563 -1.1063,3.4125 l 6.6063,6.4375 -1.5625,9.0938 c -0.2813,1.6437 1.45,2.875 2.9,2.1062 l 8.1688,-4.2937 8.1687,4.2937 c 1.45,0.7625 3.1813,-0.4625 2.9,-2.1062 l -1.5625,-9.0938 6.6063,-6.4375 c 1.1875,-1.1562 0.5312,-3.175 -1.1063,-3.4125 l -9.1312,-1.3312 -4.0813,-8.275 c -0.7312,-1.475 -2.85,-1.4938 -3.5875,0 z"
     id="path4831"
     inkscape:connector-curvature="0" />
  <path
     style="fill:#213d44;stroke-width:0.0625"
     d="m 1442.5,107.99968 c 0,2.2091 -1.7909,4 -4,4 -2.2091,0 -4,-1.7909 -4,-4 0,-1.4803 0.8048,-2.7718 2,-3.4635 v -6.5365 c 0,-1.1046 0.8955,-2 2,-2 1.1046,0 2,0.89543 2,2 v 6.5365 c 1.1953,0.69171 2,1.9832 2,3.4635 z m 2,-5.2908 c 1.2445,1.4102 2,3.2621 2,5.2908 0,4.4185 -3.5814,8 -8,8 h -0.057 c -4.3938,-0.0307 -7.9655,-3.6475 -7.943,-8.0415 0.01,-2.0124 0.7639,-3.8486 1.9999,-5.2491 v -12.709 c 0,-3.313599 2.6863,-6 6,-6 3.3136,0 6,2.686401 6,6 z m -1,5.2908 c 0,-2.1461 -1.2106,-3.2619 -2,-4.1564 v -13.844 c 0,-1.6541 -1.3458,-3 -3,-3 -1.6542,0 -3,1.3459 -3,3 v 13.844 c -0.7957,0.90179 -1.989,2.0063 -1.9999,4.13 -0.014,2.7423 2.2227,5.0073 4.9639,5.0263 h 0.036 c 2.757,0 5,-2.243 5,-5 z"
     id="path4839"
     inkscape:connector-curvature="0" />
  <path
     style="fill:#213d44;stroke-width:0.0625"
     d="m 1484,146.99976 h -12 c -6.6275,0 -12,5.3725 -12,12 0,6.6274 5.3725,12 12,12 h 12 c 6.6274,0 12,-5.3726 12,-12 0,-6.6275 -5.3726,-12 -12,-12 z m -20,12 c 0,-4.4214 3.578,-8 8,-8 4.4212,0 8,3.578 8,8 0,4.4213 -3.5781,8 -8,8 -4.4213,0 -8,-3.5781 -8,-8 z m 20,8 h -3.0566 c 4.0761,-4.5536 4.0773,-11.445 0,-16 H 1484 c 4.4213,0 8,3.578 8,8 0,4.4212 -3.5781,8 -8,8 z"
     id="path4843"
     inkscape:connector-curvature="0" />
  <path
     style="fill:#213d44;stroke-width:0.0625"
     d="m 1402.9999,148.50058 v 20.998 c 0,1.3399 -1.6214,1.9999 -2.5607,1.0606 l -5.5606,-5.5595 H 1388.5 c -0.8284,0 -1.5,-0.67157 -1.5,-1.5 v -9 c 0,-0.82843 0.6716,-1.5 1.5,-1.5 h 6.3786 l 5.5607,-5.5596 c 0.9381,-0.93807 2.5606,-0.28057 2.5606,1.0607 z m 8,10.499 c 0,-2.1073 -1.0741,-4.0219 -2.8733,-5.1215 -0.9424,-0.57586 -2.1734,-0.27893 -2.7495,0.6635 -0.576,0.94243 -0.279,2.1734 0.6635,2.7495 0.6007,0.36714 0.9593,1.0058 0.9593,1.7085 a 2.0035,2.0035 0 0 1 -0.8627,1.6458 c -0.9077,0.62929 -1.1335,1.8754 -0.5041,2.7832 0.6294,0.90778 1.8755,1.1335 2.7831,0.50414 1.6178,-1.1216 2.5837,-2.9656 2.5837,-4.9331 z"
     id="path4855"
     inkscape:connector-curvature="0" />
  <path
     style="fill:#213d44;stroke-width:0.0625"
     d="m 1413.6598,35.136303 c 0.5813,0 0.945,0.63472 0.6454,1.1328 -1.5742,2.6167 -4.4414,4.3672 -7.7176,4.3672 -4.9514,0 -8.9688,-3.9984 -8.9998,-8.9424 -0.031,-4.9657 4.0341,-9.0576 8.9999,-9.0576 3.2726,7.2e-5 6.1373,1.7469 7.7125,4.3589 0.3024,0.5015 -0.055,1.1411 -0.6405,1.1411 h -6.5721 l -2.5,3.5 2.5,3.5 z m -10.728,5.8127 -12.516,12.516 c -1.5621,1.562 -4.0947,1.5621 -5.6569,0 -1.562,-1.5621 -1.562,-4.0948 0,-5.6569 l 12.515,-12.515 c 1.01,2.5748 3.0814,4.6459 5.6572,5.6564 z m -12.844,8.6873 c 0,-0.82842 -0.6716,-1.5 -1.5,-1.5 -0.8285,0 -1.5,0.67157 -1.5,1.5 0,0.8285 0.6715,1.5 1.5,1.5 0.8284,0 1.5,-0.6715 1.5,-1.5 z"
     id="path4857"
     inkscape:connector-curvature="0" />
  <path
     style="fill:#213d44;stroke-width:0.0625"
     d="m 1333,143 c 1.6569,0 3,1.3431 3,3 v 18 c 0,1.6569 -1.3431,3 -3,3 h -18 c -1.6569,0 -3,-1.3431 -3,-3 v -18 c 0,-1.6569 1.3432,-3 3,-3 h 18 m -18,26 c -2.757,0 -5,-2.243 -5,-5 v -13 h -3 c -1.6569,0 -3,1.3431 -3,3 v 18 c 0,1.6569 1.3431,3 3,3 h 18 c 1.6569,0 3,-1.3431 3,-3 v -3 z"
     id="path4865"
     inkscape:connector-curvature="0" />
  <path
     style="fill:#213d44;stroke-width:0.0625"
     d="m 1530.5,87.999881 h -26 c -1.6569,0 -3,1.3432 -3,3 v 17.999999 c 0,1.6569 1.3431,3 3,3 h 26 c 1.6569,0 3,-1.3431 3,-3 V 90.999881 c 0,-1.6568 -1.3431,-3 -3,-3 z m -18,5 c 2.4163,0 4.375,1.9587 4.375,4.375 0,2.4162 -1.9587,4.374999 -4.375,4.374999 -2.4162,0 -4.375,-1.958799 -4.375,-4.374999 0,-2.4163 1.9588,-4.375 4.375,-4.375 z m 7,12.687999 c 0,0.72486 -0.5876,1.3125 -1.3125,1.3125 h -11.375 c -0.7249,0 -1.3125,-0.58764 -1.3125,-1.3125 v -1.0129 c 0,-1.2045 0.8198,-2.2545 1.9884,-2.5466 l 1.95,-0.4875 c 1.5915,1.1448 4.0746,1.4736 6.1234,0 l 1.95,0.4875 c 1.1686,0.29214 1.9883,1.3421 1.9883,2.5466 z m 10,-2.4375 c 0,0.41422 -0.3358,0.75 -0.75,0.75 h -6.5 c -0.4141,0 -0.75,-0.33578 -0.75,-0.75 v -0.5 c 0,-0.41421 0.3359,-0.75 0.75,-0.75 h 6.5 c 0.4142,0 0.75,0.33579 0.75,0.75 z m 0,-3.999999 c 0,0.41422 -0.3358,0.749999 -0.75,0.749999 h -6.5 c -0.4141,0 -0.75,-0.335779 -0.75,-0.749999 v -0.5 c 0,-0.41421 0.3359,-0.75 0.75,-0.75 h 6.5 c 0.4142,0 0.75,0.33579 0.75,0.75 z m 0,-4 c 0,0.41422 -0.3358,0.75 -0.75,0.75 h -6.5 c -0.4141,0 -0.75,-0.33578 -0.75,-0.75 v -0.5 c 0,-0.41421 0.3359,-0.75 0.75,-0.75 h 6.5 c 0.4142,0 0.75,0.33579 0.75,0.75 z"
     id="path4911"
     inkscape:connector-curvature="0" />
  <path
     style="fill:#213d44;stroke-width:0.0625"
     d="m 1654.9304,155.43753 -17.239,5.3188 a 6,6 0 0 1 -3.3834,0 l -12.533,-3.8671 c -0.5352,0.71486 -0.6886,1.4406 -0.7449,2.3959 0.5812,0.34985 0.97,0.98671 0.97,1.7146 0,0.747 -0.4098,1.3979 -1.0166,1.7413 l 1.0123,7.6935 c 0.039,0.29915 -0.1937,0.56522 -0.4957,0.56522 h -3 c -0.3018,0 -0.5351,-0.26586 -0.4958,-0.56529 l 1.0124,-7.6935 c -0.6067,-0.34335 -1.0166,-0.99421 -1.0166,-1.7412 0,-0.75214 0.4154,-1.4069 1.0291,-1.7485 0.059,-1.1219 0.2484,-2.0769 0.7595,-2.9749 l -2.7189,-0.83886 c -1.4297,-0.42507 -1.4229,-2.4526 0,-2.8756 l 17.239,-5.3187 a 6,6 0 0 1 3.3834,0 l 17.238,5.3187 c 1.4298,0.42507 1.423,2.4526 10e-5,2.8756 z m -16.649,7.2299 -0.026,0.014 a 7.9999,7.9999 0 0 1 -4.5111,0 l -0.026,-0.014 -9.4321,-2.9106 -0.7865,5.243 c 0,2.2091 5.5964,4 12.5,4 6.9036,0 12.5,-1.7909 12.5,-4 l -0.7864,-5.243 z"
     id="path4915"
     inkscape:connector-curvature="0" />
  <path
     style="fill:#213d44;stroke-width:0.0625"
     d="m 1620.5,32.986303 h -3 c -0.8284,0 -1.5,0.67157 -1.5,1.5 v 13 c 0,0.82843 0.6716,1.5 1.5,1.5 h 3 c 0.8284,0 1.5,-0.67157 1.5,-1.5 v -13 c 0,-0.82843 -0.6716,-1.5 -1.5,-1.5 z m -1.5,14.25 c -0.6903,0 -1.25,-0.55964 -1.25,-1.25 0,-0.69036 0.5597,-1.25 1.25,-1.25 0.6904,0 1.25,0.55964 1.25,1.25 0,0.69036 -0.5596,1.25 -1.25,1.25 z m 35.5,-14.25 h -3 c -0.8284,0 -1.5,0.67157 -1.5,1.5 v 13 c 0,0.82843 0.6716,1.5 1.5,1.5 h 3 c 0.8284,0 1.5,-0.67157 1.5,-1.5 v -13 c 0,-0.82843 -0.6716,-1.5 -1.5,-1.5 z m -1.5,14.25 c -0.6903,0 -1.25,-0.55964 -1.25,-1.25 0,-0.69036 0.5597,-1.25 1.25,-1.25 0.6904,0 1.25,0.55964 1.25,1.25 0,0.69036 -0.5596,1.25 -1.25,1.25 z m -6.6287,-15.458 2.6287,3.0044 v 11.204 h -1.1981 c 0.035,-0.935 -0.2738,-1.8113 -0.875,-2.4819 l -5.0575,-6.1819 c 0.1831,-0.2 0.1725,-0.51 -0.024,-0.6975 -0.1762,-0.16871 -0.4425,-0.1825 -0.6337,-0.04714 -0.026,0.01857 -3.7719,3.9331 -3.7719,3.9331 l -0.012,0.01286 c -1.494,1.6816 -4.1329,1.6377 -5.5719,-0.08879 -0.9675,-1.1612 -0.9556,-2.8369 0.028,-3.985 l 4.1606,-4.8544 c 0.8496,-0.99186 2.114,-1.6094 3.4994,-1.6094 h 2.8781 a 5.2488,5.2488 0 0 1 3.9494,1.7919 z m -0.2106,12.37 c 0.9662,1.0488 0.7868,2.7394 -0.1482,3.6094 -1.1069,1.0289 -2.6521,0.81279 -2.8706,0.575 0.1033,0.97864 -1.3368,2.9531 -3.5263,2.7925 -0.3953,1.3241 -2.0186,2.4318 -3.6987,1.8506 -0.6388,0.63814 -1.6138,0.93564 -2.4881,0.93564 -1.7931,0 -3.4325,-0.74936 -4.5363,-1.925 l -5.8925,-6 v -11.53 l 3.835,-3.1606 a 4.47,4.47 0 0 1 3.1606,-1.3094 h 2.3388 c 1.0456,0 2.0425,0.4275 2.7631,1.1781 l -3.9731,4.635 c -1.3025,1.5194 -1.3181,3.7381 -0.037,5.2762 1.8359,2.2029 5.1879,2.2409 7.0819,0.12 l 3.0069,-3.1469 z"
     id="path4917"
     inkscape:connector-curvature="0" />
  <path
     style="fill:#213d44;stroke-width:0.0625"
     d="m 1570.5417,154.38151 0.4464,-2.5 c 0.082,-0.45964 -0.2713,-0.88178 -0.7383,-0.88178 h -4.6756 l 0.914,-5.1182 c 0.082,-0.45964 -0.2714,-0.88178 -0.7383,-0.88178 h -2.5395 a 0.75,0.75 0 0 0 -0.7384,0.61821 l -0.961,5.3818 h -6.1646 l 0.9139,-5.1182 c 0.082,-0.45964 -0.2713,-0.88178 -0.7383,-0.88178 h -2.5395 a 0.75,0.75 0 0 0 -0.7384,0.61821 l -0.961,5.3818 h -4.9435 a 0.75,0.75 0 0 0 -0.7383,0.61821 l -0.4464,2.5 c -0.082,0.45964 0.2713,0.88179 0.7382,0.88179 h 4.6756 l -1.4286,8 h -4.9435 a 0.75,0.75 0 0 0 -0.7382,0.61821 l -0.4465,2.5 c -0.082,0.45964 0.2714,0.88179 0.7383,0.88179 h 4.6756 l -0.9139,5.1182 c -0.082,0.45964 0.2713,0.88179 0.7383,0.88179 h 2.5395 a 0.75,0.75 0 0 0 0.7383,-0.61822 l 0.9611,-5.3818 h 6.1646 l -0.9139,5.1182 c -0.082,0.45964 0.2713,0.88179 0.7383,0.88179 h 2.5395 a 0.75,0.75 0 0 0 0.7382,-0.61822 l 0.9611,-5.3818 h 4.9435 a 0.75,0.75 0 0 0 0.7384,-0.61822 l 0.4464,-2.5 c 0.082,-0.45964 -0.2714,-0.88178 -0.7384,-0.88178 h -4.6756 l 1.4286,-8 h 4.9435 a 0.75,0.75 0 0 0 0.7383,-0.61822 z m -11.174,8.6182 h -6.1646 l 1.4286,-8 h 6.1646 z"
     id="path4919"
     inkscape:connector-curvature="0" />
  <path
     style="fill:#213d44;stroke-width:0.0625"
     d="m 1569.4983,45.874303 v 8.9563 c 0,0.83121 -0.6687,1.5 -1.5,1.5 h -7.25 c -0.4125,0 -0.75,-0.3375 -0.75,-0.75 v -7 c 0,-0.4125 -0.3375,-0.75 -0.75,-0.75 h -4.5 c -0.4125,0 -0.75,0.3375 -0.75,0.75 v 7 c 0,0.4125 -0.3375,0.75 -0.75,0.75 h -7.25 c -0.8312,0 -1.5,-0.66879 -1.5,-1.5 v -8.9563 c 0,-0.225 0.1,-0.4375 0.275,-0.58121 l 11.75,-9.675 c 0.275,-0.225 0.675,-0.225 0.9563,0 l 11.75,9.675 c 0.1687,0.14371 0.2687,0.35621 0.2687,0.58121 z m 5.225,-3.8062 -5.225,-4.3063 v -8.6562 c 0,-0.4125 -0.3375,-0.75 -0.75,-0.75 h -3.5 c -0.4125,0 -0.75,0.3375 -0.75,0.75 v 4.5375 l -5.5937,-4.6063 c -1.1063,-0.9125 -2.7063,-0.9125 -3.8125,0 l -15.819,13.031 c -0.3187,0.2625 -0.3625,0.7375 -0.1,1.0562 l 1.5938,1.9375 c 0.2625,0.31879 0.7375,0.3625 1.0562,0.1 l 14.7,-12.106 c 0.275,-0.225 0.675,-0.225 0.9563,0 l 14.7,12.106 c 0.3187,0.2625 0.7937,0.21879 1.0562,-0.1 l 1.5938,-1.9375 c 0.2625,-0.325 0.2125,-0.79371 -0.1063,-1.0562 z"
     id="path4923"
     inkscape:connector-curvature="0" />
  <path
     style="fill:#213d44;stroke-width:0.0625"
     d="m 1607,83.999881 h -21 c -0.8284,0 -1.5,0.67157 -1.5,1.5 v 1 c 0,0.828429 0.6716,1.5 1.5,1.5 0,5.6853 3.1885,10.483 7.5526,12 -4.3642,1.516599 -7.5526,6.314699 -7.5526,11.999999 -0.8284,0 -1.5,0.67157 -1.5,1.5 v 1 c 0,0.82843 0.6716,1.5 1.5,1.5 h 21 c 0.8284,0 1.5,-0.67157 1.5,-1.5 v -1 c 0,-0.82843 -0.6716,-1.5 -1.5,-1.5 0,-5.6853 -3.1885,-10.483 -7.5526,-12 4.3641,-1.5166 7.5526,-6.3147 7.5526,-12 0.8284,0 1.5,-0.67157 1.5,-1.5 v -1 c 0,-0.82843 -0.6716,-1.5 -1.5,-1.499999 z m -4.6924,23.999999 h -11.615 c 1.0662,-2.9248 3.256,-5 5.8075,-5 2.5514,0 4.7414,2.0747 5.8076,5 z m 0,-16 h -11.616 c -0.4431,-1.2158 -0.6924,-2.5783 -0.6924,-4 h 13 c 0,1.4253 -0.2492,2.7867 -0.6912,4 z"
     id="path4925"
     inkscape:connector-curvature="0" />
  <g
     id="g5761"
     transform="translate(0,-8.75)">
    <a
       xlink:href="https://www.facebook.com/DurhamCompSoc"
       target="_parent"
       class="btn"
       id="facebook-btn"
       transform="translate(1004.6,-86.25)">
      <rect
         ry="7.5"
         rx="7.5"
         height="43.5"
         width="43.5"
         y="215.75"
         x="1093.2"
         class="btn-rect"
         id="facebook-btn-rect-3"
         style="fill-opacity:0;stroke:#95c5cd;stroke-width:1.5" />
      <path
         d="m 1111.6,253.25 v -14.089 h -4.7189 v -5.5986 h 4.7189 v -4.4112 c 0,-4.7927 2.9284,-7.4013 7.2042,-7.4013 2.0488,0 3.8084,0.1538 4.319,0.22148 v 5.008 h -2.9654 c -2.3256,0 -2.7747,1.1074 -2.7747,2.7255 v 3.8575 h 5.2479 l -0.7198,5.5986 h -4.5281 v 14.089"
         class="btn-icon"
         id="facebook-btn-icon-6"
         inkscape:connector-curvature="0"
         style="fill:#c6e3e9;stroke-width:0.061523" />
      <rect
         id="rect4302"
         height="75"
         width="75"
         y="200"
         x="1077.4"
         style="fill-opacity:0;stroke-width:0.86243999" />
    </a>
    <a
       xlink:href="https://ducompsoc.slack.com"
       target="_parent"
       class="btn"
       id="slack-btn"
       transform="translate(1015.65,-86.25)">
      <rect
         ry="7.5"
         rx="7.5"
         height="43.5"
         width="43.5"
         y="215.75"
         x="1175.8"
         class="btn-rect"
         id="slack-btn-rect-7"
         style="fill-opacity:0;stroke:#95c5cd;stroke-width:1.5" />
      <g
         transform="matrix(0.25832,0,0,0.25853,1162.4,201.17)"
         class="btn-icon"
         id="slack-btn-icon"
         style="fill:#c6e3e9">
        <g
           id="g4322"
           style="fill:#c6e3e9">
          <path
             id="path4306"
             d="m 154.3,87.1 c -1.9,-5.7 -8,-8.8 -13.7,-7 -5.7,1.9 -8.8,8 -7,13.7 l 28.1,86.4 c 1.9,5.3 7.7,8.3 13.2,6.7 5.8,-1.7 9.3,-7.8 7.4,-13.4 0,-0.2 -28,-86.4 -28,-86.4 z"
             class="st0"
             inkscape:connector-curvature="0" />
          <path
             id="path4308"
             d="m 110.8,101.2 c -1.9,-5.7 -8,-8.8 -13.7,-7 -5.7,1.9 -8.8,8 -7,13.7 l 28.1,86.4 c 1.9,5.3 7.7,8.3 13.2,6.7 5.8,-1.7 9.3,-7.8 7.4,-13.4 0,-0.2 -28,-86.4 -28,-86.4 z"
             class="st1"
             inkscape:connector-curvature="0" />
          <path
             id="path4310"
             d="m 189.7,158.6 c 5.7,-1.9 8.8,-8 7,-13.7 -1.9,-5.7 -8,-8.8 -13.7,-7 l -86.5,28.2 c -5.3,1.9 -8.3,7.7 -6.7,13.2 1.7,5.8 7.8,9.3 13.4,7.4 0.2,0 86.5,-28.1 86.5,-28.1 z"
             class="st2"
             inkscape:connector-curvature="0" />
          <path
             id="path4312"
             d="m 114.5,183.1 c 5.6,-1.8 12.9,-4.2 20.7,-6.7 -1.8,-5.6 -4.2,-12.9 -6.7,-20.7 l -20.7,6.7 z"
             class="st3"
             inkscape:connector-curvature="0" />
          <path
             id="path4314"
             d="m 158.1,168.9 c 7.8,-2.5 15.1,-4.9 20.7,-6.7 -1.8,-5.6 -4.2,-12.9 -6.7,-20.7 l -20.7,6.7 z"
             class="st4"
             inkscape:connector-curvature="0" />
          <path
             id="path4316"
             d="m 175.5,115.1 c 5.7,-1.9 8.8,-8 7,-13.7 -1.9,-5.7 -8,-8.8 -13.7,-7 l -86.4,28.1 c -5.3,1.9 -8.3,7.7 -6.7,13.2 1.7,5.8 7.8,9.3 13.4,7.4 0.2,0 86.4,-28 86.4,-28 z"
             class="st5"
             inkscape:connector-curvature="0" />
          <path
             id="path4318"
             d="m 100.4,139.5 c 5.6,-1.8 12.9,-4.2 20.7,-6.7 -2.5,-7.8 -4.9,-15.1 -6.7,-20.7 l -20.7,6.7 z"
             class="st6"
             inkscape:connector-curvature="0" />
          <path
             id="path4320"
             d="m 143.9,125.4 c 7.8,-2.5 15.1,-4.9 20.7,-6.7 -2.5,-7.8 -4.9,-15.1 -6.7,-20.7 l -20.7,6.7 z"
             class="st7"
             inkscape:connector-curvature="0" />
        </g>
      </g>
      <rect
         id="rect4325"
         height="75"
         width="75"
         y="200"
         x="1160.1"
         style="fill-opacity:0;stroke-width:0.86243999" />
    </a>
    <a
       xlink:href="/events"
       target="_parent"
       class="btn"
       id="calendar-btn"
       transform="translate(1026.9,-86.25)">
      <rect
         ry="7.5"
         rx="7.5"
         height="43.5"
         width="43.5"
         y="215.75"
         x="1258.3"
         class="btn-rect"
         id="calendar-btn-rect-5"
         style="fill-opacity:0;stroke:#95c5cd;stroke-width:1.5" />
      <path
         d="m 1293.1,231.59 h -26.086 c -0.4061,0 -0.7382,-0.33228 -0.7382,-0.7383 v -2.2148 c 0,-1.6304 1.3227,-2.9531 2.9532,-2.9531 h 2.9529 v -3.1992 c 0,-0.40592 0.3323,-0.73834 0.7384,-0.73834 h 2.4609 c 0.4061,0 0.7382,0.33227 0.7382,0.73834 v 3.1992 h 7.875 v -3.1992 c 0,-0.40592 0.3323,-0.73834 0.7384,-0.73834 h 2.4609 c 0.4061,0 0.7382,0.33227 0.7382,0.73834 v 3.1992 h 2.9532 c 1.6303,0 2.9531,1.3228 2.9531,2.9531 v 2.2148 c 0,0.40588 -0.3323,0.7383 -0.7382,0.7383 z m -26.086,1.9687 h 26.086 c 0.4061,0 0.7382,0.33225 0.7382,0.7383 v 15.996 c 0,1.6303 -1.3228,2.9531 -2.9531,2.9531 h -21.656 c -1.6305,0 -2.9532,-1.3228 -2.9532,-2.9531 v -15.996 c 0,-0.40638 0.3321,-0.7383 0.7382,-0.7383 z m 7.1367,12.551 c 0,-0.40639 -0.3321,-0.73833 -0.7381,-0.73833 h -2.4611 c -0.4061,0 -0.7383,0.33229 -0.7383,0.73833 v 2.4609 c 0,0.40588 0.3322,0.73826 0.7383,0.73826 h 2.4611 c 0.406,0 0.7381,-0.33227 0.7381,-0.73826 z m 0,-7.875 c 0,-0.40636 -0.3321,-0.73826 -0.7381,-0.73826 h -2.4611 c -0.4061,0 -0.7383,0.33225 -0.7383,0.73826 v 2.4609 c 0,0.40639 0.3322,0.73832 0.7383,0.73832 h 2.4611 c 0.406,0 0.7381,-0.33228 0.7381,-0.73832 z m 7.875,7.875 c 0,-0.40639 -0.3323,-0.73833 -0.7382,-0.73833 h -2.461 c -0.4061,0 -0.7383,0.33229 -0.7383,0.73833 v 2.4609 c 0,0.40588 0.3322,0.73826 0.7383,0.73826 h 2.461 c 0.4061,0 0.7382,-0.33227 0.7382,-0.73826 z m 0,-7.875 c 0,-0.40636 -0.3323,-0.73826 -0.7382,-0.73826 h -2.461 c -0.4061,0 -0.7383,0.33225 -0.7383,0.73826 v 2.4609 c 0,0.40639 0.3322,0.73832 0.7383,0.73832 h 2.461 c 0.4061,0 0.7382,-0.33228 0.7382,-0.73832 z m 7.875,7.875 c 0,-0.40639 -0.3323,-0.73833 -0.7384,-0.73833 h -2.4608 c -0.4061,0 -0.7382,0.33229 -0.7382,0.73833 v 2.4609 c 0,0.40588 0.3321,0.73826 0.7382,0.73826 h 2.4608 c 0.4061,0 0.7384,-0.33227 0.7384,-0.73826 z m 0,-7.875 c 0,-0.40636 -0.3323,-0.73826 -0.7384,-0.73826 h -2.4608 c -0.4061,0 -0.7382,0.33225 -0.7382,0.73826 v 2.4609 c 0,0.40639 0.3321,0.73832 0.7382,0.73832 h 2.4608 c 0.4061,0 0.7384,-0.33228 0.7384,-0.73832 z"
         class="btn-icon"
         id="calender-btn-icon-3"
         inkscape:connector-curvature="0"
         style="fill:#c6e3e9;stroke-width:0.061523" />
      <rect
         id="rect4330"
         height="75"
         width="75"
         y="200"
         x="1242.6"
         style="fill-opacity:0;stroke-width:0.86243999" />
    </a>
    <a
       xlink:href="https://github.com/ducompsoc"
       target="_parent"
       class="btn"
       id="github-btn"
       transform="translate(1037.45,-86.25)">
      <rect
         ry="7.5"
         rx="7.5"
         height="43.5"
         width="43.5"
         y="215.75"
         x="1341.6"
         class="btn-rect"
         id="github-btn-rect-5"
         style="fill-opacity:0;stroke:#95c5cd;stroke-width:1.5" />
      <path
         d="m 1358.1,246.87 c 0,0.12705 -0.1462,0.22863 -0.3303,0.22863 -0.2096,0.0191 -0.3557,-0.0825 -0.3557,-0.22863 0,-0.12705 0.1462,-0.22862 0.3302,-0.22862 0.1907,-0.0191 0.3558,0.0825 0.3558,0.22862 z m -1.9752,-0.28579 c -0.045,0.12705 0.082,0.27311 0.2731,0.31121 0.1651,0.0636 0.3557,0 0.3938,-0.12705 0.039,-0.12705 -0.082,-0.27308 -0.2732,-0.33026 -0.165,-0.0446 -0.3493,0.0191 -0.3937,0.1461 z m 2.8072,-0.108 c -0.1843,0.0446 -0.3113,0.16511 -0.2923,0.31119 0.019,0.12705 0.1843,0.20957 0.3748,0.1651 0.1841,-0.0446 0.3112,-0.1651 0.2921,-0.29213 -0.019,-0.1206 -0.1905,-0.20325 -0.3746,-0.18416 z m 4.1787,-24.336 c -8.8085,0 -15.547,6.6874 -15.547,15.496 0,7.0431 4.4328,13.07 10.765,15.191 0.8129,0.1461 1.0986,-0.35565 1.0986,-0.76845 0,-0.39375 -0.019,-2.5657 -0.019,-3.8994 0,0 -4.4455,0.95263 -5.3791,-1.8925 0,0 -0.724,-1.8481 -1.7655,-2.3244 0,0 -1.4544,-0.99707 0.1018,-0.97802 0,0 1.5813,0.12705 2.4514,1.6385 1.3908,2.4514 3.7216,1.7465 4.6297,1.3273 0.1461,-1.0162 0.5589,-1.7211 1.0162,-2.1402 -3.5502,-0.39375 -7.132,-0.90816 -7.132,-7.0176 0,-1.7465 0.4827,-2.6229 1.4988,-3.7406 -0.1652,-0.4128 -0.705,-2.1148 0.1652,-4.3122 1.3272,-0.41282 4.382,1.7147 4.382,1.7147 1.2702,-0.35564 2.6356,-0.53982 3.9882,-0.53982 1.3528,0 2.7182,0.18418 3.9883,0.53982 0,0 3.0548,-2.1339 4.3822,-1.7147 0.87,2.2037 0.3302,3.8994 0.1651,4.3122 1.0162,1.1241 1.6384,2.0005 1.6384,3.7406 0,6.1285 -3.7405,6.6175 -7.2906,7.0176 0.5842,0.50173 1.0796,1.4543 1.0796,2.9468 0,2.1402 -0.019,4.7885 -0.019,5.3093 0,0.41282 0.2921,0.91451 1.0987,0.76845 6.3508,-2.1085 10.657,-8.1354 10.657,-15.178 0,-8.8086 -7.1447,-15.496 -15.953,-15.496 z m -9.3738,21.904 c -0.082,0.0634 -0.064,0.20958 0.045,0.33023 0.1018,0.10157 0.2477,0.1461 0.3303,0.0636 0.082,-0.0636 0.064,-0.20959 -0.045,-0.33027 -0.1017,-0.10157 -0.2477,-0.1461 -0.3302,-0.0636 z m -0.6858,-0.51442 c -0.045,0.0825 0.019,0.18418 0.146,0.24769 0.1018,0.0636 0.2286,0.0446 0.2731,-0.0446 0.045,-0.0825 -0.019,-0.18417 -0.1461,-0.2477 -0.127,-0.0381 -0.2286,-0.0191 -0.2731,0.0446 z m 2.0576,2.2609 c -0.1018,0.0825 -0.064,0.27305 0.082,0.39375 0.1461,0.1461 0.3303,0.16512 0.4128,0.0636 0.082,-0.0825 0.045,-0.2731 -0.082,-0.39375 -0.1398,-0.1461 -0.3303,-0.16515 -0.4128,-0.0636 z m -0.724,-0.93359 c -0.1018,0.0636 -0.1018,0.22862 0,0.37469 0.1018,0.1461 0.2731,0.2096 0.3557,0.1461 0.1018,-0.0825 0.1018,-0.24768 0,-0.39375 -0.089,-0.1461 -0.254,-0.20957 -0.3557,-0.12705 z"
         class="btn-icon"
         id="github-btn-icon-6"
         inkscape:connector-curvature="0"
         style="fill:#c6e3e9;stroke-width:0.063508" />
      <rect
         id="rect4335"
         height="75"
         width="75"
         y="200"
         x="1325.8"
         style="fill-opacity:0;stroke-width:0.86243999" />
    </a>
    <a
       xlink:href="/contact"
       target="_parent"
       class="btn"
       id="email-btn"
       transform="translate(1049.5,-86.25)">
      <rect
         ry="7.5"
         rx="7.5"
         height="43.5"
         width="43.5"
         y="215.75"
         x="1423.3"
         class="btn-rect"
         id="email-btn-rect-2"
         style="fill-opacity:0;stroke:#95c5cd;stroke-width:1.5" />
      <path
         d="m 1460.2,233.49 c 0.24,-0.19073 0.5968,-0.0135 0.5968,0.28916 v 12.582 c 0,1.6304 -1.3228,2.9531 -2.9531,2.9531 h -25.594 c -1.6303,0 -2.9531,-1.3227 -2.9531,-2.9531 v -12.575 c 0,-0.30762 0.3506,-0.47989 0.5968,-0.28916 1.378,1.0705 3.2053,2.4302 9.4807,6.989 1.2981,0.94749 3.4883,2.9408 5.6725,2.9285 2.1964,0.0184 4.4297,-2.018 5.6786,-2.9285 6.2754,-4.5589 8.0965,-5.9247 9.4746,-6.9952 z m -15.153,7.9488 c 1.4273,0.0246 3.4822,-1.7965 4.5158,-2.5471 8.1642,-5.9247 8.7855,-6.4415 10.668,-7.9181 0.3569,-0.27683 0.5661,-0.70751 0.5661,-1.1628 v -1.169 c 0,-1.6304 -1.3228,-2.9531 -2.9531,-2.9531 h -25.594 c -1.6303,0 -2.9531,1.3227 -2.9531,2.9531 v 1.169 c 0,0.45527 0.2091,0.8798 0.566,1.1628 1.8826,1.4704 2.504,1.9934 10.668,7.9181 1.0336,0.75056 3.0885,2.5717 4.5159,2.5471 z"
         class="btn-icon"
         id="email-btn-icon-9"
         inkscape:connector-curvature="0"
         style="fill:#c6e3e9;stroke-width:0.061523" />
      <rect
         id="rect4340"
         height="75"
         width="75"
         y="200"
         x="1407.5"
         style="fill-opacity:0;stroke-width:0.86243999" />
    </a>
  </g>
</svg>
