<?xml version="1.0" encoding="UTF-8"?>
<svg style="background-color:#181818" width="515" height="200" version="1.1" viewBox="736 0 514 200" xmlns="http://www.w3.org/2000/svg" xmlns:cc="http://creativecommons.org/ns#" xmlns:dc="http://purl.org/dc/elements/1.1/" xmlns:rdf="http://www.w3.org/1999/02/22-rdf-syntax-ns#" xmlns:xlink="http://www.w3.org/1999/xlink">
  <metadata>
    <rdf:RDF>
      <cc:Work rdf:about="">
        <dc:format>image/svg+xml</dc:format>
        <dc:type rdf:resource="http://purl.org/dc/dcmitype/StillImage"/>
        <dc:title/>
      </cc:Work>
    </rdf:RDF>
  </metadata>
  <style type="text/css">/* jura-700 - latin */
    @font-face {
      font-family: 'Jura';
      font-style: normal;
      font-weight: 700;
      src: local('Jura Bold'), local('Jura-Bold'),
           url('/static/website/jura-v9-latin-700.woff2') format('woff2'), /* Chrome 26+, Opera 23+, Firefox 39+ */
           url('/static/website/jura-v9-latin-700.woff') format('woff'); /* Chrome 6+, Firefox 3.6+, IE 9+, Safari 5.1+ */
    }
    a.btn:hover .btn-rect
    {
      fill: #303030;
      fill-opacity: 1;
    }
    a.btn:hover
    {
      cursor: pointer;
    }</style>
  <g fill="#213d44">
    <g stroke-width=".071429">
      <path d="m2065.4 613.64c0 10.107-6.9214 17.3-17.143 17.3-9.8 0-17.714-7.9143-17.714-17.714 0-9.8 7.9142-17.714 17.714-17.714 4.7715 0 8.7858 1.75 11.879 4.6357l-4.8214 4.6357c-6.3072-6.0857-18.036-1.5143-18.036 8.4429 0 6.1786 4.9357 11.186 10.978 11.186 7.0143 0 9.6429-5.0286 10.057-7.6357h-10.057v-6.0929h16.864c0.1643 0.90714 0.2786 1.7786 0.2786 2.9571z"/>
      <path d="m2083.5 675.76c-0.9857 0-1.7786-0.79286-1.7786-1.7572 0-0.98571 0.7929-1.7786 1.7786-1.7786 0.9714 0 1.7571 0.79286 1.7571 1.7786 0 0.97143-0.7928 1.7572-1.7571 1.7572zm21.607-3.5357c0 9.7857-7.9286 17.714-17.714 17.714s-17.714-7.9286-17.714-17.714c0-9.7857 7.9286-17.714 17.714-17.714s17.714 7.9286 17.714 17.714zm-9.45-2.9428c-0.6714 0-1.2643 0.27857-1.7 0.71428-1.6-1.1071-3.7571-1.8214-6.15-1.9l1.2429-5.5929 3.9571 0.89286c0 0.97143 0.7929 1.7571 1.7572 1.7571 0.9857 0 1.7785-0.80714 1.7785-1.7786s-0.7928-1.7786-1.7785-1.7786c-0.6929 0-1.2858 0.41429-1.5786 0.98572l-4.3714-0.97143c-0.2143-0.0571-0.4358 0.1-0.4929 0.31428l-1.3643 6.1714c-2.3714 0.1-4.5071 0.80714-6.1071 1.9143-0.4357-0.45715-1.05-0.72857-1.7215-0.72857-2.4928 0-3.3071 3.35-1.0285 4.4857-0.079 0.35714-0.1215 0.72857-0.1215 1.1071 0 3.7572 4.2286 6.8 9.4286 6.8 5.2214 0 9.45-3.0428 9.45-6.8 0-0.37857-0.043-0.77143-0.1357-1.1286 2.2357-1.1429 1.4143-4.4643-1.0643-4.4643zm-4.9214 8.3c-1.3 1.3-5.4357 1.2786-6.6857 0-0.1572-0.15715-0.4357-0.15715-0.5929 0-0.1786 0.17857-0.1786 0.45714 0 0.61428 1.6286 1.6286 6.2357 1.6286 7.8714 0 0.1786-0.15714 0.1786-0.43571 0-0.61428-0.1571-0.15715-0.4357-0.15715-0.5928 0zm0.55-5.3572c-0.9714 0-1.7572 0.79286-1.7572 1.7786 0 0.97143 0.7929 1.7572 1.7572 1.7572 0.9857 0 1.7786-0.79286 1.7786-1.7572 0-0.98571-0.7858-1.7786-1.7786-1.7786z"/>
      <path d="m2142.2 733.57c-0.036 1.245-1.0864 2.2214-2.3321 2.2214h-3.9529v1.1429c0 1.5621-0.3485 3.0421-0.9714 4.3679l4.3022 4.3021c0.8928 0.89214 0.8928 2.3393 0 3.2321-0.8929 0.89286-2.34 0.89286-3.2322 0l-3.91-3.9093c-1.7678 1.4336-4.02 2.2928-6.4743 2.2928v-17.429c0-0.47286-0.3835-0.85714-0.8571-0.85714h-1.7143c-0.4729 0-0.8571 0.38428-0.8571 0.85714v17.429c-2.4536 0-4.7058-0.85928-6.4736-2.2928l-3.91 3.9093c-0.8929 0.89286-2.34 0.89286-3.2322 0-0.8928-0.89286-0.8928-2.34 0-3.2321l4.3015-4.3021c-0.6222-1.3257-0.9715-2.8057-0.9715-4.3679v-1.1429h-3.9521c-1.245 0-2.2979-0.97643-2.3321-2.2214-0.036-1.2914 1.0007-2.35 2.285-2.35h3.9992v-4.1957l-3.33-3.3307c-0.8928-0.89285-0.8928-2.34 0-3.2321 0.8929-0.89286 2.3393-0.89286 3.2322 0l3.9021 3.9014h16.392l3.9021-3.9014c0.8922-0.89286 2.3393-0.89286 3.2322 0 0.8928 0.89214 0.8928 2.3393 0 3.2321l-3.3308 3.3307v4.1957h4c1.2843 0 2.3208 1.0586 2.285 2.35zm-18.214-20.636c-4.4179 0-8 3.5821-8 8h16c0-4.4179-3.5815-8-8-8z"/>
      <path d="m2217.2 622.37c0.4714 0 0.8571 0.38572 0.8571 0.85715v2.8571c0 0.47143-0.3857 0.85714-0.8571 0.85714h-34.857c-0.4714 0-0.8571-0.38571-0.8571-0.85714v-25.714c0-0.47143 0.3857-0.85714 0.8571-0.85714h2.8572c0.4714 0 0.8571 0.38571 0.8571 0.85714v22zm-9.0929-16.036-6.05 4.0357-6.0928-8.1214c-0.3643-0.48571-1.1072-0.45-1.4215 0.0714l-6.2 10.336v7.4286h27.429l-6.4214-13.414c-0.2286-0.46428-0.8143-0.62143-1.2429-0.33571z"/>
      <path d="m1989.4 622.37c0.4715 0 0.8572 0.38571 0.8572 0.85714v2.8571c0 0.47143-0.3857 0.85715-0.8572 0.85715h-34.857c-0.4714 0-0.8571-0.38572-0.8571-0.85715v-25.714c0-0.47143 0.3857-0.85714 0.8571-0.85714h2.8571c0.4715 0 0.8572 0.38571 0.8572 0.85714v22zm-3.1428-20.571h-8c-1.5286 0-2.2929 1.85-1.2143 2.9286l2.35 2.35-5.1429 5.2071-3.9714-3.9714c-0.3357-0.33571-0.8714-0.33571-1.2071 0l-8.5 8.4143c-0.3357 0.32857-0.3429 0.87143-0.014 1.2071l2.0357 2.1c0.3357 0.34286 0.8857 0.35 1.2214 7e-3l5.8643-5.8643 3.9643 3.9643c0.3357 0.33572 0.8786 0.33572 1.2143 0l7.8-7.8 2.3857 2.3857c1.0786 1.0786 2.9286 0.31428 2.9286-1.2143v-8c0-0.95-0.7643-1.7143-1.7143-1.7143z"/>
      <path d="m1455.4 1049.9 6.4429 6.4429c0.2714 0.2715 0.2714 0.7143 0 0.9857l-15.6 15.6-6.6286 0.7357c-0.8857 0.1-1.6357-0.65-1.5357-1.5357l0.7357-6.6286 15.6-15.6c0.2714-0.2714 0.7143-0.2714 0.9857 0zm11.571-1.6357-3.4857-3.4857c-1.0857-1.0857-2.85-1.0857-3.9428 0l-2.5286 2.5286c-0.2714 0.2715-0.2714 0.7143 0 0.9857l6.4429 6.4429c0.2714 0.2715 0.7142 0.2715 0.9857 0l2.5285-2.5286c1.0858-1.0929 1.0858-2.8571 0-3.9429zm-12.9 20.421v7.2714h-22.857v-22.857h16.414c0.2286 0 0.4428-0.093 0.6071-0.25l2.8572-2.8571c0.5428-0.5428 0.1571-1.4643-0.6072-1.4643h-20.414c-1.8928 0-3.4285 1.5357-3.4285 3.4286v25.143c0 1.8929 1.5357 3.4286 3.4285 3.4286h25.143c1.8929 0 3.4286-1.5357 3.4286-3.4286v-11.271c0-0.7643-0.9215-1.1429-1.4643-0.6071l-2.8572 2.8571c-0.1571 0.1643-0.25 0.3786-0.25 0.6071z"/>
      <path d="m1909.8 603.65v0.43286h-9.1428v-9.1428h0.4328c0.455 0 0.8908 0.18071 1.2122 0.50214l6.9964 6.9957a1.7146 1.7146 0 0 1 0.5014 1.2121zm-9.7142 2.7186c-0.9429 0-1.7143-0.77143-1.7143-1.7143v-9.7143h-14.286c-0.9465 0-1.7143 0.76786-1.7143 1.7143v33.143c0 0.94714 0.7678 1.7143 1.7143 1.7143h24c0.9471 0 1.7142-0.76714 1.7142-1.7143v-23.429zm-8.9136 17.179a0.38571 0.38571 0 0 1-0.545 0.0143l-4.6336-4.3436a0.38571 0.38571 0 0 1 0-0.56286l4.6336-4.3436a0.38571 0.38571 0 0 1 0.545 0.0143l1.3986 1.4921a0.38571 0.38571 0 0 1-0.029 0.55357l-2.9122 2.5621 2.9122 2.5621a0.38571 0.38571 0 0 1 0.029 0.55356zm3.6643 3.6057-1.9615-0.56928a0.38586 0.38586 0 0 1-0.2628-0.47786l4.3886-15.116a0.38586 0.38586 0 0 1 0.4778-0.26286l1.9614 0.56929a0.38571 0.38571 0 0 1 0.2629 0.47786l-4.3886 15.116a0.3855 0.3855 0 0 1-0.4778 0.26285zm11.485-7.9321-4.6336 4.3436a0.38571 0.38571 0 0 1-0.545-0.0143l-1.3986-1.4914a0.38571 0.38571 0 0 1 0.029-0.55357l2.9114-2.5621-2.9114-2.5629a0.38571 0.38571 0 0 1-0.029-0.55357l1.3986-1.4914a0.38571 0.38571 0 0 1 0.545-0.0143l4.6336 4.3436a0.38571 0.38571 0 0 1 0 0.56286z"/>
      <path d="m2004.9 664.51h-10.864c-0.4714 0-0.8571-0.38571-0.8571-0.85714v-5.7143c0-1.4214 1.15-2.5714 2.5714-2.5714h7.4286c1.4214 0 2.5714 1.15 2.5714 2.5714v5.7143c0.01 0.47143-0.3786 0.85714-0.85 0.85714zm24.857-0.85714v-5.7214c0-1.4214-1.15-2.5714-2.5715-2.5714h-7.4285c-1.4215 0-2.5715 1.15-2.5715 2.5714v5.7143c0 0.47143 0.3857 0.85714 0.8572 0.85714h10.857c0.4714 7e-3 0.8572-0.37857 0.8572-0.85zm-11.714 3.1429c-0.4715 0-0.8572 0.38571-0.8572 0.85714v3.7143c0 9.15-11.428 9.1357-11.428 0v-3.7143c0-0.47143-0.3858-0.85714-0.8572-0.85714h-10.857c-0.4786 0-0.8572 0.38571-0.8572 0.86428 0.01 1.5286 0.043 2.8786 0 3.8072 0 10.757 9.7286 17.614 18.343 17.614s18.221-6.8571 18.221-17.621c-0.043-0.91428-0.014-2.3571 0-3.8 0-0.47857-0.3786-0.86428-0.8571-0.86428z"/>
      <path d="m2135.3 598.37v29.714c0 1.8936-1.535 3.4286-3.4286 3.4286h-16c-1.8936 0-3.4286-1.535-3.4286-3.4286v-29.714c0-1.8936 1.535-3.4286 3.4286-3.4286h16c1.8936 0 3.4286 1.535 3.4286 3.4286zm6.8571 4.1429v0.85714a0.42857 0.42857 0 0 1-0.4286 0.42857h-1.2857v0.42857a0.42857 0.42857 0 0 1-0.4285 0.42857h-3v-3.4286h3a0.42857 0.42857 0 0 1 0.4285 0.42857v0.42857h1.2857a0.42857 0.42857 0 0 1 0.4286 0.42857zm0 6.8571v0.85714a0.42857 0.42857 0 0 1-0.4286 0.42857h-1.2857v0.42857a0.42857 0.42857 0 0 1-0.4285 0.42857h-3v-3.4286h3a0.42857 0.42857 0 0 1 0.4285 0.42857v0.42857h1.2857a0.42857 0.42857 0 0 1 0.4286 0.42857zm0 6.8571v0.85714a0.42857 0.42857 0 0 1-0.4286 0.42857h-1.2857v0.42857a0.42857 0.42857 0 0 1-0.4285 0.42857h-3v-3.4286h3a0.42857 0.42857 0 0 1 0.4285 0.42857v0.42857h1.2857a0.42857 0.42857 0 0 1 0.4286 0.42857zm0 6.8571v0.85714a0.42857 0.42857 0 0 1-0.4286 0.42857h-1.2857v0.42857a0.42857 0.42857 0 0 1-0.4285 0.42857h-3v-3.4286h3a0.42857 0.42857 0 0 1 0.4285 0.42857v0.42858h1.2857a0.42857 0.42857 0 0 1 0.4286 0.42857zm-34.429-1.2857h3v3.4286h-3a0.42857 0.42857 0 0 1-0.4285-0.42857v-0.42857h-1.2857a0.42857 0.42857 0 0 1-0.4286-0.42857v-0.85714a0.42857 0.42857 0 0 1 0.4286-0.42857h1.2857v-0.42858a0.42857 0.42857 0 0 1 0.4285-0.42857zm0-6.8571h3v3.4286h-3a0.42857 0.42857 0 0 1-0.4285-0.42857v-0.42857h-1.2857a0.42857 0.42857 0 0 1-0.4286-0.42857v-0.85714a0.42857 0.42857 0 0 1 0.4286-0.42857h1.2857v-0.42857a0.42857 0.42857 0 0 1 0.4285-0.42857zm0-6.8571h3v3.4286h-3a0.42857 0.42857 0 0 1-0.4285-0.42857v-0.42857h-1.2857a0.42857 0.42857 0 0 1-0.4286-0.42857v-0.85714a0.42857 0.42857 0 0 1 0.4286-0.42857h1.2857v-0.42857a0.42857 0.42857 0 0 1 0.4285-0.42857zm0-6.8571h3v3.4286h-3a0.42857 0.42857 0 0 1-0.4285-0.42857v-0.42857h-1.2857a0.42857 0.42857 0 0 1-0.4286-0.42857v-0.85714a0.42857 0.42857 0 0 1 0.4286-0.42857h1.2857v-0.42857a0.42857 0.42857 0 0 1 0.4285-0.42857z"/>
      <path d="m2066.8 717.51h-33.143c-0.9471 0-1.7143 0.76786-1.7143 1.7143v0.57143h-2.8571c-0.9472 0-1.7143 0.76785-1.7143 1.7143v19.429c0 2.2093 1.7907 4 4 4h33.714c1.8936 0 3.4286-1.535 3.4286-3.4286v-22.286c0-0.94643-0.7679-1.7143-1.7143-1.7143zm-35.429 24a0.57143 0.57143 0 0 1-0.5714-0.57143v-17.714h1.1428v17.714a0.57143 0.57143 0 0 1-0.5714 0.57143zm16.857-1.1429h-10.857c-0.4736 0-0.8571-0.38357-0.8571-0.85714v-0.57143c0-0.47357 0.3835-0.85714 0.8571-0.85714h10.857c0.4729 0 0.8572 0.38357 0.8572 0.85714v0.57143c0 0.47357-0.3843 0.85714-0.8572 0.85714zm14.857 0h-10.857c-0.4735 0-0.8571-0.38357-0.8571-0.85714v-0.57143c0-0.47357 0.3836-0.85714 0.8571-0.85714h10.857c0.4728 0 0.8571 0.38357 0.8571 0.85714v0.57143c0 0.47357-0.3843 0.85714-0.8571 0.85714zm-14.857-6.8571h-10.857c-0.4736 0-0.8571-0.38357-0.8571-0.85715v-0.57146c0-0.47357 0.3835-0.85714 0.8571-0.85714h10.857c0.4729 0 0.8572 0.38357 0.8572 0.85714v0.57146c0 0.47358-0.3843 0.85715-0.8572 0.85715zm14.857 0h-10.857c-0.4735 0-0.8571-0.38357-0.8571-0.85715v-0.57146c0-0.47357 0.3836-0.85714 0.8571-0.85714h10.857c0.4728 0 0.8571 0.38357 0.8571 0.85714v0.57146c0 0.47358-0.3843 0.85715-0.8571 0.85715zm0-6.8572h-25.714c-0.4736 0-0.8571-0.38357-0.8571-0.85714v-2.8572c0-0.47357 0.3835-0.85714 0.8571-0.85714h25.714c0.4728 0 0.8571 0.38357 0.8571 0.85714v2.8572c0 0.47357-0.3843 0.85714-0.8571 0.85714z"/>
      <path d="m2173.7 658.09c4.5 3.2143 7.4286 8.4714 7.4286 14.421 0 9.7714-7.9143 17.693-17.679 17.714-9.75 0.0214-17.736-7.9286-17.75-17.686-0.01-5.95 2.9214-11.221 7.4143-14.443 0.8357-0.59285 2-0.34285 2.5 0.55l1.1286 2.0072c0.4214 0.75 0.2214 1.7-0.4715 2.2143-2.9642 2.2-4.8571 5.6857-4.8571 9.6357-0.01 6.5928 5.3214 12.007 12 12.007 6.5429 0 12.043-5.3 12-12.079-0.021-3.7-1.7643-7.2714-4.8643-9.5714-0.6928-0.51429-0.8857-1.4643-0.4643-2.2071l1.1286-2.0072c0.5-0.88571 1.6571-1.15 2.4857-0.55714zm-7.4286 14.993v-17.143c0-0.95-0.7642-1.7143-1.7142-1.7143h-2.2858c-0.95 0-1.7142 0.76428-1.7142 1.7143v17.143c0 0.95 0.7642 1.7143 1.7142 1.7143h2.2858c0.95 0 1.7142-0.76428 1.7142-1.7143z"/>
      <path d="m1918.2 737.48-7.1918 7.1914c-0.6695 0.67-1.7549 0.67-2.4244 0l-7.1919-7.1914c-0.6695-0.66928-0.6695-1.755 0-2.4243l0.773-0.77358c0.683-0.68285 1.7953-0.66714 2.4585 0.0357l2.8868 3.0564v-13.009h-13.396a1.7146 1.7146 0 0 1-1.2122-0.50215l-1.1429-1.1428c-1.0799-1.08-0.3151-2.9264 1.2122-2.9264h17.396c0.9468 0 1.7143 0.76785 1.7143 1.7143v15.866l2.8868-3.0564c0.6632-0.70214 1.7754-0.71857 2.4585-0.0357l0.7731 0.77358c0.6694 0.66928 0.6694 1.755 0 2.4243zm-18.938 1.1021a1.7142 1.7142 0 0 0-1.2122-0.50214h-13.396v-13.009l2.8868 3.0564c0.6633 0.70214 1.7755 0.71857 2.4585 0.0357l0.773-0.77357c0.6695-0.66928 0.6695-1.755 0-2.4243l-7.1918-7.1914c-0.6695-0.67-1.7549-0.67-2.4244 0l-7.1919 7.1914c-0.6695 0.67-0.6695 1.755 0 2.4243l0.773 0.77357c0.683 0.68286 1.7952 0.66715 2.4585-0.0357l2.8869-3.0564v15.866c0 0.94643 0.7675 1.7143 1.7142 1.7143h17.396c1.5273 0 2.2921-1.8464 1.2122-2.9264z"/>
      <path d="m1831.9 595.3c-0.093-0.43571-0.4357-0.77857-0.8714-0.87143-2.3-0.49286-4.1-0.49286-5.8929-0.49286-7.3714 0-11.793 3.9429-15.093 9.1429h-7.4429c-1.3 0-2.4857 0.73571-3.0643 1.8929l-3.5285 7.0571c-0.5715 1.1429 0.2571 2.4786 1.5357 2.4786h6.7928c-0.4214 0.91429-0.85 1.8214-1.2857 2.6929-0.2214 0.44286-0.1357 0.97143 0.2143 1.3214l4.5429 4.5429c0.35 0.35 0.8785 0.43571 1.3214 0.21429 0.8714-0.43572 1.7786-0.85715 2.6929-1.2786v6.7929c0 1.2714 1.3428 2.1 2.4785 1.5357l7.05-3.5286c1.1643-0.57857 1.8929-1.7714 1.8929-3.0643v-7.4571c5.1857-3.3071 9.1428-7.7429 9.1428-15.079 0.01-1.8 0.01-3.6-0.4857-5.9zm-7.5071 10.064c-1.8929 0-3.4286-1.5357-3.4286-3.4286s1.5357-3.4286 3.4286-3.4286c1.8928 0 3.4285 1.5357 3.4285 3.4286s-1.5357 3.4286-3.4285 3.4286z"/>
      <path d="m2594.5 604.22-5.9916-5.9916a3.4286 3.4286 0 0 0-2.4243-1.0042h-19.151c-1.8936 0-3.4286 1.535-3.4286 3.4286v25.143c0 1.8936 1.535 3.4286 3.4286 3.4286h25.143c1.8936 0 3.4286-1.535 3.4286-3.4286v-19.151a3.4286 3.4286 0 0 0-1.0042-2.4244zm-14.996 20.433c-2.5247 0-4.5714-2.0467-4.5714-4.5714s2.0467-4.5714 4.5714-4.5714 4.5714 2.0467 4.5714 4.5714-2.0467 4.5714-4.5714 4.5714zm6.8571-21.751v7.18c0 0.47335-0.3837 0.85714-0.8571 0.85714h-16.571c-0.4734 0-0.8572-0.38379-0.8572-0.85714v-7.4286c0-0.47335 0.3838-0.85714 0.8572-0.85714h16.323c0.2274 0 0.4454 0.0903 0.6061 0.25107l0.2486 0.24857a0.85686 0.85686 0 0 1 0.251 0.60608z"/>
      <path d="m1794.8 662.08c0 15.806-9.7096 24.617-15.824 27.165a3.4286 3.4286 0 0 1-2.6373 0c-7.6459-3.1857-15.824-12.987-15.824-27.165a3.4286 3.4286 0 0 1 2.11-3.165l13.714-5.7143a3.4286 3.4286 0 0 1 2.6373 0l13.714 5.7143a3.4286 3.4286 0 0 1 2.1099 3.165zm-17.143 22.736h0.01c6.6954-3.335 12.321-11.165 12.558-21.981l-12.563-5.2343z"/>
      <path d="m1915.3 681.36h4c0.4715 0 0.8572 0.38571 0.8572 0.85714v7.4286c0 0.47143-0.3857 0.85715-0.8572 0.85715h-4c-0.4714 0-0.8571-0.38572-0.8571-0.85715v-7.4286c0-0.47143 0.3857-0.85714 0.8571-0.85714zm8.2858-2.5714v10.857c0 0.47143 0.3857 0.85715 0.8571 0.85715h4c0.4714 0 0.8571-0.38572 0.8571-0.85715v-10.857c0-0.47143-0.3857-0.85714-0.8571-0.85714h-4c-0.4714 0-0.8571 0.38571-0.8571 0.85714zm9.1428-5.7143v16.571c0 0.47143 0.3857 0.85715 0.8572 0.85715h4c0.4714 0 0.8571-0.38572 0.8571-0.85715v-16.571c0-0.47143-0.3857-0.85715-0.8571-0.85715h-4c-0.4715 0-0.8572 0.38572-0.8572 0.85715zm9.1429-8v24.571c0 0.47143 0.3857 0.85715 0.8571 0.85715h4c0.4714 0 0.8572-0.38572 0.8572-0.85715v-24.571c0-0.47143-0.3858-0.85715-0.8572-0.85715h-4c-0.4714 0-0.8571 0.38572-0.8571 0.85715zm9.1428-10.286v34.857c0 0.47143 0.3857 0.85715 0.8572 0.85715h4c0.4714 0 0.8571-0.38572 0.8571-0.85715v-34.857c0-0.47143-0.3857-0.85714-0.8571-0.85714h-4c-0.4715 0-0.8572 0.38571-0.8572 0.85714z"/>
      <path d="m2221 735.79h-3.4286v-3.4286c0-1.575-1.2817-2.8571-2.8572-2.8571h-13.143v-2.8572h3.4285c0.9468 0 1.7143-0.76714 1.7143-1.7143v-10.286c0-0.94643-0.7675-1.7143-1.7143-1.7143h-10.286c-0.9467 0-1.7142 0.76785-1.7142 1.7143v10.286c0 0.94714 0.7675 1.7143 1.7142 1.7143h3.4287v2.8572h-13.143c-1.5754 0-2.8572 1.2821-2.8572 2.8571v3.4286h-3.4285c-0.9468 0-1.7143 0.76786-1.7143 1.7143v10.286c0 0.94714 0.7675 1.7143 1.7143 1.7143h10.286c0.9467 0 1.7142-0.76715 1.7142-1.7143v-10.286c0-0.94643-0.7675-1.7143-1.7142-1.7143h-3.4286v-2.8571h12.572v2.8571h-3.4287c-0.9467 0-1.7142 0.76786-1.7142 1.7143v10.286c0 0.94714 0.7675 1.7143 1.7142 1.7143h10.286c0.9468 0 1.7143-0.76715 1.7143-1.7143v-10.286c0-0.94643-0.7675-1.7143-1.7143-1.7143h-3.4285v-2.8571h12.571v2.8571h-3.4285c-0.9468 0-1.7143 0.76786-1.7143 1.7143v10.286c0 0.94714 0.7675 1.7143 1.7143 1.7143h10.286c0.9467 0 1.7142-0.76715 1.7142-1.7143v-10.286c0-0.94643-0.7675-1.7143-1.7142-1.7143z"/>
      <path d="m1953.7 730.94v-14.58c0-1.8936 1.535-3.4286 3.4286-3.4286h14.58a3.4286 3.4286 0 0 1 2.4243 1.0043l15.134 15.134c1.339 1.3393 1.339 3.51 0 4.8493l-14.58 14.579c-1.3388 1.3393-3.5098 1.3393-4.8486 0l-15.134-15.134a3.4286 3.4286 0 0 1-1.0042-2.4243zm8-13.437c-1.8935 0-3.4285 1.535-3.4285 3.4286s1.535 3.4286 3.4285 3.4286 3.4285-1.535 3.4285-3.4286-1.535-3.4286-3.4285-3.4286z"/>
      <path d="m1856.5 680.36h-5.7143c-0.95 0-1.7143-0.76429-1.7143-1.7143v-12h-6.2643c-1.2714 0-1.9071-1.5357-1.0071-2.4357l10.864-10.871c0.5357-0.53571 1.4143-0.53571 1.95 0l10.871 10.871c0.9 0.9 0.2643 2.4357-1.0072 2.4357h-6.2642v12c0 0.95-0.7643 1.7143-1.7143 1.7143zm15.428-0.57143v8c0 0.95-0.7642 1.7143-1.7142 1.7143h-33.143c-0.95 0-1.7143-0.76429-1.7143-1.7143v-8c0-0.95 0.7643-1.7143 1.7143-1.7143h9.7143v0.57143c0 2.2072 1.7929 4 4 4h5.7143c2.2072 0 4-1.7928 4-4v-0.57143h9.7143c0.95 0 1.7142 0.76429 1.7142 1.7143zm-8.8571 6.2857c0-0.78571-0.6429-1.4286-1.4286-1.4286s-1.4285 0.64286-1.4285 1.4286c0 0.78572 0.6428 1.4286 1.4285 1.4286s1.4286-0.64286 1.4286-1.4286zm4.5714 0c0-0.78571-0.6428-1.4286-1.4285-1.4286-0.7858 0-1.4286 0.64286-1.4286 1.4286 0 0.78572 0.6428 1.4286 1.4286 1.4286 0.7857 0 1.4285-0.64286 1.4285-1.4286z"/>
    </g>
    <g stroke-width=".0625">
      <path d="m1804.1 724.22h20v12h-20zm25 6c0 1.6569 1.343 3 3 3v6c0 1.6569-1.3432 3-3 3h-30c-1.6569 0-3-1.3431-3-3v-6c1.6569 0 3-1.3431 3-3 0-1.6568-1.3431-3-3-3v-6c0-1.6568 1.3431-3 3-3h30c1.6568 0 3 1.3432 3 3v6c-1.657 0-3 1.3432-3 3zm-3-6.5c0-0.82844-0.6715-1.5-1.5-1.5h-21c-0.8285 0-1.5 0.67156-1.5 1.5v13c0 0.82843 0.6715 1.5 1.5 1.5h21c0.8285 0 1.5-0.67157 1.5-1.5z"/>
      <path d="m2577 729.46h-12.711c-0.4206 0-0.7614-0.3412-0.7614-0.76192v-12.72c0-0.42072 0.3408-0.76192 0.7614-0.76192h3.0456c0.4205 0 0.7614 0.3412 0.7614 0.76192v4.9596c2.9041-3.2276 7.1228-5.2472 11.813-5.2132 8.6866 0.0632 15.637 7.0873 15.619 15.78-0.018 8.6807-7.0563 15.712-15.736 15.712-4.0663 0-7.7723-1.5438-10.565-4.0772-0.3237-0.29345-0.3385-0.79712-0.03-1.106l2.1552-2.1566c0.2839-0.28408 0.74-0.29953 1.0407-0.0334 1.9693 1.7437 4.5592 2.8017 7.3988 2.8017 6.1716 0 11.167-4.9979 11.167-11.175 0-6.1757-4.9946-11.175-11.167-11.175-3.7115 0-6.9972 1.8081-9.0273 4.5928h6.2355c0.4205 0 0.7614 0.34112 0.7614 0.76191v3.0477c0 0.42072-0.3409 0.76192-0.7614 0.76192z"/>
      <path d="m2362.7 745.22h-22c-1.657 0-3-1.3431-3-3v-22c0-1.6569 1.343-3 3-3h22c1.6568 0 3 1.3431 3 3v22c0 1.6569-1.3432 3-3 3zm-12.793-6.1286 11.5-11.5c0.3905-0.3905 0.3905-1.0237 0-1.4142l-1.4141-1.4141c-0.3905-0.3905-1.0237-0.39057-1.4143 0l-9.3786 9.3786-4.3787-4.3786c-0.3905-0.3905-1.0238-0.3905-1.4143 0l-1.4142 1.4141c-0.3905 0.3905-0.3905 1.0237 0 1.4142l6.5 6.5c0.3906 0.39065 1.0237 0.39065 1.4142 7e-5z"/>
      <path d="m2327.3 665.22c0-2.7625-2.2375-5-5-5s-5 2.2375-5 5c0 2.275 1.5187 4.1937 3.5937 4.8-0.037 1.0062-0.2625 1.7812-0.6875 2.3062-0.9625 1.2-3.0812 1.4-5.325 1.6063-1.7625 0.1625-3.5875 0.3375-5.0812 1.0562v-8.9999c2.0312-0.6375 3.5-2.5313 3.5-4.7688 0-2.7625-2.2375-5-5-5s-5 2.2375-5 5c0 2.2375 1.4687 4.1313 3.5 4.7688v12.456c-2.0313 0.64372-3.5 2.5375-3.5 4.775 0 2.7625 2.2375 5 5 5s5-2.2375 5-5c0-2.125-1.325-3.9438-3.2-4.6625 0.1937-0.325 0.4875-0.6125 0.9312-0.8375 1.0125-0.5125 2.525-0.65 4.1313-0.8 2.6375-0.24378 5.625-0.525 7.3875-2.7125 0.875-1.0875 1.3187-2.4875 1.35-4.2438 1.975-0.675 3.4-2.5437 3.4-4.7437zm-19-5c0.55 0 1 0.45 1 1s-0.45 1-1 1-1-0.45-1-1 0.45-1 1-1zm0 24c-0.55 0-1-0.45-1-1s0.45-1 1-1 1 0.45 1 1-0.45 1-1 1zm14-20c0.55 0 1 0.45 1 1s-0.45 1-1 1-1-0.45-1-1 0.45-1 1-1z"/>
      <path d="m2439.4 733.41 2.6635 1.5374c0.3041 0.17556 0.4454 0.53863 0.3411 0.87406-0.6918 2.2276-1.8731 4.2401-3.418 5.9116a0.751 0.751 0 0 1-0.927 0.14086l-2.6615-1.5372a11.974 11.974 0 0 1-3.7975 2.1956v3.0739a0.75062 0.75062 0 0 1-0.586 0.73242c-2.1847 0.49058-4.5312 0.516-6.8262 4.3e-4 -0.3431-0.0771-0.5877-0.381-0.5877-0.73271v-3.074a11.972 11.972 0 0 1-3.7974-2.1956l-2.6615 1.5372a0.751 0.751 0 0 1-0.927-0.14086c-1.5449-1.6715-2.7262-3.684-3.4181-5.9116-0.1041-0.33536 0.037-0.69843 0.3412-0.87407l2.6636-1.5374a12.092 12.092 0 0 1 0-4.3874l-2.6635-1.5374c-0.3042-0.17557-0.4454-0.53863-0.3412-0.87406 0.6918-2.2276 1.8731-4.2401 3.4181-5.9116a0.751 0.751 0 0 1 0.927-0.14086l2.6615 1.5372a11.974 11.974 0 0 1 3.7974-2.1956v-3.0739a0.75062 0.75062 0 0 1 0.5861-0.73241c2.1847-0.49058 4.5311-0.516 6.8261-4.3e-4 0.3431 0.0771 0.5877 0.381 0.5877 0.73271v3.074a11.972 11.972 0 0 1 3.7974 2.1956l2.6615-1.5372a0.751 0.751 0 0 1 0.927 0.14086c1.5449 1.6715 2.7263 3.684 3.4181 5.9116 0.1042 0.33536-0.037 0.69843-0.3412 0.87407l-2.6635 1.5374a12.093 12.093 0 0 1 0 4.3875zm-6.7993-2.1938c0-2.757-2.243-5-5-5s-5 2.243-5 5 2.243 5 5 5 5-2.243 5-5z"/>
      <path d="m2440.9 609.22h-7.75c-0.8312 0-1.5-0.66871-1.5-1.5v-7.75c0-0.4125 0.3375-0.75 0.75-0.75h2.5c0.4125 0 0.75 0.3375 0.75 0.75v5.25h5.25c0.4125 0 0.75 0.3375 0.75 0.75v2.5c0 0.4125-0.3375 0.75-0.75 0.75zm-17.25-1.5v-7.75c0-0.4125-0.3375-0.75-0.75-0.75h-2.5c-0.4125 0-0.75 0.3375-0.75 0.75v5.25h-5.25c-0.4125 0-0.75 0.3375-0.75 0.75v2.5c0 0.4125 0.3375 0.75 0.75 0.75h7.75c0.8313 0 1.5-0.66871 1.5-1.5zm0 18.75v-7.75c0-0.83121-0.6687-1.5-1.5-1.5h-7.75c-0.4125 0-0.75 0.3375-0.75 0.75v2.5c0 0.4125 0.3375 0.75 0.75 0.75h5.25v5.25c0 0.4125 0.3375 0.75 0.75 0.75h2.5c0.4125 0 0.75-0.3375 0.75-0.75zm12 0v-5.25h5.25c0.4125 0 0.75-0.3375 0.75-0.75v-2.5c0-0.4125-0.3375-0.75-0.75-0.75h-7.75c-0.8312 0-1.5 0.66879-1.5 1.5v7.75c0 0.4125 0.3375 0.75 0.75 0.75h2.5c0.4125 0 0.75-0.3375 0.75-0.75z"/>
      <path d="m2481.6 678.22h-2.5v-15.169l3.5625-3.5625c0.5875-0.5875 0.5875-1.5375 0-2.1188l-0.7062-0.7125c-0.5875-0.5875-1.5375-0.5875-2.1188 0l-3.5625 3.5625h-15.175v-2.5c0-0.83121-0.6687-1.5-1.5-1.5h-3c-0.8312 0-1.5 0.66879-1.5 1.5v2.5h-2.5c-0.8312 0-1.5 0.66879-1.5 1.5v3c0 0.83129 0.6688 1.5 1.5 1.5h2.5v16.5c0 0.83128 0.6688 1.5 1.5 1.5h16.5v2.5c0 0.83128 0.6688 1.5 1.5 1.5h3c0.8313 0 1.5-0.66872 1.5-1.5v-2.5h2.5c0.8313 0 1.5-0.66872 1.5-1.5v-3c0-0.83122-0.6687-1.5-1.5-1.5zm-11.331-12-9.1688 9.1688v-9.1688zm-6.3375 12 9.1687-9.1687v9.1687z"/>
      <path d="m2502.5 597.69-13 4.875c-1.1687 0.4375-1.9437 1.5625-1.9437 2.8125v14.069c0 1.1375 0.6437 2.175 1.6562 2.6813l13 6.5c0.8438 0.425 1.8375 0.425 2.6813 0l13-6.5c1.0187-0.50628 1.6562-1.55 1.6562-2.6813v-14.069c0-1.25-0.775-2.3688-1.9437-2.8063l-13-4.875c-0.675-0.2625-1.425-0.2625-2.1063-7e-3zm1.0563 3.8812 12 4.5v0.0686l-12 4.875-12-4.875v-0.0686zm2 22.25v-9.3062l10-4.0625v8.3687z"/>
      <path d="m2356.2 613.22c0 2.4875-2.0125 4.5-4.5 4.5s-4.5-2.0125-4.5-4.5 2.0125-4.5 4.5-4.5 4.5 2.0125 4.5 4.5zm6.5-4.5c-2.4875 0-4.5 2.0125-4.5 4.5s2.0125 4.5 4.5 4.5 4.5-2.0125 4.5-4.5-2.0125-4.5-4.5-4.5zm-22 0c-2.4875 0-4.5 2.0125-4.5 4.5s2.0125 4.5 4.5 4.5 4.5-2.0125 4.5-4.5-2.0125-4.5-4.5-4.5z"/>
      <path d="m2293.3 624.72c1.1536 1.9996-0.2944 4.4992-2.5985 4.4992h-29.993c-2.3086 0-3.75-2.5034-2.5986-4.4992l14.997-26.002c1.1542-2.0006 4.045-1.997 5.1971 0zm-17.595-5.3758c-1.5878 0-2.875 1.2872-2.875 2.875s1.2872 2.875 2.875 2.875 2.875-1.2872 2.875-2.875-1.2872-2.875-2.875-2.875zm-2.7296-10.334 0.4636 8.5c0.021 0.39779 0.3506 0.70914 0.7489 0.70914h3.0341c0.3984 0 0.7273-0.31136 0.7489-0.70914l0.4636-8.5c0.024-0.42957-0.3186-0.79086-0.7488-0.79086h-3.9614c-0.4303 0-0.7723 0.36129-0.7489 0.79086z"/>
      <path d="m2409.2 657.72v7.999c0 1.3414-1.6225 1.9988-2.5607 1.0607l-2.2317-2.2318-15.22 15.22c-0.5858 0.58585-1.5355 0.58585-2.1213 0l-1.4142-1.4142c-0.5858-0.58586-0.5858-1.5355 0-2.1213l15.22-15.22-2.2314-2.2316c-0.942-0.94193-0.2748-2.5607 1.0607-2.5607h7.9985c0.8284 0 1.5 0.67157 1.5 1.5zm-10.561 15.425-1 1a1.4999 1.4999 0 0 0-0.4393 1.0607v9.0146h-20v-20h16.5a1.5002 1.5002 0 0 0 1.0605-0.43929l1-1c0.9449-0.945 0.2757-2.5607-1.0605-2.5607h-18.5c-1.6569 0-3 1.3431-3 3v22c0 1.6569 1.3431 3 3 3h22c1.6568 0 3-1.3431 3-3v-11.015c0-1.3364-1.6158-2.0056-2.5607-1.0606z"/>
      <path d="m2287.8 722.84v0.37864h-8v-8h0.3787a1.5 1.5 0 0 1 1.0606 0.43929l6.1214 6.1214a1.5001 1.5001 0 0 1 0.4393 1.0607zm-8.5 2.3786c-0.8251 0-1.5-0.675-1.5-1.5v-8.5h-12.5c-0.8284 0-1.5 0.67157-1.5 1.5v29c0 0.82843 0.6716 1.5 1.5 1.5h21c0.8284 0 1.5-0.67157 1.5-1.5v-20.5zm-8.466 1c1.6569 0 3 1.3431 3 3s-1.3431 3-3 3-2.9999-1.3431-2.9999-3 1.3431-3 2.9999-3zm13 15h-16l0.03-3.0303 2.4697-2.4697c0.2929-0.29286 0.7375-0.26257 1.0303 0.03l2.4697 2.4697 6.4697-6.4697c0.2929-0.29286 0.7678-0.29286 1.0607 0l2.4696 2.4697z"/>
      <path d="m2556.1 664.22h-12l-4-4h-10c-1.6568 0-3 1.3431-3 3v18c0 1.6569 1.3432 3 3 3h26c1.6569 0 3-1.3431 3-3v-14c0-1.6569-1.3431-3-3-3z"/>
      <path d="m2513.6 721.22h-20c-5.525 0-10 4.475-10 10s4.475 10 10 10c2.8 0 5.325-1.15 7.1375-3h5.7186c1.8126 1.85 4.3439 3 7.1376 3 5.525 0 10-4.475 10-10s-4.4687-10-9.9937-10zm-14 11.25c0 0.4125-0.3375 0.75-0.75 0.75h-3.25v3.25c0 0.4125-0.3375 0.75-0.7501 0.75h-2.5c-0.4124 0-0.75-0.3375-0.75-0.75v-3.25h-3.25c-0.4125 0-0.75-0.3375-0.75-0.75v-2.5c0-0.4125 0.3375-0.75 0.75-0.75h3.25v-3.25c0-0.4125 0.3375-0.75 0.75-0.75h2.5c0.4125 0 0.7501 0.3375 0.7501 0.75v3.25h3.25c0.4125 0 0.75 0.3375 0.75 0.75zm11.5 4.25c-1.6563 0-3-1.3438-3-3 0-1.6563 1.3437-3 3-3 1.6562 0 3 1.3437 3 3 0 1.6562-1.3438 3-3 3zm5-5c-1.6563 0-3-1.3438-3-3 0-1.6563 1.3437-3 3-3 1.6562 0 3 1.3437 3 3 0 1.6562-1.3438 3-3 3z"/>
    </g>
    <path d="m562.44 39.589h-4.7214v-4.2429h4.7214zm0-14.593h-4.7214v4.3357h4.7214zm5.5857 10.343h-4.7214v4.2429h4.7214zm-11.164-5.15h-4.7207v4.2929h4.7207zm5.5786 0h-4.7214v4.2929h4.7214zm19.771 7.1429c-1.0286-0.69286-3.4-0.94286-5.2214-0.6-0.2357-1.7143-1.1921-3.2071-2.935-4.55l-1-0.66428-0.665 1c-1.3143 1.9857-1.6714 5.2571-0.2643 7.4143-0.6207 0.33572-1.8429 0.79286-3.4572 0.76429h-31.049c-0.6221 3.6286 0.4136 8.3429 3.1429 11.579 2.65 3.1357 6.6207 4.7286 11.814 4.7286 11.244 0 19.564-5.1786 23.457-14.586 1.5286 0.0286 4.8286 7e-3 6.5214-3.2286 0.1072-0.17857 0.4715-0.94286 0.6072-1.2214zm-36.506-1.9929h-4.715v4.2429h4.7222v-4.2429zm5.5779 0h-4.7214v4.2429h4.7214zm5.5786 0h-4.7207v4.2429h4.7207zm-5.5786-5.15h-4.7214v4.2929h4.7214z"/>
    <path d="m480.7 32.793c-4.5428 0-8.2071 3.6643-8.2071 8.2071s3.6643 8.2071 8.2071 8.2071c4.5429 0 8.2072-3.6643 8.2072-8.2071s-3.6643-8.2071-8.2072-8.2071zm0 13.543c-2.9357 0-5.3357-2.3929-5.3357-5.3357s2.3929-5.3357 5.3357-5.3357c2.9429 0 5.3357 2.3929 5.3357 5.3357s-2.4 5.3357-5.3357 5.3357zm10.457-13.879c0 1.0643-0.8571 1.9143-1.9143 1.9143-1.0643 0-1.9143-0.85714-1.9143-1.9143 0-1.0571 0.8571-1.9143 1.9143-1.9143s1.9143 0.85714 1.9143 1.9143zm5.4357 1.9429c-0.1214-2.5643-0.7071-4.8357-2.5857-6.7071-1.8714-1.8714-4.1429-2.4571-6.7072-2.5857-2.6428-0.15-10.564-0.15-13.207 0-2.5571 0.12143-4.8286 0.70714-6.7071 2.5786s-2.4571 4.1429-2.5857 6.7071c-0.15 2.6429-0.15 10.564 0 13.207 0.1214 2.5643 0.7072 4.8357 2.5857 6.7071 1.8786 1.8714 4.1429 2.4571 6.7071 2.5857 2.6429 0.15 10.564 0.15 13.207 0 2.5643-0.12143 4.8357-0.70715 6.7072-2.5857 1.8714-1.8714 2.4571-4.1429 2.5857-6.7071 0.15-2.6429 0.15-10.557 0-13.2zm-3.4143 16.036c-0.5571 1.4-1.6357 2.4786-3.0428 3.0429-2.1071 0.83571-7.1071 0.64286-9.4357 0.64286s-7.3357 0.18571-9.4357-0.64286c-1.4-0.55714-2.4786-1.6357-3.0429-3.0429-0.8357-2.1071-0.6429-7.1071-0.6429-9.4357s-0.1857-7.3357 0.6429-9.4357c0.5572-1.4 1.6357-2.4786 3.0429-3.0429 2.1071-0.83571 7.1071-0.64286 9.4357-0.64286s7.3357-0.18571 9.4357 0.64286c1.4 0.55714 2.4786 1.6357 3.0428 3.0429 0.8357 2.1071 0.6429 7.1071 0.6429 9.4357s0.1928 7.3357-0.6429 9.4357z"/>
    <path d="m623.01 99.997c0 0.22144-0.1214 0.43572-0.3214 0.53574l-6.3643 3.8214c-0.1 0.0572-0.2 0.10001-0.3214 0.10001-0.1 0-0.2215-0.0214-0.3215-0.0786-0.2-0.12143-0.3214-0.32144-0.3214-0.55714v-2.5429h-17.05c1.8071 2.8286 2.8929 7.6357 4.9714 7.6357h1.9071v-1.9143c0-0.35714 0.2786-0.63571 0.6357-0.63571h6.3643c0.3571 0 0.6357 0.27857 0.6357 0.63571v6.3643c0 0.35714-0.2786 0.63571-0.6357 0.63571h-6.3643c-0.3571 0-0.6357-0.27857-0.6357-0.63571v-1.9072h-1.9071c-5.3857 0-5.7929-10.179-8.9072-10.179h-7.1643c-0.5786 2.1857-2.5643 3.8214-4.9286 3.8214-2.8072-7e-3 -5.0929-2.2929-5.0929-5.1 0-2.8071 2.2857-5.0929 5.0929-5.0929 2.3643 0 4.3571 1.6286 4.9286 3.8214 2.7929 0 3.1357 0.67856 5.3286-4.3143 2.8643-6.3643 4.15-5.8643 7.7786-5.8643 0.5357-1.4929 1.9286-2.5429 3.6-2.5429 2.1071 0 3.8214 1.7072 3.8214 3.8214 0 2.1143-1.7071 3.8214-3.8214 3.8214-1.6714 0-3.0643-1.0571-3.6-2.5429h-2.1286c-2.0786 0-3.1643 4.8143-4.9714 7.6357h22.15v-2.5429c0-0.23571 0.1214-0.43571 0.3214-0.55714s0.4572-0.1 0.6357 0.0214l6.3643 3.8214c0.2 0.0786 0.3215 0.29285 0.3215 0.51428z"/>
    <path d="m-33.631 340.07c0.9471 0 1.7143 0.76786 1.7143 1.7143v9.7143h-6.8571v-4.5714h-27.429v4.5714h-6.8572v-25.714c0-0.94714 0.7679-1.7143 1.7143-1.7143h3.4286c0.9471 0 1.7143 0.76714 1.7143 1.7143v14.286zm-25.714-13.714c-3.1557 0-5.7143 2.5586-5.7143 5.7143s2.5586 5.7143 5.7143 5.7143c3.1564 0 5.7143-2.5586 5.7143-5.7143s-2.5579-5.7143-5.7143-5.7143zm27.429 9.1429c0-3.7871-3.07-6.8571-6.8571-6.8571h-12c-0.9464 0-1.7143 0.76786-1.7143 1.7143v7.4286h20.571z"/>
    <path d="m-81.731 385.79h-3.4286v-2.8571c0-0.94643-0.7671-1.7143-1.7143-1.7143h-19.429c-0.9464 0-1.7143 0.76786-1.7143 1.7143v28.571c0 0.94714 0.7679 1.7143 1.7143 1.7143h19.429c0.9471 0 1.7143-0.76714 1.7143-1.7143v-3.0079l5.7578-2.5693c2.0564-0.91785 3.385-2.9664 3.385-5.2186v-9.2043c0-3.1507-2.5628-5.7143-5.7143-5.7143zm1.1428 14.919a1.1441 1.1441 0 0 1-0.6764 1.0436l-3.895 1.7386v-13.129h3.4286c0.6307 0 1.1428 0.51286 1.1428 1.1429zm-12.571 5.6529c-0.6307 0-1.1429-0.51143-1.1429-1.1429v-16c0-0.63071 0.5121-1.1428 1.1429-1.1428 0.6314 0 1.1428 0.51214 1.1428 1.1428v16c0 0.63143-0.5114 1.1429-1.1428 1.1429zm-6.8572 0c-0.6307 0-1.1428-0.51143-1.1428-1.1429v-16c0-0.63071 0.5121-1.1428 1.1428-1.1428 0.6314 0 1.1429 0.51214 1.1429 1.1428v16c0 0.63143-0.5114 1.1429-1.1429 1.1429z"/>
    <path d="m551.16 168.14h13.714c3.7857 0 6.8572-3.0714 6.8572-6.8571h2.2857c5.0429 0 9.1429-4.1 9.1429-9.1429s-4.1-9.1429-9.1429-9.1429h-28c-0.95 0-1.7143 0.76429-1.7143 1.7143v16.571c0 3.7857 3.0714 6.8571 6.8572 6.8571zm22.857-20.571c2.5214 0 4.5714 2.05 4.5714 4.5714s-2.05 4.5714-4.5714 4.5714h-2.2857v-9.1429zm3.4071 27.429h-36.529c-3.4 0-4.3571-4.5714-2.5714-4.5714h41.664c1.7857 0 0.8429 4.5714-2.5643 4.5714z"/>
    <path d="m515.93 107.35c-2.6857 0-5.2157-0.48286-7.4386-1.3357-2.2407 1.7536-4.9907 2.8222-7.9114 3.1286a0.61657 0.61657 0 0 1-0.064 0c-0.2671 0-0.5079-0.17858-0.5729-0.43286-0.071-0.28286 0.1493-0.45714 0.3665-0.665 1.0721-1.0307 2.3729-1.8421 2.8814-5.3064-2.0457-1.9607-3.2614-4.4086-3.2614-7.065 0-6.4479 7.1643-11.674 16-11.674 8.8364 0 16 5.2257 16 11.674 0 6.4521-7.1636 11.674-16 11.674zm24.791 7.6557c-0.9957-0.93785-2.2036-1.675-2.6757-4.825 4.915-4.6114 3.7264-11.209-2.6907-14.79v0.28643c0 8.7493-9.2557 15.456-20.304 15.087 2.7229 2.2114 6.7136 3.6064 11.161 3.6064 2.4943 0 4.8436-0.43928 6.9079-1.2143 2.0807 1.5943 4.6336 2.5657 7.3464 2.8436 0.2707 0.0286 0.5257-0.14072 0.5907-0.39 0.064-0.25714-0.1386-0.41572-0.34-0.60429z"/>
    <path d="m487.56 172.72v2.8572c0 0.94643-0.7671 1.7143-1.7143 1.7143h-19.429c-0.9464 0-1.7143-0.76785-1.7143-1.7143v-26.286c0-0.94714 0.7679-1.7143 1.7143-1.7143h5.1429v21.143c0 2.2057 1.795 4 4 4zm0-24.571v-7.4286h-12c-0.9464 0-1.7143 0.76715-1.7143 1.7143v26.286c0 0.94643 0.7679 1.7143 1.7143 1.7143h19.429c0.9471 0 1.7143-0.76787 1.7143-1.7143v-18.857h-7.4286c-0.9429 0-1.7143-0.77143-1.7143-1.7143zm8.6414-2.2164-4.7107-4.71a1.7143 1.7143 0 0 0-1.2121-0.50215h-0.4329v6.8572h6.8571v-0.43286a1.7143 1.7143 0 0 0-0.5014-1.2121z"/>
    <path d="m-34.831 456.19c0.018 9.76-7.9414 17.741-17.701 17.748-4.2154 0-8.0874-1.4664-11.13-3.9221-0.7912-0.63857-0.8504-1.8243-0.1314-2.5436l0.8048-0.805c0.615-0.615 1.5966-0.68214 2.2779-0.14143 2.2418 1.7786 5.0789 2.8407 8.1659 2.8407 7.2646 0 13.143-5.8793 13.143-13.143 0-7.265-5.8794-13.143-13.143-13.143-3.4867 0-6.6535 1.355-9.0049 3.5664l3.6253 3.6257c0.72 0.72 0.2101 1.9507-0.808 1.9507h-10.384c-0.6313 0-1.1429-0.51143-1.1429-1.1429v-10.384c0-1.0186 1.231-1.5286 1.951-0.80857l3.5266 3.5264c3.1802-3.0386 7.4904-4.9057 12.237-4.9057 9.7721 0 17.696 7.9129 17.714 17.681zm-12.922 5.6271 0.7016-0.90214c0.5813-0.74715 0.4467-1.8243-0.3007-2.405l-2.9072-2.2614v-7.4536c0-0.94715-0.7675-1.7143-1.7143-1.7143h-1.1429c-0.9468 0-1.7143 0.76714-1.7143 1.7143v9.6893l4.6721 3.6336c0.7474 0.58143 1.8244 0.44715 2.4056-0.30071z"/>
    <path d="m695.7 93.144h-32c-1.2624 0-2.2857-1.0236-2.2857-2.2857v-4.5714c0-1.2621 1.0234-2.2857 2.2857-2.2857h32c1.2624 0 2.2857 1.0236 2.2857 2.2857v4.5714c0 1.2622-1.0234 2.2857-2.2857 2.2857zm-3.4286-6.2857c-0.9467 0-1.7142 0.76715-1.7142 1.7143 0 0.94643 0.7675 1.7143 1.7142 1.7143 0.9469 0 1.7144-0.76785 1.7144-1.7143 0-0.94714-0.7675-1.7143-1.7144-1.7143zm-4.5714 0c-0.9469 0-1.7144 0.76715-1.7144 1.7143 0 0.94643 0.7675 1.7143 1.7144 1.7143 0.9468 0 1.7143-0.76785 1.7143-1.7143 0-0.94714-0.7675-1.7143-1.7143-1.7143zm8 17.714h-32c-1.2624 0-2.2857-1.0236-2.2857-2.2857v-4.5714c0-1.2622 1.0234-2.2857 2.2857-2.2857h32c1.2624 0 2.2857 1.0236 2.2857 2.2857v4.5714c0 1.2622-1.0234 2.2857-2.2857 2.2857zm-3.4286-6.2857c-0.9467 0-1.7142 0.76715-1.7142 1.7143 0 0.94643 0.7675 1.7143 1.7142 1.7143 0.9469 0 1.7144-0.76786 1.7144-1.7143 0-0.94714-0.7675-1.7143-1.7144-1.7143zm-4.5714 0c-0.9469 0-1.7144 0.76715-1.7144 1.7143 0 0.94643 0.7675 1.7143 1.7144 1.7143 0.9468 0 1.7143-0.76786 1.7143-1.7143 0-0.94714-0.7675-1.7143-1.7143-1.7143zm8 17.714h-32c-1.2624 0-2.2857-1.0236-2.2857-2.2857v-4.5714c0-1.2622 1.0234-2.2857 2.2857-2.2857h32c1.2624 0 2.2857 1.0236 2.2857 2.2857v4.5714c0 1.2621-1.0234 2.2857-2.2857 2.2857zm-3.4286-6.2857c-0.9467 0-1.7142 0.76714-1.7142 1.7143 0 0.94643 0.7675 1.7143 1.7142 1.7143 0.9469 0 1.7144-0.76786 1.7144-1.7143 0-0.94714-0.7675-1.7143-1.7144-1.7143zm-4.5714 0c-0.9469 0-1.7144 0.76714-1.7144 1.7143 0 0.94643 0.7675 1.7143 1.7144 1.7143 0.9468 0 1.7143-0.76786 1.7143-1.7143 0-0.94714-0.7675-1.7143-1.7143-1.7143z"/>
    <path d="m-112.63 452.66-17.239 5.3188a6 6 0 0 1-3.3834 0l-12.533-3.8671c-0.5352 0.71486-0.6886 1.4406-0.7449 2.3959 0.5812 0.34985 0.97 0.98671 0.97 1.7146 0 0.747-0.4098 1.3979-1.0166 1.7413l1.0123 7.6935c0.039 0.29915-0.1937 0.56522-0.4957 0.56522h-3c-0.3018 0-0.5351-0.26586-0.4958-0.56529l1.0124-7.6935c-0.6067-0.34335-1.0166-0.99421-1.0166-1.7412 0-0.75214 0.4154-1.4069 1.0291-1.7485 0.059-1.1219 0.2484-2.0769 0.7595-2.9749l-2.7189-0.83886c-1.4297-0.42507-1.4229-2.4526 0-2.8756l17.239-5.3187a6 6 0 0 1 3.3834 0l17.238 5.3187c1.4298 0.42507 1.423 2.4526 1e-4 2.8756zm-16.649 7.2299-0.026 0.014a7.9999 7.9999 0 0 1-4.5111 0l-0.026-0.014-9.4321-2.9106-0.7865 5.243c0 2.2091 5.5964 4 12.5 4s12.5-1.7909 12.5-4l-0.7864-5.243z" stroke-width=".0625"/>
    <path d="m-160.53 381.22h-21c-0.8284 0-1.5 0.67157-1.5 1.5v1c0 0.82843 0.6716 1.5 1.5 1.5 0 5.6853 3.1885 10.483 7.5526 12-4.3642 1.5166-7.5526 6.3147-7.5526 12-0.8284 0-1.5 0.67157-1.5 1.5v1c0 0.82843 0.6716 1.5 1.5 1.5h21c0.8284 0 1.5-0.67157 1.5-1.5v-1c0-0.82843-0.6716-1.5-1.5-1.5 0-5.6853-3.1885-10.483-7.5526-12 4.3641-1.5166 7.5526-6.3147 7.5526-12 0.8284 0 1.5-0.67157 1.5-1.5v-1c0-0.82843-0.6716-1.5-1.5-1.5zm-4.6924 24h-11.615c1.0662-2.9248 3.256-5 5.8075-5 2.5514 0 4.7414 2.0747 5.8076 5zm0-16h-11.616c-0.4431-1.2158-0.6924-2.5783-0.6924-4h13c0 1.4253-0.2492 2.7867-0.6912 4z" stroke-width=".0625"/>
    <path d="m1505.9 32.021-9.4286 6.0214 9.4286 6.0214-9.4286 6.0214-9.4571-6.0786 9.45-6.0214-9.45-5.9643 9.45-6.0214zm-9.4857 19.957 9.4286-6.0214 9.4285 6.0214-9.4285 6.0214zm9.4857-7.9714 9.4286-6.0214-9.4286-5.9714 9.3786-6.0143 9.45 6.0214-9.45 6.0214 9.45 6.0143-9.45 6.0214z" stroke-width=".071429"/>
    <path d="m373.71 84h-24.829c-1.9643 0-3.5857 1.6214-3.5857 3.5857v24.829c0 1.9643 1.6214 3.5857 3.5857 3.5857h24.829c1.9643 0 3.5857-1.6215 3.5857-3.5857v-24.829c0-1.9643-1.6214-3.5857-3.5857-3.5857zm-3.2429 20.307c0 0.29997-0.2572 0.42859-0.5571 0.55717-1.1929 0.51427-2.4714 0.97857-3.8429 0.97857-1.9214 0-2.8143-1.1929-5.1214-1.1929-1.6643 0-3.4143 0.59999-4.8214 1.2357-0.086 0.0427-0.1717 0.0427-0.2573 0.0856v3.2429c0 0.12865 0 0.25731-0.043 0.34297v0.0856c-0.1715 0.60002-0.7285 1.0214-1.3643 1.0214-0.8071 0-1.45-0.64285-1.45-1.45v-15.614c-0.5571-0.42857-0.9357-1.1072-0.9357-1.8786 0-1.3214 1.0643-2.3929 2.3929-2.3929 1.3214 0 2.3929 1.0643 2.3929 2.3929 0 0.77143-0.3428 1.45-0.9357 1.8786v1.3215c0.1284-0.043 0.2573-0.0857 0.3857-0.17131 1.3214-0.55716 2.9-1.0215 4.3929-1.0215 1.6214 0 2.9 0.42858 4.35 0.97864 0.3001 0.12865 0.6 0.1713 0.9357 0.1713 1.6214 0 3.4144-1.15 3.8429-1.15 0.3429 0 0.6429 0.25731 0.6429 0.55716v10.021z"/>
    <path class="st1" d="m1543.8 91.541c-0.014-0.1 0.1357-0.16429 0.2285-0.20715 0.1215-0.05 0.2786-0.0714 0.3929-7e-3 0.029 0.0143 0.057 0.05 0.043 0.0786-0.029 0.0857-0.1715 0.0714-0.25 0.11429-0.072 0.0357-0.1286 0.12143-0.2143 0.12143-0.072 7e-3 -0.1929-0.0286-0.2-0.1zm1.7643-0.0214c0.071 0.0357 0.1285 0.12143 0.2142 0.12143 0.079 0 0.2-0.0286 0.2072-0.10715 0.014-0.1-0.1357-0.16428-0.2286-0.20714-0.1214-0.05-0.2786-0.0714-0.3928-7e-3 -0.029 0.0143-0.057 0.05-0.043 0.0786 0.021 0.0929 0.1643 0.0786 0.2429 0.12143zm15.336 22.157c-0.036 0.58572-0.4643 0.98572-0.9929 1.3071-1.0643 0.64286-2.6643 1.1286-3.6357 2.3l-0.1857-0.15714 0.1857 0.15714c-1.0143 1.2072-2.2643 1.9-3.45 1.9929-1.1786 0.0929-2.2857-0.45-2.8786-1.6429v-7e-3c-0.079-0.15-0.1357-0.31428-0.1785-0.47857-1.5358 0.0857-2.8715-0.37857-3.9358-0.29286-1.5714 0.0857-2.5571 0.46429-3.45 0.47143-0.3428 0.75714-1.0214 1.2571-1.85 1.4429-1.1428 0.26428-2.5785 0-3.9928-0.74286l0.1143-0.21428-0.1143 0.21428c-1.3214-0.7-3-0.63571-4.2357-0.89286-0.6215-0.12857-1.1643-0.35714-1.4357-0.87857-0.2643-0.52143-0.2143-1.2357 0.1571-2.2643 0.1214-0.36429 0.029-0.90715-0.057-1.4857-0.043-0.27857-0.086-0.56428-0.086-0.84285 0-0.30715 0.05-0.60715 0.2-0.88572 0.3215-0.60714 0.8429-0.86428 1.3215-1.0357 0.4785-0.17143 0.9143-0.28572 1.2143-0.59286 0.3714-0.39286 0.7214-1.0286 1.1857-1.4429-0.1857-1.2286 0.014-2.5286 0.4428-3.8071 0.9-2.7071 2.8-5.3 4.15-6.9071 1.15-1.6357 1.4857-2.95 1.6072-4.6214 0.079-2.2714-1.75-9.6714 5.5643-9.6571 5.7785 7e-3 5.45 6.1 5.4142 9.3786-0.021 2.15 1.1643 3.6071 2.3858 5.1428 1.0857 1.2857 2.5071 3.1643 3.3214 5.3143 0.6643 1.7571 0.9214 3.7 0.2643 5.65 0.1 0.0357 0.2 0.0857 0.2928 0.14286 0.1 0.0571 0.1929 0.12857 0.2857 0.20714 0.4715 0.4 0.6215 1.0214 0.75 1.6 0.1358 0.57857 0.2572 1.1214 0.5143 1.4071 0.7929 0.88572 1.1357 1.5357 1.1072 2.1214zm-15.336-23.171c0.2571 0.0643 0.6357 0.17143 0.9285 0.31429-0.15-0.87143 0.3215-1.6786 0.8429-1.6429 0.6357 0.0214 0.9928 1.1071 0.65 1.95-0.057 0.13572-0.2 0.24286-0.2786 0.32857 0.4786 0.16429 0.7857 0.29286 0.9 0.35 0.5643-0.67857 0.7714-1.8714 0.3072-2.8857-0.7-1.5286-2.4429-1.5571-3.1429 0.0286-0.2286 0.51429-0.2786 1.0643-0.2071 1.5571zm-3.3 1.3429c0.5571-0.40714 0.4928-0.33571 0.4214-0.39286-0.5714-0.49285-0.4714-1.9571 0.1286-2.0071 0.45-0.0357 0.7714 0.76429 0.6857 1.4 0.2214-0.15 0.4785-0.25714 0.7285-0.32857 0.1215-1.3786-0.6428-2.3929-1.3642-2.3929-1.35 0-1.7143 2.6786-0.6 3.7214zm-0.6715 1.4929c0.1072 0.35 0.4357 0.75 1.05 1.0928 0.5572 0.32858 0.8572 0.82143 1.4286 1.0714 0.1857 0.0786 0.4071 0.13572 0.6857 0.15 1.3143 0.0786 1.9357-0.80714 2.7286-1.0643 0.8357-0.26429 1.4357-0.78572 1.6214-1.2929 0.2286-0.60714-0.15-1.05-0.75-1.3-0.8071-0.35-1.1643-0.37143-1.6143-0.66429-0.7357-0.47142-1.3428-0.63571-1.85-0.63571-1.0285 0-1.6571 0.7-1.9928 1.0143-0.036 0.0357-0.5643 0.42142-1.0072 0.75-0.3 0.23571-0.4 0.52857-0.3 0.87857zm-2.3928 18.057-1.4-2.5429c-0.4857-0.65714-0.9857-1.0571-1.5643-1.1428-0.55-0.0857-0.9 0.1-1.2643 0.49285-0.3429 0.36429-0.6286 0.87857-1.0214 1.2857-0.5572 0.46428-0.6643 0.44285-1.4 0.70714-0.45 0.15714-0.8072 0.32857-1.0572 0.80714-0.1928 0.35715-0.15 0.87143-0.064 1.4286 0.086 0.56429 0.2143 1.1643 0.043 1.7072v0.0143c-0.3571 0.97857-0.3571 1.55-0.1857 1.8857 0.5643 1.1 3.3286 0.43571 5.4643 1.5643 2.2428 1.1714 5.1857 1.2214 5.3785-1.2857 0.15-1.4643-2.25-3.5-2.9285-4.9214zm10.993 2.5571c0.2286-0.78571 0.45-1.5214 0.4857-2.0714 0.057-1.0857 0.1143-2.05 0.3143-2.85 0.2215-0.9 0.6643-1.65 1.5286-1.95 0.1643-1.5071 1.3357-1.5071 2.7357-0.89285 1.35 0.60714 1.8572 1.1428 1.6286 1.8643 0.071 0 0.1428-7e-3 0.3 0 0.3714-1.2071-1.0214-2-2.1929-2.4857 0.2072-0.85714 0.1715-1.7214-0.028-2.55-0.4286-1.8071-1.6143-3.4143-2.5143-4.2143-0.1643-7e-3 -0.15 0.13572 0.1857 0.46429 0.8286 0.76428 2.65 3.5143 1.6643 6.0643-0.2786-0.0714-0.5429-0.10714-0.7786-0.1-0.3786-2.0786-1.25-3.8-1.6857-4.6143-0.8214-1.5286-2.1072-4.6643-2.6572-6.8357-0.3214 0.45715-0.8857 0.85-1.5928 1.0714-0.3357 0.10715-0.6929 0.39286-1.1357 0.64286-0.9929 0.57143-2.1429 0.62857-3.0286-0.0857-0.3214-0.25715-0.5714-0.54286-0.9-0.73572-0.1143-0.0643-0.3643-0.23571-0.4429-0.29286-0.1428 2.7-1.95 6.0929-2.8071 8.05-0.5929 1.4072-0.9429 2.9143-0.9857 4.3929-1.5572-2.0786-0.4214-4.7357 0.1857-5.8857 0.6786-1.2572 0.7857-1.6072 0.6214-1.4857-0.6143 1-1.5714 2.5929-1.9428 4.2286-0.1929 0.85-0.2286 1.7143 0.021 2.5143 0.25 0.8 0.7929 1.5357 1.7571 2.1357 0 0 1.7715 1.0214 2.7358 2.3214 0.5285 0.71429 0.6928 1.3357 0.5285 1.7786-0.1785 0.47858-0.6857 0.63572-1.1928 0.63572 0.3428 0.42857 0.7357 0.92857 1.0285 1.4 2.6858 1.8357 5.8715 1.1214 8.1643-0.51429zm9.2429-2.0643c-0.7143-0.80715-0.5143-2.3643-1.2214-2.9714-0.4929-0.42857-0.9715-0.38572-1.6143-0.36429-0.55 0.62857-1.8429 1.4-2.7429 1.1643-0.8214-0.20714-1.2857-1.1643-1.3428-2.1071-0.022 0.0143-0.05 0.0214-0.072 0.0357-0.5071 0.27857-0.7928 0.77143-0.9785 1.5071-0.1786 0.72857-0.2429 1.6786-0.3 2.7643-0.05 0.84286-0.4429 1.8857-0.7072 2.9-0.25 0.94286-0.4143 1.8-0.079 2.5929 0.5143 1.0357 1.3929 1.4571 2.4072 1.3786 1.0143-0.0786 2.1714-0.7 3.1143-1.8214 1.5714-1.9 4.45-2.1214 4.5143-3.3214 0.021-0.36429-0.2215-0.92857-0.9786-1.7571zm-17.264-18.557c0.1429 0.13572 0.3357 0.32143 0.5714 0.50715 0.4715 0.37143 1.1286 0.75714 1.95 0.75714 0.8286 0 1.6072-0.42143 2.2715-0.77143 0.35-0.18571 0.7785-0.5 1.0571-0.74286 0.2786-0.24285 0.4214-0.45 0.2214-0.47142-0.2-0.0214-0.1857 0.18571-0.4285 0.36428-0.3143 0.22857-0.6929 0.52857-0.9929 0.7-0.5286 0.3-1.3929 0.72857-2.1357 0.72857-0.7429 0-1.3357-0.34285-1.7786-0.69285-0.2214-0.17858-0.4071-0.35715-0.55-0.49286-0.1071-0.1-0.1357-0.32857-0.3071-0.35-0.1-7e-3 -0.1286 0.26428 0.1214 0.46428z" stroke-width=".071429"/>
    <path d="m1440.6 33.551c0.021 0.32429 0.021 0.64929 0.021 0.97429 0 9.9086-7.5414 21.326-21.325 21.326-4.2464 0-8.1914-1.23-11.51-3.365 0.6036 0.0714 1.1836 0.0928 1.81 0.0928 3.5043 0 6.7293-1.1836 9.305-3.2021-3.295-0.0714-6.0564-2.2279-7.0079-5.1979 0.4643 0.0714 0.9286 0.11571 1.4157 0.11571 0.6729 0 1.3457-0.0929 1.9721-0.255-3.4343-0.69643-6.01-3.7129-6.01-7.3564v-0.0929c0.9979 0.55714 2.1586 0.905 3.3879 0.95143-2.0186-1.3457-3.3414-3.6429-3.3414-6.2421 0-1.3921 0.3714-2.6686 1.0207-3.7821 3.69 4.5479 9.2364 7.5186 15.455 7.8436-0.1157-0.55714-0.1857-1.1371-0.1857-1.7171 0-4.1307 3.3414-7.4957 7.4957-7.4957 2.1579 0 4.1071 0.905 5.4757 2.3671 1.6943-0.325 3.3186-0.95143 4.7572-1.81-0.5564 1.74-1.74 3.2021-3.295 4.1307 1.5086-0.16286 2.9707-0.58071 4.3164-1.1607-1.0207 1.485-2.2971 2.8079-3.7593 3.8757z"/>
    <path d="m1507.6 151.54c-0.4429 0.13572-1.0929 0.25-1.9929 0.32858 0.079-4.05 2.1357-6.9 6.2857-7.8643 0.6643 2.9714-1.8643 6.7214-4.2928 7.5357zm8.6643 5.1929c0.4571-0.67142 1.1857-1.4214 2.1857-2.2643-1.5929-1.9714-3.4357-3.1643-6.0786-3.1643-2.5286 0-4.6571 1.3-6.2143 1.3-1.3214 0-3.7071-1.15-6.0357-1.15-4.9714 0-7.6071 4.8643-7.6071 9.9286 0 5.6286 4.2642 14.614 8.5857 14.614 1.7 0 3.2285-1.2857 5.25-1.2857 2.0928 0 3.7714 1.2286 5.7357 1.2286 3.2857 0 6.3286-5.5357 7.2857-8.55-3.3429-1.0214-6.0286-6.4428-3.1071-10.657z" stroke-width=".071429"/>
    <path d="m1431.8 147.58c0.7929-0.79286 8.25-5.5 9.9428-3.8 1.6929 1.6928-3.0071 9.15-3.8 9.9428-0.7928 0.79286-2.8143 0.0643-4.5071-1.6357-1.7-1.6929-2.4357-3.7143-1.6357-4.5071zm-13.843-2.0072c-2.5929-1.4714-6.2786-3.1071-7.45-1.9286-1.1857 1.1857 0.5071 4.9571 1.9929 7.55 1.3214-2.3 3.2-4.2357 5.4571-5.6214zm21.2 7.5643c0.2357 0.80714 0.1929 1.4786-0.1929 1.8643-1.45 1.45-6.25-1.9286-7.8071-5.0071-1.2857-2.3071-0.7928-3.8143 1.0643-3.4786 0.4072-0.25714 0.8786-0.54286 1.4-0.82857-2.1286-1.1071-4.5429-1.7357-7.1072-1.7357-8.5071 0-15.4 6.8929-15.4 15.4 0 8.5 6.8929 15.4 15.4 15.4 8.5072 0 15.4-6.8928 15.4-15.4 0-2.7428-0.7214-5.3214-1.9785-7.5571-0.2785 0.5-0.5428 0.95-0.7785 1.3429z"/>
    <path d="m1450 88.407 13.114-1.8072v12.671h-13.114zm0 23.186 13.114 1.8071v-12.514h-13.114zm14.557 2 17.443 2.4071v-15.114h-17.443zm0-27.186v12.864h17.443v-15.271z"/>
    <path d="m1351.2 34.936-3.0643 3.0643-0.021-6.1429 3.0857 3.0786m-3.0857 15.7 3.0786-3.0786-3.0643-3.0643zm11.9-9.3929c0 14.686-5.1357 18.043-13.221 18.043-8.0857 0-14.207-3.3571-14.207-18.043 0-14.686 5.9571-18.529 14.043-18.529 8.0857 0 13.386 3.85 13.386 18.529zm-11.321 0 5.6714-6.3286-8.9357-9.5929v12.636l-5.2714-5.2714-1.9286 1.9214 6.6214 6.6429-6.6214 6.6429 1.9214 1.9214 5.2714-5.2714 0.1643 12.143 9.1-9.1071z"/>
    <path d="m1643.9 93v20.571c0 1.8929-1.5357 3.4286-3.4286 3.4286h-29.714c-1.8929 0-3.4286-1.5357-3.4286-3.4286v-20.571c0-1.8928 1.5357-3.4286 3.4286-3.4286h6.2857l0.8785-2.35c0.5-1.3357 1.7786-2.2214 3.2072-2.2214h8.9643c1.4285 0 2.7071 0.88572 3.2071 2.2214l0.8857 2.35h6.2857c1.8929 0 3.4286 1.5357 3.4286 3.4286zm-9.7143 10.286c0-4.7286-3.8428-8.5714-8.5714-8.5714s-8.5714 3.8429-8.5714 8.5714 3.8428 8.5714 8.5714 8.5714 8.5714-3.8429 8.5714-8.5714zm-2.2857 0c0 3.4643-2.8214 6.2857-6.2857 6.2857s-6.2857-2.8214-6.2857-6.2857 2.8214-6.2857 6.2857-6.2857 6.2857 2.8214 6.2857 6.2857z" stroke-width=".071429"/>
    <path d="m1362.3 168.14v4.5714c0 1.2628-1.0229 2.2857-2.2857 2.2857h-27.429c-1.2621 0-2.2857-1.0229-2.2857-2.2857v-4.5714c0-1.2622 1.0236-2.2857 2.2857-2.2857h27.429c1.2629 0 2.2857 1.0236 2.2857 2.2857zm-28.567-4.5714h25.134c2.975 0 4.5414-3.5479 2.5279-5.745l-12.567-13.715c-1.3586-1.4814-3.6964-1.4814-5.055 0l-12.568 13.715c-2.01 2.1929-0.4529 5.745 2.5278 5.745z"/>
    <path d="m1403.5 101.28c1.3389-1.3386 1.3389-3.51 0-4.8486l-11.429-11.429c-1.3389-1.3393-3.5097-1.3393-4.849 0l-18.286 18.286c-1.3386 1.3386-1.3386 3.51 0 4.8486l6.8571 6.8572a3.4289 3.4289 0 0 0 2.4243 1.0043h25.429c0.4733 0 0.8571-0.38357 0.8571-0.85714v-2.8571c0-0.47357-0.3838-0.85715-0.8571-0.85715h-10.294zm-21.616-4.4736 9.8123 9.8129-4.808 4.8078h-8.1964l-5.7143-5.7143z"/>
    <g stroke-width=".071429">
      <path d="m1599.4 146.29v18.286h-27.429v-18.286h27.429m1.1428-4.5714h-29.714c-1.8929 0-3.4286 1.5357-3.4286 3.4286v20.571c0 1.8929 1.5357 3.4286 3.4286 3.4286h29.714c1.8929 0 3.4286-1.5357 3.4286-3.4286v-20.571c0-1.8929-1.5357-3.4286-3.4286-3.4286zm7.1429 29.714h-17.036c-0.2143 0-0.3929 0.15-0.4214 0.36429-0.1715 1.0857-1.1143 1.9214-2.2572 1.9214h-4.5714c-1.1429 0-2.0857-0.83571-2.2572-1.9214-0.036-0.20715-0.2142-0.36429-0.4214-0.36429h-17.036c-0.4714 0-0.8571 0.38571-0.8571 0.85714v2.5714c0 1.8929 1.5357 3.4286 3.4285 3.4286h38.857c1.8928 0 3.4285-1.5357 3.4285-3.4286v-2.5714c0-0.47143-0.3857-0.85714-0.8571-0.85714z"/>
      <path d="m1590.3 34v-8c0-1.2629 1.0236-2.2857 2.2857-2.2857 1.2629 0 2.2858 1.0229 2.2858 2.2857v8zm8 1.1429h-25.143c-0.6307 0-1.1429 0.51143-1.1429 1.1429v2.2857c0 0.63071 0.5122 1.1429 1.1429 1.1429h1.1428v2.2857c0 5.5286 3.9265 10.141 9.1429 11.199v7.0864h4.5714v-7.0864c5.2172-1.0586 9.1429-5.6707 9.1429-11.199v-2.2857h1.1428c0.6315 0 1.1429-0.51214 1.1429-1.1429v-2.2857c0-0.63143-0.5114-1.1429-1.1429-1.1429zm-17.143-1.1429v-8c0-1.2629-1.0229-2.2857-2.2857-2.2857-1.2622 0-2.2858 1.0229-2.2858 2.2857v8z"/>
      <path d="m1678.5 37h-0.9999v-6.8787a1.5 1.5 0 0 0-0.4394-1.0606l-3.6213-3.6213a1.5 1.5 0 0 0-1.0606-0.43938h-17.378c-0.8285 0-1.5 0.67188-1.5 1.5v10.5h-1c-1.6569 0-3 1.3431-3 3v8.25c0 0.41437 0.3358 0.75 0.7499 0.75h3.2501v6.5c0 0.82875 0.6715 1.5 1.5 1.5h21c0.8284 0 1.5-0.67124 1.5-1.5v-6.5h3.25c0.4142 0 0.75-0.33563 0.75-0.75v-8.25c0-1.6569-1.3431-3-3-3zm-4.9999 16h-16v-5.9999h16zm-16-14v-10h12v2.5c0 0.825 0.675 1.5 1.5 1.5h2.5v5.9999zm19 4.5c-0.8284 0-1.5-0.67125-1.5-1.5 0-0.82811 0.6716-1.5 1.5-1.5 0.8283 0 1.5 0.67188 1.5 1.5 0 0.82876-0.6717 1.5-1.5 1.5z"/>
    </g>
    <path d="m734.74 143h-3.0081c-0.4348 0-0.7813 0.36376-0.7605 0.79834l0.2516 5.2546c-2.8861-3.3926-7.1843-5.545-11.986-5.545-8.6709 0-15.742 7.081-15.736 15.758 0.01 8.6908 7.0489 15.734 15.736 15.734 4.056 0 7.7537-1.5357 10.544-4.0576 0.3244-0.29324 0.3397-0.79752 0.031-1.1069l-2.1555-2.1569c-0.2833-0.28354-0.7384-0.29947-1.0392-0.0345-1.967 1.7335-4.5496 2.7844-7.3797 2.7844-6.1715 0-11.167-4.9978-11.167-11.175 0-6.1757 4.9944-11.175 11.167-11.175 3.8635 0 7.2653 1.9592 9.2698 4.9396l-6.4417-0.30891c-0.4342-0.021-0.7977 0.32594-0.7977 0.76109v3.0102c0 0.42079 0.3409 0.76195 0.7613 0.76195h12.711c0.4205 0 0.7614-0.34116 0.7614-0.76195v-12.719c0-0.42075-0.3409-0.76195-0.7614-0.76195z"/>
    <path d="m712.65 52.425c0 2.5264-2.048 4.5744-4.5742 4.5744-2.5263 0-4.5741-2.048-4.5741-4.5744s2.0479-4.5743 4.5742-4.5743c2.5262 0 4.5741 2.048 4.5741 4.5743zm12.547 3.375c-0.59669-11.043-9.4413-19.899-20.495-20.496-0.65249-0.0352-1.1994 0.489-1.1994 1.1424v3.4335c0 0.60106 0.4636 1.1051 1.0634 1.1442 7.9877 0.52028 14.391 6.9073 14.912 14.912 0.039 0.59978 0.54309 1.0633 1.144 1.0633h3.4334c0.65339 7e-5 1.1777-0.54679 1.1424-1.1993zm10.304 0.0206c-0.59959-16.701-14.038-30.218-30.818-30.82-0.64499-0.0231-1.1788 0.49792-1.1788 1.1433v3.4334c0 0.61606 0.4882 1.1175 1.1038 1.1428 13.656 0.5599 24.615 11.523 25.175 25.176 0.025 0.61556 0.52659 1.1038 1.1428 1.1038h3.4331c0.64539-7e-5 1.1665-0.53386 1.1433-1.1788z" stroke-width=".071428"/>
    <path d="m1671.8 163.57h9.7143v-18.857c0-0.95-0.7643-1.7143-1.7143-1.7143h-28.571c-0.95 0-1.7143 0.76428-1.7143 1.7143v28.571c0 0.95 0.7643 1.7143 1.7143 1.7143h18.857v-9.7143c0-0.94286 0.7714-1.7143 1.7143-1.7143zm9.2143 3.9286-7 7c-0.3214 0.32143-0.7571 0.5-1.2143 0.5h-0.4286v-9.1429h9.1429v0.43572c0 0.45-0.1786 0.88571-0.5 1.2071z"/>
    <path d="m485.33 357.11-13.882 13.882c-0.6695 0.66928-1.7549 0.66928-2.4244 0l-1.6191-1.6193c-0.6684-0.66858-0.6697-1.7514 0-2.4214l11.002-11.054-11.002-11.053c-0.6668-0.67-0.6655-1.7536 0.01-2.4214l1.6191-1.6193c0.6695-0.66927 1.7549-0.66927 2.4243 0l13.882 13.881c0.6695 0.66928 0.6695 1.755 0 2.4243zm27.287 13.074v-2.2857c0-0.94642-0.7675-1.7143-1.7143-1.7143h-21.714c-0.9468 0-1.7143 0.76786-1.7143 1.7143v2.2857c0 0.94714 0.7675 1.7143 1.7143 1.7143h21.714c0.9468 0 1.7143-0.76715 1.7143-1.7143z" stroke-width=".071429"/>
    <path d="m1250.5 41c0-8.8369 7.1635-16 16-16 8.8367 0 16 7.1633 16 16s-7.1635 16-16 16c-8.8367 0-16-7.1633-16-16zm4.6745 8.1208c2.5293 3.5214 6.6593 5.815 11.326 5.815 4.6664 0 8.7964-2.2936 11.326-5.815-0.2027-1.7413-1.4624-3.2032-3.1961-3.6368l-2.0887-0.52194c-1.6818 1.4439-3.8007 2.2316-6.0409 2.2316s-4.3591-0.78775-6.041-2.2316l-2.0887 0.52194c-1.7335 0.43355-2.9933 1.8955-3.196 3.6368zm4.0997-11.217c0 3.9911 3.2353 7.2259 7.226 7.2259 3.9908 0 7.2259-3.2349 7.2259-7.2259s-3.2351-7.2259-7.2259-7.2259c-3.9907 0-7.226 3.2349-7.226 7.2259z" stroke-width=".071429"/>
    <path d="m1278 143.79 0.2476 5.1729c-2.8409-3.3398-7.072-5.4588-11.799-5.4588-7.5693 0-13.87 5.4328-15.222 12.614-0.087 0.46057 0.269 0.886 0.7374 0.886h3.0658c0.3479 0 0.6481-0.24007 0.7293-0.57864 1.1582-4.8334 5.5007-8.4214 10.689-8.4214 3.8033 0 7.1524 1.9285 9.1256 4.8626l-6.3416-0.30407c-0.4275-0.0207-0.7853 0.32086-0.7853 0.74914v2.9632c0 0.41414 0.3355 0.75 0.7495 0.75h12.513c0.4139 0 0.7495-0.33586 0.7495-0.75v-12.521c0-0.41414-0.3356-0.75-0.7495-0.75h-2.9612c-0.4281 0-0.7692 0.35807-0.7487 0.78593zm-11.551 26.214c-3.8035 0-7.1526-1.9286-9.1258-4.8628l6.3625 0.30442c0.4275 0.0207 0.7853-0.32085 0.7853-0.74907v-2.9633c0-0.41422-0.3355-0.75-0.7495-0.75h-12.513c-0.4139 0-0.7495 0.33578-0.7495 0.75v12.521c0 0.41415 0.3356 0.75 0.7495 0.75h2.9596c0.4287 0 0.77-0.35907 0.7486-0.7875l-0.2579-5.1609c2.8409 3.3338 7.0682 5.4484 11.79 5.4484 7.5693 0 13.87-5.4328 15.222-12.614 0.087-0.4605-0.269-0.886-0.7374-0.886h-3.0658c-0.3479 0-0.6481 0.24014-0.7293 0.57872-1.1583 4.8334-5.5007 8.4214-10.689 8.4214z" stroke-width=".06248"/>
    <path d="m1308.5 85.573v1.0902c0 0.70699 0.4698 1.3192 1.141 1.5094 5.0012 1.4171 8.6654 6.0688 8.6654 11.597 0 6.6546-5.3093 12.041-11.871 12.041-6.5605 0-11.871-5.3854-11.871-12.041 0-5.5278 3.6637-10.18 8.6652-11.597 0.6715-0.19018 1.1412-0.80256 1.1412-1.5096v-1.0894c0-1.028-0.957-1.777-1.9384-1.5204-6.9259 1.8096-12.036 8.2047-11.997 15.804 0.046 8.9688 7.192 16.161 16.034 16.142 8.8206-0.0187 15.966-7.2777 15.966-16.229 0-7.5671-5.1057-13.925-12.013-15.721-0.9748-0.25353-1.9218 0.50341-1.9218 1.5243z" stroke-width=".0625"/>
    <path d="m662.76 165.86c0 5.05-4.0934 9.1429-9.1429 9.1429h-26.286c-5.6807 0-10.286-4.605-10.286-10.286 0-4.4836 2.8694-8.2964 6.8718-9.7043a11.691 11.691 0 0 1-0.014-0.58143c0-6.3114 5.1166-11.429 11.429-11.429 4.2348 0 7.9316 2.3036 9.9059 5.7257 1.0894-0.72857 2.3991-1.1543 3.8084-1.1543 3.787 0 6.8571 3.07 6.8571 6.8571 0 0.87071-0.1624 1.7029-0.4581 2.4686 4.1736 0.84714 7.3153 4.5364 7.3153 8.96zm-16.808-6.5221-7.5266-7.5264c-0.4463-0.44643-1.1699-0.44643-1.6162 0l-7.5266 7.5264c-0.72 0.72-0.21 1.9507 0.8082 1.9507h4.6693v8c0 0.63143 0.5118 1.1429 1.1428 1.1429h3.4286c0.6312 0 1.1429-0.51143 1.1429-1.1429v-8h4.6695c1.0182 0 1.5281-1.2307 0.8081-1.9507z"/>
    <path d="m660.47 44.429v6.8571c0 1.8936-1.535 3.4286-3.4286 3.4286h-34.286c-1.8936 0-3.4286-1.535-3.4286-3.4286v-6.8571c0-1.8936 1.535-3.4286 3.4286-3.4286h34.286c1.8936 0 3.4286 1.535 3.4286 3.4286zm-3.4286-5.7143a5.6826 5.6826 0 0 1 2.1986 0.44071l-6.895-10.343a3.4288 3.4288 0 0 0-2.8528-1.5264h-19.187a3.4286 3.4286 0 0 0-2.8528 1.5264l-6.895 10.343a5.6826 5.6826 0 0 1 2.1986-0.44071zm-3.4286 6.8571c-1.2621 0-2.2857 1.0236-2.2857 2.2857s1.0236 2.2857 2.2857 2.2857 2.2857-1.0236 2.2857-2.2857-1.0236-2.2857-2.2857-2.2857zm-6.8571 0c-1.2621 0-2.2857 1.0236-2.2857 2.2857s1.0236 2.2857 2.2857 2.2857 2.2857-1.0236 2.2857-2.2857-1.0236-2.2857-2.2857-2.2857z"/>
    <g stroke-width=".0625">
      <path d="m521.8 298.66h14.875c1.3375 0 2.0063 1.6187 1.0625 2.5625l-7.4375 7.4375c-0.5875 0.5875-1.5375 0.5875-2.1187 0l-7.4438-7.4375c-0.9437-0.94378-0.275-2.5625 1.0625-2.5625zm15.938-6.5625-7.4375-7.4375c-0.5875-0.5875-1.5375-0.5875-2.1187 0l-7.4438 7.4375c-0.9437 0.94372-0.275 2.5625 1.0625 2.5625h14.875c1.3375 0 2.0063-1.6188 1.0625-2.5625z"/>
      <path d="m399.31 26.111-4.0813 8.275-9.1312 1.3312c-1.6375 0.2375-2.2938 2.2563-1.1063 3.4125l6.6063 6.4375-1.5625 9.0938c-0.2813 1.6437 1.45 2.875 2.9 2.1062l8.1688-4.2937 8.1687 4.2937c1.45 0.7625 3.1813-0.4625 2.9-2.1062l-1.5625-9.0938 6.6063-6.4375c1.1875-1.1562 0.5312-3.175-1.1063-3.4125l-9.1312-1.3312-4.0813-8.275c-0.7312-1.475-2.85-1.4938-3.5875 0z"/>
      <path d="m572.77 364.09c0 2.2091-1.7909 4-4 4s-4-1.7909-4-4c0-1.4803 0.8048-2.7718 2-3.4635v-6.5365c0-1.1046 0.8955-2 2-2 1.1046 0 2 0.89543 2 2v6.5365c1.1953 0.69171 2 1.9832 2 3.4635zm2-5.2908c1.2445 1.4102 2 3.2621 2 5.2908 0 4.4185-3.5814 8-8 8h-0.057c-4.3938-0.0307-7.9655-3.6475-7.943-8.0415 0.01-2.0124 0.7639-3.8486 1.9999-5.2491v-12.709c0-3.3136 2.6863-6 6-6 3.3136 0 6 2.6864 6 6zm-1 5.2908c0-2.1461-1.2106-3.2619-2-4.1564v-13.844c0-1.6541-1.3458-3-3-3s-3 1.3459-3 3v13.844c-0.7957 0.90179-1.989 2.0063-1.9999 4.13-0.014 2.7423 2.2227 5.0073 4.9639 5.0263h0.036c2.757 0 5-2.243 5-5z"/>
      <path d="m535.31 403.09h-12c-6.6275 0-12 5.3725-12 12 0 6.6274 5.3725 12 12 12h12c6.6274 0 12-5.3726 12-12 0-6.6275-5.3726-12-12-12zm-20 12c0-4.4214 3.578-8 8-8 4.4212 0 8 3.578 8 8 0 4.4213-3.5781 8-8 8-4.4213 0-8-3.5781-8-8zm20 8h-3.0566c4.0761-4.5536 4.0773-11.445 0-16h3.0566c4.4213 0 8 3.578 8 8 0 4.4212-3.5781 8-8 8z"/>
      <path d="m444.9 89.501v20.998c0 1.3399-1.6214 1.9999-2.5607 1.0606l-5.5606-5.5595h-6.3786c-0.8284 0-1.5-0.67157-1.5-1.5v-9c0-0.82843 0.6716-1.5 1.5-1.5h6.3786l5.5607-5.5596c0.9381-0.93807 2.5606-0.28057 2.5606 1.0607zm8 10.499c0-2.1073-1.0741-4.0219-2.8733-5.1215-0.9424-0.57586-2.1734-0.27893-2.7495 0.6635-0.576 0.94243-0.279 2.1734 0.6635 2.7495 0.6007 0.36714 0.9593 1.0058 0.9593 1.7085a2.0035 2.0035 0 0 1-0.8627 1.6458c-0.9077 0.62929-1.1335 1.8754-0.5041 2.7832 0.6294 0.90778 1.8755 1.1335 2.7831 0.50414 1.6178-1.1216 2.5837-2.9656 2.5837-4.9331z"/>
      <path d="m425.4 352.59c0.5813 0 0.945 0.63472 0.6454 1.1328-1.5742 2.6167-4.4414 4.3672-7.7176 4.3672-4.9514 0-8.9688-3.9984-8.9998-8.9424-0.031-4.9657 4.0341-9.0576 8.9999-9.0576 3.2726 7e-5 6.1373 1.7469 7.7125 4.3589 0.3024 0.5015-0.055 1.1411-0.6405 1.1411h-6.5721l-2.5 3.5 2.5 3.5zm-10.728 5.8127-12.516 12.516c-1.5621 1.562-4.0947 1.5621-5.6569 0-1.562-1.5621-1.562-4.0948 0-5.6569l12.515-12.515c1.01 2.5748 3.0814 4.6459 5.6572 5.6564zm-12.844 8.6873c0-0.82842-0.6716-1.5-1.5-1.5-0.8285 0-1.5 0.67157-1.5 1.5 0 0.8285 0.6715 1.5 1.5 1.5 0.8284 0 1.5-0.6715 1.5-1.5z"/>
      <path d="m334.5 143c1.6569 0 3 1.3431 3 3v18c0 1.6569-1.3431 3-3 3h-18c-1.6569 0-3-1.3431-3-3v-18c0-1.6569 1.3432-3 3-3h18m-18 26c-2.757 0-5-2.243-5-5v-13h-3c-1.6569 0-3 1.3431-3 3v18c0 1.6569 1.3431 3 3 3h18c1.6569 0 3-1.3431 3-3v-3z"/>
      <path d="m664.96 253.47h-26c-1.6569 0-3 1.3432-3 3v18c0 1.6569 1.3431 3 3 3h26c1.6569 0 3-1.3431 3-3v-18c0-1.6568-1.3431-3-3-3zm-18 5c2.4163 0 4.375 1.9587 4.375 4.375 0 2.4162-1.9587 4.375-4.375 4.375-2.4162 0-4.375-1.9588-4.375-4.375 0-2.4163 1.9588-4.375 4.375-4.375zm7 12.688c0 0.72486-0.5876 1.3125-1.3125 1.3125h-11.375c-0.7249 0-1.3125-0.58764-1.3125-1.3125v-1.0129c0-1.2045 0.8198-2.2545 1.9884-2.5466l1.95-0.4875c1.5915 1.1448 4.0746 1.4736 6.1234 0l1.95 0.4875c1.1686 0.29214 1.9883 1.3421 1.9883 2.5466zm10-2.4375c0 0.41422-0.3358 0.75-0.75 0.75h-6.5c-0.4141 0-0.75-0.33578-0.75-0.75v-0.5c0-0.41421 0.3359-0.75 0.75-0.75h6.5c0.4142 0 0.75 0.33579 0.75 0.75zm0-4c0 0.41422-0.3358 0.75-0.75 0.75h-6.5c-0.4141 0-0.75-0.33578-0.75-0.75v-0.5c0-0.41421 0.3359-0.75 0.75-0.75h6.5c0.4142 0 0.75 0.33579 0.75 0.75zm0-4c0 0.41422-0.3358 0.75-0.75 0.75h-6.5c-0.4141 0-0.75-0.33578-0.75-0.75v-0.5c0-0.41421 0.3359-0.75 0.75-0.75h6.5c0.4142 0 0.75 0.33579 0.75 0.75z"/>
      <path d="m434.81 406.13h-3c-0.8284 0-1.5 0.67157-1.5 1.5v13c0 0.82843 0.6716 1.5 1.5 1.5h3c0.8284 0 1.5-0.67157 1.5-1.5v-13c0-0.82843-0.6716-1.5-1.5-1.5zm-1.5 14.25c-0.6903 0-1.25-0.55964-1.25-1.25s0.5597-1.25 1.25-1.25c0.6904 0 1.25 0.55964 1.25 1.25s-0.5596 1.25-1.25 1.25zm35.5-14.25h-3c-0.8284 0-1.5 0.67157-1.5 1.5v13c0 0.82843 0.6716 1.5 1.5 1.5h3c0.8284 0 1.5-0.67157 1.5-1.5v-13c0-0.82843-0.6716-1.5-1.5-1.5zm-1.5 14.25c-0.6903 0-1.25-0.55964-1.25-1.25s0.5597-1.25 1.25-1.25c0.6904 0 1.25 0.55964 1.25 1.25s-0.5596 1.25-1.25 1.25zm-6.6287-15.458 2.6287 3.0044v11.204h-1.1981c0.035-0.935-0.2738-1.8113-0.875-2.4819l-5.0575-6.1819c0.1831-0.2 0.1725-0.51-0.024-0.6975-0.1762-0.16871-0.4425-0.1825-0.6337-0.0471-0.026 0.0186-3.7719 3.9331-3.7719 3.9331l-0.012 0.0129c-1.494 1.6816-4.1329 1.6377-5.5719-0.0888-0.9675-1.1612-0.9556-2.8369 0.028-3.985l4.1606-4.8544c0.8496-0.99186 2.114-1.6094 3.4994-1.6094h2.8781a5.2488 5.2488 0 0 1 3.9494 1.7919zm-0.2106 12.37c0.9662 1.0488 0.7868 2.7394-0.1482 3.6094-1.1069 1.0289-2.6521 0.81279-2.8706 0.575 0.1033 0.97864-1.3368 2.9531-3.5263 2.7925-0.3953 1.3241-2.0186 2.4318-3.6987 1.8506-0.6388 0.63814-1.6138 0.93564-2.4881 0.93564-1.7931 0-3.4325-0.74936-4.5363-1.925l-5.8925-6v-11.53l3.835-3.1606a4.47 4.47 0 0 1 3.1606-1.3094h2.3388c1.0456 0 2.0425 0.4275 2.7631 1.1781l-3.9731 4.635c-1.3025 1.5194-1.3181 3.7381-0.037 5.2762 1.8359 2.2029 5.1879 2.2409 7.0819 0.12l3.0069-3.1469z"/>
      <path d="m336.98 35.722 0.5102-2.8571c0.094-0.5253-0.3101-1.0078-0.8438-1.0078h-5.3435l1.0445-5.8494c0.094-0.5253-0.3101-1.0078-0.8437-1.0078h-2.9023a0.85714 0.85714 0 0 0-0.8439 0.70653l-1.0983 6.1506h-7.0453l1.0445-5.8494c0.094-0.5253-0.3101-1.0077-0.8438-1.0077h-2.9023a0.85714 0.85714 0 0 0-0.8439 0.70652l-1.0983 6.1506h-5.6497a0.85714 0.85714 0 0 0-0.8438 0.70653l-0.5101 2.8571c-0.094 0.5253 0.31 1.0078 0.8436 1.0078h5.3436l-1.6327 9.1428h-5.6497a0.85714 0.85714 0 0 0-0.8437 0.70653l-0.5103 2.8571c-0.094 0.5253 0.3102 1.0078 0.8438 1.0078h5.3436l-1.0445 5.8494c-0.094 0.52531 0.3101 1.0078 0.8438 1.0078h2.9023a0.85714 0.85714 0 0 0 0.8437-0.70653l1.0984-6.1506h7.0453l-1.0445 5.8494c-0.094 0.5253 0.3101 1.0078 0.8438 1.0078h2.9023a0.85714 0.85714 0 0 0 0.8437-0.70654l1.0984-6.1506h5.6497a0.85714 0.85714 0 0 0 0.8439-0.70654l0.5102-2.8571c0.094-0.5253-0.3102-1.0077-0.8439-1.0077h-5.3436l1.6327-9.1428h5.6497a0.85714 0.85714 0 0 0 0.8438-0.70654zm-12.77 9.8494h-7.0453l1.6327-9.1428h7.0453z"/>
      <path d="m413.6 162.53v8.9563c0 0.83121-0.6687 1.5-1.5 1.5h-7.25c-0.4125 0-0.75-0.3375-0.75-0.75v-7c0-0.4125-0.3375-0.75-0.75-0.75h-4.5c-0.4125 0-0.75 0.3375-0.75 0.75v7c0 0.4125-0.3375 0.75-0.75 0.75h-7.25c-0.8312 0-1.5-0.66879-1.5-1.5v-8.9563c0-0.225 0.1-0.4375 0.275-0.58121l11.75-9.675c0.275-0.225 0.675-0.225 0.9563 0l11.75 9.675c0.1687 0.14371 0.2687 0.35621 0.2687 0.58121zm5.225-3.8062-5.225-4.3063v-8.6562c0-0.4125-0.3375-0.75-0.75-0.75h-3.5c-0.4125 0-0.75 0.3375-0.75 0.75v4.5375l-5.5937-4.6063c-1.1063-0.9125-2.7063-0.9125-3.8125 0l-15.819 13.031c-0.3187 0.2625-0.3625 0.7375-0.1 1.0562l1.5938 1.9375c0.2625 0.31879 0.7375 0.3625 1.0562 0.1l14.7-12.106c0.275-0.225 0.675-0.225 0.9563 0l14.7 12.106c0.3187 0.2625 0.7937 0.21879 1.0562-0.1l1.5938-1.9375c0.2625-0.325 0.2125-0.79371-0.1063-1.0562z"/>
    </g>
  </g>
  <text x="880.35059" y="80" fill="#ffffff" font-family="Jura" font-size="66.372px" font-weight="bold" letter-spacing="0px" stroke-width="2.7455" text-align="center" text-anchor="middle" word-spacing="0px" style="font-feature-settings:normal;font-variant-caps:normal;font-variant-ligatures:normal;font-variant-numeric:normal;line-height:0" xml:space="preserve"><tspan x="880.35059" y="80" fill="#ffffff" font-family="Jura" font-size="66.372px" font-weight="bold" stroke-width="2.7455" text-align="center" text-anchor="middle" style="font-feature-settings:normal;font-variant-caps:normal;font-variant-ligatures:normal;font-variant-numeric:normal">About</tspan></text>
  <line x1="783" x2="1203" y1="100" y2="100" clip-rule="evenodd" fill="#95c5cd" fill-rule="evenodd" stroke="#95c5cd" stroke-miterlimit="10" stroke-width="5"/>
  <g transform="translate(-1314,-8.75)">
    <a id="facebook-btn" class="btn" transform="translate(1004.6,-86.25)" target="_parent" xlink:href="https://www.facebook.com/DurhamCompSoc">
      <rect class="btn-rect" x="1093.2" y="215.75" width="43.5" height="43.5" rx="7.5" ry="7.5" fill-opacity="0" stroke="#95c5cd" stroke-width="1.5"/>
      <path class="btn-icon" d="m1111.6 253.25v-14.089h-4.7189v-5.5986h4.7189v-4.4112c0-4.7927 2.9284-7.4013 7.2042-7.4013 2.0488 0 3.8084 0.1538 4.319 0.22148v5.008h-2.9654c-2.3256 0-2.7747 1.1074-2.7747 2.7255v3.8575h5.2479l-0.7198 5.5986h-4.5281v14.089" fill="#c6e3e9" stroke-width=".061523"/>
      <rect x="1077.4" y="200" width="75" height="75" fill-opacity="0" stroke-width=".86244"/>
    </a>
    <a id="slack-btn" class="btn" transform="translate(1015.6,-86.25)" target="_parent" xlink:href="https://ducompsoc.slack.com">
      <rect class="btn-rect" x="1175.8" y="215.75" width="43.5" height="43.5" rx="7.5" ry="7.5" fill-opacity="0" stroke="#95c5cd" stroke-width="1.5"/>
      <g id="slack-btn-icon" class="btn-icon" transform="matrix(.25832 0 0 .25853 1162.4 201.17)" fill="#c6e3e9">
        <g fill="#c6e3e9">
          <path class="st0" d="m154.3 87.1c-1.9-5.7-8-8.8-13.7-7-5.7 1.9-8.8 8-7 13.7l28.1 86.4c1.9 5.3 7.7 8.3 13.2 6.7 5.8-1.7 9.3-7.8 7.4-13.4 0-0.2-28-86.4-28-86.4z"/>
          <path class="st1" d="m110.8 101.2c-1.9-5.7-8-8.8-13.7-7-5.7 1.9-8.8 8-7 13.7l28.1 86.4c1.9 5.3 7.7 8.3 13.2 6.7 5.8-1.7 9.3-7.8 7.4-13.4 0-0.2-28-86.4-28-86.4z"/>
          <path class="st2" d="m189.7 158.6c5.7-1.9 8.8-8 7-13.7-1.9-5.7-8-8.8-13.7-7l-86.5 28.2c-5.3 1.9-8.3 7.7-6.7 13.2 1.7 5.8 7.8 9.3 13.4 7.4 0.2 0 86.5-28.1 86.5-28.1z"/>
          <path class="st3" d="m114.5 183.1c5.6-1.8 12.9-4.2 20.7-6.7-1.8-5.6-4.2-12.9-6.7-20.7l-20.7 6.7z"/>
          <path class="st4" d="m158.1 168.9c7.8-2.5 15.1-4.9 20.7-6.7-1.8-5.6-4.2-12.9-6.7-20.7l-20.7 6.7z"/>
          <path class="st5" d="m175.5 115.1c5.7-1.9 8.8-8 7-13.7-1.9-5.7-8-8.8-13.7-7l-86.4 28.1c-5.3 1.9-8.3 7.7-6.7 13.2 1.7 5.8 7.8 9.3 13.4 7.4 0.2 0 86.4-28 86.4-28z"/>
          <path class="st6" d="m100.4 139.5c5.6-1.8 12.9-4.2 20.7-6.7-2.5-7.8-4.9-15.1-6.7-20.7l-20.7 6.7z"/>
          <path class="st7" d="m143.9 125.4c7.8-2.5 15.1-4.9 20.7-6.7-2.5-7.8-4.9-15.1-6.7-20.7l-20.7 6.7z"/>
        </g>
      </g>
      <rect x="1160.1" y="200" width="75" height="75" fill-opacity="0" stroke-width=".86244"/>
    </a>
    <a id="calendar-btn" class="btn" transform="translate(1026.9,-86.25)" target="_parent" xlink:href="/events">
      <rect class="btn-rect" x="1258.3" y="215.75" width="43.5" height="43.5" rx="7.5" ry="7.5" fill-opacity="0" stroke="#95c5cd" stroke-width="1.5"/>
      <path class="btn-icon" d="m1293.1 231.59h-26.086c-0.4061 0-0.7382-0.33228-0.7382-0.7383v-2.2148c0-1.6304 1.3227-2.9531 2.9532-2.9531h2.9529v-3.1992c0-0.40592 0.3323-0.73834 0.7384-0.73834h2.4609c0.4061 0 0.7382 0.33227 0.7382 0.73834v3.1992h7.875v-3.1992c0-0.40592 0.3323-0.73834 0.7384-0.73834h2.4609c0.4061 0 0.7382 0.33227 0.7382 0.73834v3.1992h2.9532c1.6303 0 2.9531 1.3228 2.9531 2.9531v2.2148c0 0.40588-0.3323 0.7383-0.7382 0.7383zm-26.086 1.9687h26.086c0.4061 0 0.7382 0.33225 0.7382 0.7383v15.996c0 1.6303-1.3228 2.9531-2.9531 2.9531h-21.656c-1.6305 0-2.9532-1.3228-2.9532-2.9531v-15.996c0-0.40638 0.3321-0.7383 0.7382-0.7383zm7.1367 12.551c0-0.40639-0.3321-0.73833-0.7381-0.73833h-2.4611c-0.4061 0-0.7383 0.33229-0.7383 0.73833v2.4609c0 0.40588 0.3322 0.73826 0.7383 0.73826h2.4611c0.406 0 0.7381-0.33227 0.7381-0.73826zm0-7.875c0-0.40636-0.3321-0.73826-0.7381-0.73826h-2.4611c-0.4061 0-0.7383 0.33225-0.7383 0.73826v2.4609c0 0.40639 0.3322 0.73832 0.7383 0.73832h2.4611c0.406 0 0.7381-0.33228 0.7381-0.73832zm7.875 7.875c0-0.40639-0.3323-0.73833-0.7382-0.73833h-2.461c-0.4061 0-0.7383 0.33229-0.7383 0.73833v2.4609c0 0.40588 0.3322 0.73826 0.7383 0.73826h2.461c0.4061 0 0.7382-0.33227 0.7382-0.73826zm0-7.875c0-0.40636-0.3323-0.73826-0.7382-0.73826h-2.461c-0.4061 0-0.7383 0.33225-0.7383 0.73826v2.4609c0 0.40639 0.3322 0.73832 0.7383 0.73832h2.461c0.4061 0 0.7382-0.33228 0.7382-0.73832zm7.875 7.875c0-0.40639-0.3323-0.73833-0.7384-0.73833h-2.4608c-0.4061 0-0.7382 0.33229-0.7382 0.73833v2.4609c0 0.40588 0.3321 0.73826 0.7382 0.73826h2.4608c0.4061 0 0.7384-0.33227 0.7384-0.73826zm0-7.875c0-0.40636-0.3323-0.73826-0.7384-0.73826h-2.4608c-0.4061 0-0.7382 0.33225-0.7382 0.73826v2.4609c0 0.40639 0.3321 0.73832 0.7382 0.73832h2.4608c0.4061 0 0.7384-0.33228 0.7384-0.73832z" fill="#c6e3e9" stroke-width=".061523"/>
      <rect x="1242.6" y="200" width="75" height="75" fill-opacity="0" stroke-width=".86244"/>
    </a>
    <a id="github-btn" class="btn" transform="translate(1037.4,-86.25)" target="_parent" xlink:href="https://github.com/ducompsoc">
      <rect class="btn-rect" x="1341.6" y="215.75" width="43.5" height="43.5" rx="7.5" ry="7.5" fill-opacity="0" stroke="#95c5cd" stroke-width="1.5"/>
      <path class="btn-icon" d="m1358.1 246.87c0 0.12705-0.1462 0.22863-0.3303 0.22863-0.2096 0.0191-0.3557-0.0825-0.3557-0.22863 0-0.12705 0.1462-0.22862 0.3302-0.22862 0.1907-0.0191 0.3558 0.0825 0.3558 0.22862zm-1.9752-0.28579c-0.045 0.12705 0.082 0.27311 0.2731 0.31121 0.1651 0.0636 0.3557 0 0.3938-0.12705 0.039-0.12705-0.082-0.27308-0.2732-0.33026-0.165-0.0446-0.3493 0.0191-0.3937 0.1461zm2.8072-0.108c-0.1843 0.0446-0.3113 0.16511-0.2923 0.31119 0.019 0.12705 0.1843 0.20957 0.3748 0.1651 0.1841-0.0446 0.3112-0.1651 0.2921-0.29213-0.019-0.1206-0.1905-0.20325-0.3746-0.18416zm4.1787-24.336c-8.8085 0-15.547 6.6874-15.547 15.496 0 7.0431 4.4328 13.07 10.765 15.191 0.8129 0.1461 1.0986-0.35565 1.0986-0.76845 0-0.39375-0.019-2.5657-0.019-3.8994 0 0-4.4455 0.95263-5.3791-1.8925 0 0-0.724-1.8481-1.7655-2.3244 0 0-1.4544-0.99707 0.1018-0.97802 0 0 1.5813 0.12705 2.4514 1.6385 1.3908 2.4514 3.7216 1.7465 4.6297 1.3273 0.1461-1.0162 0.5589-1.7211 1.0162-2.1402-3.5502-0.39375-7.132-0.90816-7.132-7.0176 0-1.7465 0.4827-2.6229 1.4988-3.7406-0.1652-0.4128-0.705-2.1148 0.1652-4.3122 1.3272-0.41282 4.382 1.7147 4.382 1.7147 1.2702-0.35564 2.6356-0.53982 3.9882-0.53982 1.3528 0 2.7182 0.18418 3.9883 0.53982 0 0 3.0548-2.1339 4.3822-1.7147 0.87 2.2037 0.3302 3.8994 0.1651 4.3122 1.0162 1.1241 1.6384 2.0005 1.6384 3.7406 0 6.1285-3.7405 6.6175-7.2906 7.0176 0.5842 0.50173 1.0796 1.4543 1.0796 2.9468 0 2.1402-0.019 4.7885-0.019 5.3093 0 0.41282 0.2921 0.91451 1.0987 0.76845 6.3508-2.1085 10.657-8.1354 10.657-15.178 0-8.8086-7.1447-15.496-15.953-15.496zm-9.3738 21.904c-0.082 0.0634-0.064 0.20958 0.045 0.33023 0.1018 0.10157 0.2477 0.1461 0.3303 0.0636 0.082-0.0636 0.064-0.20959-0.045-0.33027-0.1017-0.10157-0.2477-0.1461-0.3302-0.0636zm-0.6858-0.51442c-0.045 0.0825 0.019 0.18418 0.146 0.24769 0.1018 0.0636 0.2286 0.0446 0.2731-0.0446 0.045-0.0825-0.019-0.18417-0.1461-0.2477-0.127-0.0381-0.2286-0.0191-0.2731 0.0446zm2.0576 2.2609c-0.1018 0.0825-0.064 0.27305 0.082 0.39375 0.1461 0.1461 0.3303 0.16512 0.4128 0.0636 0.082-0.0825 0.045-0.2731-0.082-0.39375-0.1398-0.1461-0.3303-0.16515-0.4128-0.0636zm-0.724-0.93359c-0.1018 0.0636-0.1018 0.22862 0 0.37469 0.1018 0.1461 0.2731 0.2096 0.3557 0.1461 0.1018-0.0825 0.1018-0.24768 0-0.39375-0.089-0.1461-0.254-0.20957-0.3557-0.12705z" fill="#c6e3e9" stroke-width=".063508"/>
      <rect x="1325.8" y="200" width="75" height="75" fill-opacity="0" stroke-width=".86244"/>
    </a>
    <a id="email-btn" class="btn" transform="translate(1049.5,-86.25)" target="_parent" xlink:href="/contact">
      <rect class="btn-rect" x="1423.3" y="215.75" width="43.5" height="43.5" rx="7.5" ry="7.5" fill-opacity="0" stroke="#95c5cd" stroke-width="1.5"/>
      <path class="btn-icon" d="m1460.2 233.49c0.24-0.19073 0.5968-0.0135 0.5968 0.28916v12.582c0 1.6304-1.3228 2.9531-2.9531 2.9531h-25.594c-1.6303 0-2.9531-1.3227-2.9531-2.9531v-12.575c0-0.30762 0.3506-0.47989 0.5968-0.28916 1.378 1.0705 3.2053 2.4302 9.4807 6.989 1.2981 0.94749 3.4883 2.9408 5.6725 2.9285 2.1964 0.0184 4.4297-2.018 5.6786-2.9285 6.2754-4.5589 8.0965-5.9247 9.4746-6.9952zm-15.153 7.9488c1.4273 0.0246 3.4822-1.7965 4.5158-2.5471 8.1642-5.9247 8.7855-6.4415 10.668-7.9181 0.3569-0.27683 0.5661-0.70751 0.5661-1.1628v-1.169c0-1.6304-1.3228-2.9531-2.9531-2.9531h-25.594c-1.6303 0-2.9531 1.3227-2.9531 2.9531v1.169c0 0.45527 0.2091 0.8798 0.566 1.1628 1.8826 1.4704 2.504 1.9934 10.668 7.9181 1.0336 0.75056 3.0885 2.5717 4.5159 2.5471z" fill="#c6e3e9" stroke-width=".061523"/>
      <rect x="1407.5" y="200" width="75" height="75" fill-opacity="0" stroke-width=".86244"/>
    </a>
  </g>
</svg>
